<svg xmlns="http://www.w3.org/2000/svg" xmlns:xlink="http://www.w3.org/1999/xlink" width="118" height="118" viewBox="0 0 118 118">
  <defs>
    <filter id="Path_896985" x="0" y="0" width="118" height="118" filterUnits="userSpaceOnUse">
      <feOffset dy="3" input="SourceAlpha"/>
      <feGaussianBlur stdDeviation="3" result="blur"/>
      <feFlood flood-opacity="0.161"/>
      <feComposite operator="in" in2="blur"/>
      <feComposite in="SourceGraphic"/>
    </filter>
  </defs>
  <g id="Group_1178814" data-name="Group 1178814" transform="translate(-322 -505.812)">
    <g id="Group_1178732" data-name="Group 1178732" transform="translate(-1.391 -3337.188)">
      <g id="Group_1111318" data-name="Group 1111318" transform="translate(-8.391 -3)">
        <g id="Group_1109826" data-name="Group 1109826" transform="translate(340.781 3852)">
          <g id="Group_1098742" data-name="Group 1098742">
            <g transform="matrix(1, 0, 0, 1, -9, -6)" filter="url(#Path_896985)">
              <g id="Path_896985-2" data-name="Path 896985" transform="translate(9 6)" fill="#2f5235" opacity="0.859">
                <path d="M 49.99993896484375 98.5 C 43.45182418823242 98.5 37.10037994384766 97.21788787841797 31.12203979492188 94.68926239013672 C 25.34688186645508 92.24657440185547 20.15993881225586 88.74932861328125 15.70529651641846 84.29470062255859 C 11.25066757202148 79.84007263183594 7.753438949584961 74.65312957763672 5.310753345489502 68.87797546386719 C 2.782124757766724 62.89963150024414 1.499996066093445 56.54819107055664 1.499996066093445 50.00007629394531 C 1.499996066093445 43.45181655883789 2.782124757766724 37.10037612915039 5.310753345489502 31.12203216552734 C 7.753438949584961 25.34687614440918 11.25066757202148 20.15993309020996 15.70529651641846 15.70530414581299 C 20.15993881225586 11.25067520141602 25.34688186645508 7.753432273864746 31.12203979492188 5.310746669769287 C 37.10037994384766 2.782118082046509 43.45182418823242 1.500003814697266 49.99993896484375 1.500003814697266 C 56.54805374145508 1.500003814697266 62.89949798583984 2.782118082046509 68.87785339355469 5.310746669769287 C 74.65300750732422 7.753432273864746 79.83995056152344 11.25067520141602 84.29457855224609 15.70530414581299 C 88.74921417236328 20.15993309020996 92.24645233154297 25.34687614440918 94.68914031982422 31.12203216552734 C 97.21776580810547 37.10037612915039 98.49988555908203 43.45181655883789 98.49988555908203 49.99993133544922 C 98.49988555908203 56.54819107055664 97.21776580810547 62.89963150024414 94.68914031982422 68.87797546386719 C 92.24645233154297 74.65312957763672 88.74921417236328 79.84007263183594 84.29457855224609 84.29470062255859 C 79.83995056152344 88.74932861328125 74.65300750732422 92.24657440185547 68.87785339355469 94.68926239013672 C 62.89949798583984 97.21788787841797 56.54805374145508 98.5 49.99993896484375 98.5 Z" stroke="none"/>
                <path d="M 49.99993896484375 3.000007629394531 C 43.65366363525391 3.000007629394531 37.49881744384766 4.242263793945312 31.70636749267578 6.692268371582031 C 26.11000061035156 9.059326171875 21.08332061767578 12.44860076904297 16.76596832275391 16.76596069335938 C 12.44860076904297 21.08332824707031 9.059326171875 26.11000061035156 6.6922607421875 31.70635986328125 C 4.242263793945312 37.49881744384766 3 43.65366363525391 3 50.00006484985352 C 3 56.34634399414062 4.242263793945312 62.50119018554688 6.6922607421875 68.29363250732422 C 9.059326171875 73.88999938964844 12.44860076904297 78.91667938232422 16.76596832275391 83.23403930664062 C 21.08332061767578 87.55140686035156 26.11000061035156 90.94068145751953 31.70636749267578 93.3077392578125 C 37.49881744384766 95.75774383544922 43.65366363525391 97 49.99993896484375 97 C 56.34621429443359 97 62.50106048583984 95.75774383544922 68.29352569580078 93.3077392578125 C 73.88987731933594 90.94068145751953 78.91654968261719 87.55140686035156 83.23392486572266 83.23403930664062 C 87.55127716064453 78.91667938232422 90.9405517578125 73.88999938964844 93.3076171875 68.29363250732422 C 95.75761413574219 62.50119018554688 96.9998779296875 56.34634399414062 96.9998779296875 49.99994277954102 C 96.9998779296875 43.65366363525391 95.75761413574219 37.49881744384766 93.3076171875 31.70635986328125 C 90.94056701660156 26.11000061035156 87.55127716064453 21.08332824707031 83.23392486572266 16.76596069335938 C 78.91654968261719 12.44860076904297 73.88987731933594 9.059310913085938 68.29352569580078 6.692268371582031 C 62.50106048583984 4.242263793945312 56.34621429443359 3.000007629394531 49.99993896484375 3.000007629394531 M 49.99993896484375 7.62939453125e-06 C 77.61415100097656 7.62939453125e-06 99.9998779296875 22.38572692871094 99.9998779296875 49.99994277954102 L 99.9998779296875 50.00006484985352 C 99.9998779296875 77.61426544189453 77.61415100097656 100 49.99993896484375 100 C 22.3857421875 100 0 77.61426544189453 0 50.00006484985352 L 0 49.99994277954102 C 0 22.38572692871094 22.3857421875 7.62939453125e-06 49.99993896484375 7.62939453125e-06 Z" stroke="none" fill="#fff"/>
              </g>
            </g>
            <g id="Rectangle_400907" data-name="Rectangle 400907" transform="translate(0 0)" fill="none" stroke="#fff" stroke-width="3">
              <rect width="100" height="100" rx="50" stroke="none"/>
              <rect x="1.5" y="1.5" width="97" height="97" rx="48.5" fill="none"/>
            </g>
          </g>
        </g>
      </g>
    </g>
    <g id="touch_12434165" transform="translate(343.78 526.104)">
      <path id="Path_1034637" data-name="Path 1034637" d="M263.389,285.66l1.581-7.724-1.38-5.15-6.908-1.425-5.012,4.619.635,2.369,2.69,5.371Z" transform="translate(-214.942 -233.911)" fill="#f1b0a2"/>
      <path id="Path_1034638" data-name="Path 1034638" d="M338.668,289.981l.965-4.717-1.38-5.149-2.36-.487Z" transform="translate(-289.606 -241.239)" fill="#eb9c8d"/>
      <path id="Path_1034639" data-name="Path 1034639" d="M141.2,7.5l-.016,2.465a34.62,34.62,0,0,0,6.894,21.31l1.142,1.526a27.242,27.242,0,0,1,4.5,9.268l11.92-3.194L157.235,7.5Z" transform="translate(-116.994)" fill="#d77f4a"/>
      <path id="Path_1034640" data-name="Path 1034640" d="M241.508,340.159l-2.417-1.449a22.134,22.134,0,0,1-7.787-7.916l-.872-1.51-.412.465a7.946,7.946,0,0,1-10.662,1.122l-1.59-1.173-.817.66A11.351,11.351,0,0,0,212.737,339l-.026,1.521a.568.568,0,0,0,.421.558l9.562,2.562a.568.568,0,0,0,.431-.057l1.6-.925a.567.567,0,0,1,.66.067l2.543,2.255a.568.568,0,0,0,.23.124l15.2,4.072.717-2.676A5.675,5.675,0,0,0,241.508,340.159Z" transform="translate(-180.405 -285.259)" fill="#fee8c7"/>
      <path id="Path_1034641" data-name="Path 1034641" d="M241.9,418.768a.567.567,0,0,1-.7.4l-11.937-3.2a.565.565,0,0,1-.23-.124l-2.142-1.9a2.838,2.838,0,0,0-3.3-.334l-.787.454a.568.568,0,0,1-.431.057l-9.624-2.579q-.009.186-.012.374l-.026,1.521a.568.568,0,0,0,.421.558l9.562,2.562a.568.568,0,0,0,.431-.057l1.6-.925a.568.568,0,0,1,.66.067l2.543,2.255a.567.567,0,0,0,.23.124l15.2,4.072.717-2.676a5.675,5.675,0,0,0-1.017-4.973Z" transform="translate(-180.404 -358.184)" fill="#fedba6"/>
      <path id="Path_1034642" data-name="Path 1034642" d="M248.075,7.5h-2.229l7.681,28.666a.454.454,0,0,1-.321.556l-9.554,2.56a27.259,27.259,0,0,1,.91,2.787l11.92-3.194Z" transform="translate(-207.834)" fill="#c86d36"/>
      <line id="Line_649" data-name="Line 649" x2="0.635" y2="2.369" transform="translate(36.728 42.069)" fill="none" stroke="#000" stroke-linecap="round" stroke-linejoin="round" stroke-miterlimit="10" stroke-width="1.5"/>
      <line id="Line_650" data-name="Line 650" x1="1.38" y1="5.15" transform="translate(48.648 38.875)" fill="none" stroke="#000" stroke-linecap="round" stroke-linejoin="round" stroke-miterlimit="10" stroke-width="1.5"/>
      <path id="Path_1034643" data-name="Path 1034643" d="M144.154,24.575a34.615,34.615,0,0,0,3.925,6.7L149.22,32.8a27.242,27.242,0,0,1,4.5,9.268l11.92-3.194L157.234,7.5H141.2l-.016,2.465a34.615,34.615,0,0,0,1.562,10.867" transform="translate(-116.993)" fill="none" stroke="#000" stroke-linecap="round" stroke-linejoin="round" stroke-miterlimit="10" stroke-width="1.5"/>
      <path id="Path_1034644" data-name="Path 1034644" d="M10.814,7.5l-.274.961a34.62,34.62,0,0,0,1.144,22.368l.708,1.769A27.241,27.241,0,0,1,14.34,42.716V51.4a.567.567,0,0,1-.1.315l-.645.968a11.351,11.351,0,0,0-1.568,9.049l.545,2.18H44.309" transform="translate(-0.001)" fill="none" stroke="#000" stroke-linecap="round" stroke-linejoin="round" stroke-miterlimit="10" stroke-width="1.5"/>
      <path id="Path_1034645" data-name="Path 1034645" d="M165.67,234.782q-.67-.571-1.3-1.2l-1.067-1.067a.567.567,0,0,1-.166-.4V215.4" transform="translate(-136.462 -184.306)" fill="none" stroke="#000" stroke-linecap="round" stroke-linejoin="round" stroke-miterlimit="10" stroke-width="1.5"/>
      <path id="Path_1034646" data-name="Path 1034646" d="M287.7,343.242l1.471.394a.568.568,0,0,0,.431-.057l1.6-.924a.567.567,0,0,1,.66.067l2.543,2.255a.568.568,0,0,0,.23.124l15.2,4.072.717-2.676a5.675,5.675,0,0,0-2.564-6.336l-2.417-1.449a22.134,22.134,0,0,1-7.787-7.916l-.872-1.51-.412.465a7.951,7.951,0,0,1-1.52,1.33" transform="translate(-246.882 -285.259)" fill="none" stroke="#000" stroke-linecap="round" stroke-linejoin="round" stroke-miterlimit="10" stroke-width="1.5"/>
      <path id="Path_1034647" data-name="Path 1034647" d="M224.677,335.633a7.924,7.924,0,0,1-5.318-1.529l-1.59-1.173-.817.66a11.351,11.351,0,0,0-4.215,8.637l-.026,1.521a.568.568,0,0,0,.421.558l4.215,1.129" transform="translate(-180.406 -288.492)" fill="none" stroke="#000" stroke-linecap="round" stroke-linejoin="round" stroke-miterlimit="10" stroke-width="1.5"/>
      <path id="Path_1034648" data-name="Path 1034648" d="M104.158,268.385l-1.763,1.763,1.763,1.763" transform="translate(-82.611 -231.273)" fill="none" stroke="#000" stroke-linecap="round" stroke-linejoin="round" stroke-miterlimit="10" stroke-width="1.5"/>
      <line id="Line_651" data-name="Line 651" x1="38.557" transform="translate(19.898 38.875)" fill="none" stroke="#000" stroke-linecap="round" stroke-linejoin="round" stroke-miterlimit="10" stroke-width="1.5"/>
      <path id="Path_1034649" data-name="Path 1034649" d="M428.551,268.385l1.763,1.763-1.763,1.763" transform="translate(-371.746 -231.273)" fill="none" stroke="#000" stroke-linecap="round" stroke-linejoin="round" stroke-miterlimit="10" stroke-width="1.5"/>
      <line id="Line_652" data-name="Line 652" x2="20.767" transform="translate(44.465 63.913)" fill="none" stroke="#000" stroke-linecap="round" stroke-linejoin="round" stroke-miterlimit="10" stroke-width="1.5"/>
      <line id="Line_653" data-name="Line 653" x1="3.526" transform="translate(9.207 63.913)" fill="none" stroke="#000" stroke-linecap="round" stroke-linejoin="round" stroke-miterlimit="10" stroke-width="1.5"/>
    </g>
  </g>
</svg>
