<svg xmlns="http://www.w3.org/2000/svg" width="404" height="404" viewBox="0 0 404 404">
  <g id="Group_1178926" data-name="Group 1178926" transform="translate(978 8192)">
    <g id="Group_1178927" data-name="Group 1178927">
      <circle id="Ellipse_11677" data-name="Ellipse 11677" cx="202" cy="202" r="202" transform="translate(-978 -8192)" fill="#d8cabd"/>
      <path id="Path_1034803" data-name="Path 1034803" d="M340.822,113.242c.422,1.963,1.495,4.092,3.763,4.2a5.165,5.165,0,0,0,1.646-.2c4.669-1.168,9.459-1.783,14.1-3.055a12.911,12.911,0,0,0,5.769-2.874,12.291,12.291,0,0,0,2.99-5.078,40.013,40.013,0,0,0,1.319-6.041A34.181,34.181,0,0,0,371,93.427a12.751,12.751,0,0,0-1.57-5.936,11.605,11.605,0,0,0-3.432-3.7,14.5,14.5,0,0,0-9.919-2.38,15.442,15.442,0,0,0-9.542,5.352,21.219,21.219,0,0,0-4.843,10.468c-.435,2.606-.786,5.243-1.021,7.873a27.5,27.5,0,0,0,.153,8.134" transform="translate(-1066.858 -8197.834)" fill="#2f5235"/>
      <path id="Path_1034804" data-name="Path 1034804" d="M393.8,113.3a.4.4,0,0,0,.03.143c0,.016,0,.031,0,.047.051,1.138.059,2.279.125,3.416a10.142,10.142,0,0,0,.425,2.589,6.485,6.485,0,0,0,3.673,3.846,10.129,10.129,0,0,0,6.241.522,5.984,5.984,0,0,0,2.714-1.463,9.724,9.724,0,0,0,2.025-3.038c.589-1.266,1.112-2.572,1.611-3.875a27.475,27.475,0,0,0,1.331-4.365,12.785,12.785,0,0,0-.514-7.419,8,8,0,0,0-4.695-4.6,9.618,9.618,0,0,0-11.491,4.708,17.349,17.349,0,0,0-1.462,7.519c-.015.658-.016,1.316-.013,1.975" transform="translate(-1086.071 -8204.068)" fill="#2f5235"/>
      <path id="Path_1034805" data-name="Path 1034805" d="M421.56,139.555c3.13,1.723,7.546.926,9.4-2.271a11.246,11.246,0,0,0,1.143-3.08,33.536,33.536,0,0,0,.612-3.309,15.346,15.346,0,0,0-.4-6.745,8.739,8.739,0,0,0-3.414-4.571,6.286,6.286,0,0,0-5.484-.8,8.173,8.173,0,0,0-4.26,3.589,16.281,16.281,0,0,0-1.938,6.468c-.07.557-.129,1.117-.185,1.675a.539.539,0,0,0-.021.081,8.313,8.313,0,0,0,.9,5.391,9.363,9.363,0,0,0,3.641,3.576" transform="translate(-1094.391 -8211.216)" fill="#2f5235"/>
      <path id="Path_1034806" data-name="Path 1034806" d="M440.545,162.388a6.638,6.638,0,0,0,4.489.87,5.589,5.589,0,0,0,3.874-2.533,10.276,10.276,0,0,0,1.085-2.528c.29-.962.536-1.939.729-2.925a12.326,12.326,0,0,0-.06-5.887c-.932-3.1-3.985-5.836-7.388-4.872a7.307,7.307,0,0,0-3.945,2.979,14.416,14.416,0,0,0-1.977,5.406c-.083.422-.159.845-.233,1.269a.3.3,0,0,0-.015.04,7.348,7.348,0,0,0,.458,4.87,8,8,0,0,0,2.983,3.311" transform="translate(-1101.588 -8220.524)" fill="#2f5235"/>
      <path id="Path_1034807" data-name="Path 1034807" d="M462.331,167.54a7.434,7.434,0,0,0-2.463-4.052,4.7,4.7,0,0,0-4.391-.881,6.954,6.954,0,0,0-3.64,3,15.529,15.529,0,0,0-1.9,5.445c-.087.454-.166.909-.243,1.364-.009.027-.018.054-.024.082a7.666,7.666,0,0,0,.409,4.746,7.493,7.493,0,0,0,2.678,3.208,5.676,5.676,0,0,0,4.186.815,5.376,5.376,0,0,0,3.647-2.672,11.389,11.389,0,0,0,1.01-2.562c.262-.934.495-1.878.676-2.83a13.554,13.554,0,0,0,.051-5.666" transform="translate(-1106.12 -8227.034)" fill="#2f5235"/>
      <path id="Path_1034808" data-name="Path 1034808" d="M314.534,229.54c-2.56-15.87-6.628-24.9-6.648-38.429s5.528-27.882,17.171-34.776c7.338-4.345,16.245-5.291,24.751-4.68,19.129,1.373,38.618,11.456,46.555,28.915,8.252,18.153,2.6,39.495-5.3,57.808s-13.41,33.171-16.637,52.85c-2.56,15.614,2.231,25.708,3.84,36.091,1.333,8.605-1.093,17.622-8,22.93-3.319,2.552-9.922,6.506-14.017,7.53-11.022,2.755-21.688,2.73-32-2.048-11.335-5.254-18-20.522-20.843-32.688s-1.725-24.891.07-37.254c2.675-18.422,11.047-33.468,11.047-56.249" transform="translate(-1052.901 -8223.105)" fill="#2f5235"/>
      <path id="Path_1034809" data-name="Path 1034809" d="M200.049,113.242c-.422,1.963-1.495,4.092-3.763,4.2a5.165,5.165,0,0,1-1.646-.2c-4.669-1.168-9.459-1.783-14.1-3.055a12.911,12.911,0,0,1-5.769-2.874,12.29,12.29,0,0,1-2.99-5.078,40.011,40.011,0,0,1-1.32-6.041,34.187,34.187,0,0,1-.583-6.769,12.752,12.752,0,0,1,1.57-5.936,11.6,11.6,0,0,1,3.432-3.7,14.5,14.5,0,0,1,9.919-2.38,15.442,15.442,0,0,1,9.542,5.352,21.22,21.22,0,0,1,4.843,10.468c.435,2.606.786,5.243,1.021,7.873a27.5,27.5,0,0,1-.153,8.134" transform="translate(-1005.432 -8197.834)" fill="#2f5235"/>
      <path id="Path_1034810" data-name="Path 1034810" d="M153.866,113.3a.4.4,0,0,1-.03.143c0,.016,0,.031,0,.047-.051,1.138-.059,2.279-.125,3.416a10.141,10.141,0,0,1-.425,2.589,6.485,6.485,0,0,1-3.673,3.846,10.129,10.129,0,0,1-6.241.522,5.984,5.984,0,0,1-2.714-1.463,9.725,9.725,0,0,1-2.025-3.038c-.589-1.266-1.112-2.572-1.611-3.875a27.475,27.475,0,0,1-1.331-4.365,12.786,12.786,0,0,1,.514-7.419,8,8,0,0,1,4.695-4.6,9.618,9.618,0,0,1,11.491,4.708,17.349,17.349,0,0,1,1.462,7.519c.015.658.016,1.316.013,1.975" transform="translate(-993.015 -8204.068)" fill="#2f5235"/>
      <path id="Path_1034811" data-name="Path 1034811" d="M127.507,139.555c-3.13,1.723-7.546.926-9.4-2.271a11.247,11.247,0,0,1-1.144-3.08,33.558,33.558,0,0,1-.612-3.309,15.347,15.347,0,0,1,.4-6.745,8.739,8.739,0,0,1,3.414-4.571,6.286,6.286,0,0,1,5.484-.8,8.173,8.173,0,0,1,4.26,3.589,16.28,16.28,0,0,1,1.938,6.468c.07.557.129,1.117.185,1.675a.543.543,0,0,1,.021.081,8.312,8.312,0,0,1-.9,5.391,9.363,9.363,0,0,1-3.641,3.576" transform="translate(-986.095 -8211.216)" fill="#2f5235"/>
      <path id="Path_1034812" data-name="Path 1034812" d="M109.558,162.388a6.638,6.638,0,0,1-4.489.87,5.589,5.589,0,0,1-3.874-2.533,10.275,10.275,0,0,1-1.085-2.528c-.291-.962-.535-1.939-.729-2.925a12.319,12.319,0,0,1,.061-5.887c.932-3.1,3.984-5.836,7.388-4.872a7.3,7.3,0,0,1,3.945,2.979,14.416,14.416,0,0,1,1.977,5.406c.084.422.159.845.234,1.269a.417.417,0,0,1,.015.04,7.347,7.347,0,0,1-.458,4.87,8.011,8.011,0,0,1-2.984,3.311" transform="translate(-979.935 -8220.524)" fill="#2f5235"/>
      <path id="Path_1034813" data-name="Path 1034813" d="M88.35,167.54a7.434,7.434,0,0,1,2.463-4.052,4.7,4.7,0,0,1,4.391-.881,6.954,6.954,0,0,1,3.64,3,15.53,15.53,0,0,1,1.9,5.445c.087.454.166.909.243,1.364.009.027.018.054.024.082a7.666,7.666,0,0,1-.41,4.746,7.493,7.493,0,0,1-2.678,3.208,5.676,5.676,0,0,1-4.186.815,5.376,5.376,0,0,1-3.647-2.672,11.388,11.388,0,0,1-1.01-2.562c-.262-.934-.495-1.878-.676-2.83a13.553,13.553,0,0,1-.051-5.666" transform="translate(-975.98 -8227.034)" fill="#2f5235"/>
      <path id="Path_1034814" data-name="Path 1034814" d="M187.979,229.54c2.56-15.87,6.628-24.9,6.648-38.429s-5.528-27.882-17.171-34.776c-7.338-4.345-16.245-5.291-24.751-4.68-19.129,1.373-38.618,11.456-46.555,28.915-8.252,18.153-2.6,39.495,5.3,57.808s13.41,33.171,16.637,52.85c2.56,15.614-2.231,25.708-3.84,36.091-1.333,8.605,1.093,17.622,8,22.93,3.319,2.552,9.922,6.506,14.017,7.53,11.022,2.755,21.688,2.73,32-2.048,11.334-5.254,18-20.522,20.843-32.688s1.725-24.891-.07-37.254c-2.675-18.422-11.047-33.468-11.047-56.249" transform="translate(-981.03 -8223.105)" fill="#2f5235"/>
    </g>
  </g>
</svg>
