<svg xmlns="http://www.w3.org/2000/svg" width="404" height="404" viewBox="0 0 404 404">
  <g id="Group_1178925" data-name="Group 1178925" transform="translate(978 8192)">
    <circle id="Ellipse_11677" data-name="Ellipse 11677" cx="202" cy="202" r="202" transform="translate(-978 -8192)" fill="#d8cabd"/>
    <g id="Group_1178924" data-name="Group 1178924" transform="translate(-10.133 0.398)">
      <path id="Path_1034789" data-name="Path 1034789" d="M292.963,115.988c.944,1.749,2.553,3.474,4.738,2.952a5.09,5.09,0,0,0,1.508-.646c4.113-2.4,8.494-4.312,12.556-6.806a12.778,12.778,0,0,0,4.686-4.327,12.166,12.166,0,0,0,1.435-5.652,39.6,39.6,0,0,0-.418-6.1,33.86,33.86,0,0,0-1.319-6.593,12.628,12.628,0,0,0-3.134-5.206,11.488,11.488,0,0,0-4.285-2.562,14.349,14.349,0,0,0-10.082.484,15.281,15.281,0,0,0-7.586,7.726,21,21,0,0,0-1.7,11.286c.308,2.6.7,5.2,1.209,7.763a27.21,27.21,0,0,0,2.4,7.687" transform="translate(-1048.723 -8192.748)" fill="#2f5235"/>
      <path id="Path_1034790" data-name="Path 1034790" d="M339.245,100.817a.4.4,0,0,0,.076.123c0,.015.007.03.014.044.428,1.043.818,2.1,1.261,3.139a10.026,10.026,0,0,0,1.263,2.268,6.417,6.417,0,0,0,4.708,2.351,10.019,10.019,0,0,0,5.987-1.6,5.917,5.917,0,0,0,2.038-2.271,9.621,9.621,0,0,0,.868-3.508c.124-1.376.173-2.767.2-4.147a27.226,27.226,0,0,0-.221-4.51,12.655,12.655,0,0,0-2.964-6.736,7.911,7.911,0,0,0-5.914-2.715,9.517,9.517,0,0,0-9.123,8.232,17.16,17.16,0,0,0,1.157,7.491c.207.618.426,1.231.65,1.843" transform="translate(-1067.259 -8193.865)" fill="#2f5235"/>
      <path id="Path_1034791" data-name="Path 1034791" d="M376.927,116.724c3.411.929,7.474-.865,8.512-4.372a11.114,11.114,0,0,0,.383-3.229,33,33,0,0,0-.181-3.325,15.181,15.181,0,0,0-1.95-6.4,8.653,8.653,0,0,0-4.347-3.6,6.223,6.223,0,0,0-5.462.5,8.088,8.088,0,0,0-3.263,4.443,16.131,16.131,0,0,0-.359,6.672c.063.553.137,1.1.212,1.655a.62.62,0,0,0,0,.083,8.226,8.226,0,0,0,2.123,4.974,9.265,9.265,0,0,0,4.334,2.593" transform="translate(-1079.855 -8198.539)" fill="#2f5235"/>
      <path id="Path_1034792" data-name="Path 1034792" d="M403.206,131.237a6.567,6.567,0,0,0,4.522-.162,5.529,5.529,0,0,0,3.171-3.305,10.17,10.17,0,0,0,.483-2.679c.065-.993.084-1.989.051-2.983a12.2,12.2,0,0,0-1.37-5.663c-1.591-2.784-5.143-4.739-8.21-3.051a7.23,7.23,0,0,0-3.139,3.752,14.259,14.259,0,0,0-.7,5.653c.014.426.035.851.058,1.276a.314.314,0,0,0-.006.042,7.267,7.267,0,0,0,1.528,4.593,7.918,7.918,0,0,0,3.614,2.527" transform="translate(-1090.6 -8205.227)" fill="#2f5235"/>
      <path id="Path_1034793" data-name="Path 1034793" d="M429.879,134.027a7.353,7.353,0,0,0-3.541-3.079,4.653,4.653,0,0,0-4.4.49,6.884,6.884,0,0,0-2.529,3.925,15.384,15.384,0,0,0-.15,5.7c.055.454.117.907.181,1.359a.8.8,0,0,0,0,.085,7.578,7.578,0,0,0,1.814,4.351,7.419,7.419,0,0,0,3.49,2.22,5.621,5.621,0,0,0,4.191-.49,5.325,5.325,0,0,0,2.636-3.616,11.324,11.324,0,0,0,.181-2.72c-.034-.959-.1-1.92-.214-2.872a13.412,13.412,0,0,0-1.656-5.357" transform="translate(-1098.71 -8212.095)" fill="#2f5235"/>
      <path id="Path_1034794" data-name="Path 1034794" d="M296.038,172.8c-.762-9.908,2.032-13.21,6.859-18.544,4.312-4.765,9.344-7.292,15.5-9.145a74.884,74.884,0,0,1,29.488-2.716c15.4,1.658,29.156,11.78,37.273,24.969s11.012,29.113,10.392,44.587-4.569,30.627-9.32,45.367c-.821,2.548-1.726,5.187-3.616,7.084s-5.069,2.791-7.293,1.3c-2.8-1.871-2.549-5.967-2.175-9.31a88.907,88.907,0,0,0-3.994-37.851c-2.673-8.021-7.457-16.475-15.644-18.586-6.729-1.736-15.038-.049-21.9,1.043-16.085,2.559-35.057-6.605-35.565-28.2" transform="translate(-1051.306 -8216.465)" fill="#2f5235"/>
      <path id="Path_1034795" data-name="Path 1034795" d="M323.72,413.128c-3.556-7.367-2.007-13.9.472-19.179s6.794-9.458,11.253-13.218a136.844,136.844,0,0,1,29.078-18.787c4.508-2.159,9.885-4.061,14.338-1.789,5.078,2.591,6.335,9.217,6.436,14.917a88.994,88.994,0,0,1-5.492,32.35c-3.279,8.871-8.476,17.692-16.953,21.885-6.974,3.451-15.494,3.222-22.6.044s-12.969-9.308-16.535-16.225" transform="translate(-1061.205 -8300.059)" fill="#2f5235"/>
      <path id="Path_1034796" data-name="Path 1034796" d="M247.15,116.4c-.943,1.749-2.553,3.474-4.738,2.952a5.091,5.091,0,0,1-1.508-.646c-4.113-2.4-8.494-4.312-12.556-6.806a12.779,12.779,0,0,1-4.686-4.327,12.168,12.168,0,0,1-1.435-5.652,39.614,39.614,0,0,1,.418-6.1,33.866,33.866,0,0,1,1.319-6.593,12.622,12.622,0,0,1,3.134-5.205,11.481,11.481,0,0,1,4.285-2.563,14.349,14.349,0,0,1,10.082.484,15.281,15.281,0,0,1,7.586,7.726,21,21,0,0,1,1.7,11.286c-.308,2.6-.7,5.2-1.209,7.763a27.21,27.21,0,0,1-2.4,7.687" transform="translate(-1022.938 -8192.907)" fill="#2f5235"/>
      <path id="Path_1034797" data-name="Path 1034797" d="M207.366,101.23a.406.406,0,0,1-.076.123c0,.015-.007.029-.014.044-.428,1.043-.818,2.1-1.261,3.139a10.025,10.025,0,0,1-1.263,2.268,6.417,6.417,0,0,1-4.708,2.351,10.02,10.02,0,0,1-5.987-1.6,5.917,5.917,0,0,1-2.038-2.271,9.633,9.633,0,0,1-.868-3.509c-.124-1.376-.173-2.766-.2-4.147a27.223,27.223,0,0,1,.221-4.51,12.655,12.655,0,0,1,2.964-6.736,7.911,7.911,0,0,1,5.914-2.715,9.517,9.517,0,0,1,9.123,8.232,17.162,17.162,0,0,1-1.157,7.491c-.207.618-.426,1.231-.65,1.843" transform="translate(-1010.898 -8194.023)" fill="#2f5235"/>
      <path id="Path_1034798" data-name="Path 1034798" d="M171.3,117.137c-3.411.929-7.474-.865-8.512-4.372a11.114,11.114,0,0,1-.383-3.229,33,33,0,0,1,.181-3.325,15.181,15.181,0,0,1,1.95-6.4,8.653,8.653,0,0,1,4.347-3.6,6.223,6.223,0,0,1,5.462.5,8.088,8.088,0,0,1,3.263,4.443,16.121,16.121,0,0,1,.359,6.672c-.062.553-.136,1.1-.212,1.655a.617.617,0,0,1,0,.083,8.226,8.226,0,0,1-2.123,4.974,9.265,9.265,0,0,1-4.334,2.593" transform="translate(-999.912 -8198.698)" fill="#2f5235"/>
      <path id="Path_1034799" data-name="Path 1034799" d="M146.447,131.65a6.567,6.567,0,0,1-4.522-.162,5.529,5.529,0,0,1-3.171-3.305,10.17,10.17,0,0,1-.483-2.679c-.065-.993-.084-1.989-.051-2.983a12.2,12.2,0,0,1,1.37-5.663c1.591-2.784,5.143-4.739,8.21-3.051a7.23,7.23,0,0,1,3.139,3.752,14.26,14.26,0,0,1,.7,5.653c-.014.426-.035.851-.058,1.276a.315.315,0,0,1,.006.042,7.272,7.272,0,0,1-1.528,4.593,7.918,7.918,0,0,1-3.614,2.527" transform="translate(-990.599 -8205.386)" fill="#2f5235"/>
      <path id="Path_1034800" data-name="Path 1034800" d="M120.247,134.44a7.353,7.353,0,0,1,3.541-3.079,4.653,4.653,0,0,1,4.4.49,6.884,6.884,0,0,1,2.529,3.925,15.384,15.384,0,0,1,.15,5.7c-.055.454-.117.907-.181,1.359a.761.761,0,0,1,0,.085,7.578,7.578,0,0,1-1.814,4.351,7.419,7.419,0,0,1-3.49,2.22,5.621,5.621,0,0,1-4.191-.49,5.325,5.325,0,0,1-2.636-3.616,11.321,11.321,0,0,1-.181-2.72c.034-.959.1-1.92.214-2.872a13.411,13.411,0,0,1,1.656-5.357" transform="translate(-982.962 -8212.254)" fill="#2f5235"/>
      <path id="Path_1034801" data-name="Path 1034801" d="M199.631,173.209c.762-9.908-2.032-13.21-6.859-18.544-4.312-4.765-9.343-7.292-15.5-9.145a74.884,74.884,0,0,0-29.488-2.716c-15.4,1.658-29.156,11.78-37.273,24.969S99.5,196.885,100.123,212.359s4.569,30.627,9.32,45.367c.821,2.548,1.726,5.187,3.616,7.084s5.069,2.791,7.294,1.3c2.8-1.871,2.549-5.967,2.175-9.31a88.906,88.906,0,0,1,3.994-37.851c2.673-8.02,7.457-16.475,15.644-18.586,6.729-1.736,15.038-.049,21.9,1.043,16.085,2.559,35.057-6.605,35.565-28.2" transform="translate(-975.909 -8216.623)" fill="#2f5235"/>
      <path id="Path_1034802" data-name="Path 1034802" d="M194.5,413.541c3.556-7.367,2.007-13.9-.472-19.179s-6.794-9.458-11.253-13.218A136.84,136.84,0,0,0,153.7,362.358c-4.508-2.159-9.885-4.061-14.338-1.789-5.078,2.591-6.335,9.217-6.436,14.917a89,89,0,0,0,5.492,32.35c3.279,8.871,8.476,17.692,16.953,21.885,6.974,3.451,15.494,3.222,22.6.044s12.969-9.308,16.535-16.225" transform="translate(-988.561 -8300.218)" fill="#2f5235"/>
    </g>
  </g>
</svg>
