<svg xmlns="http://www.w3.org/2000/svg" xmlns:xlink="http://www.w3.org/1999/xlink" width="400" height="419.528" viewBox="0 0 400 419.528">
  <defs>
    <clipPath id="clip-path">
      <rect id="Rectangle_405114" data-name="Rectangle 405114" width="345.949" height="326.81" fill="none"/>
    </clipPath>
  </defs>
  <g id="Group_1178738" data-name="Group 1178738" transform="translate(-1019.051 -3447.98)">
    <rect id="Rectangle_405110" data-name="Rectangle 405110" width="400" height="419.528" rx="21" transform="translate(1019.051 3447.98)" fill="#ebebeb"/>
    <g id="Group_1177618" data-name="Group 1177618" transform="translate(1046.076 3447.981)">
      <g id="Group_1177617" data-name="Group 1177617" clip-path="url(#clip-path)">
        <path id="Path_1033970" data-name="Path 1033970" d="M166.642,250.988a9.228,9.228,0,0,0-1.766-2.3l-.011-.013-.067-.064c-.016-.015-.03-.031-.046-.046l-.008-.006a21.693,21.693,0,0,0-5.956-4.061,22.732,22.732,0,0,0-7.473-2.164,13.821,13.821,0,0,0-3.6.1,36.8,36.8,0,0,0-8.953-13.646,39.311,39.311,0,0,0-14.312-8.861,36.072,36.072,0,0,0-8.867-1.892,143.639,143.639,0,0,1-10.5-40.581,232.094,232.094,0,0,1-.577-42.238,385.036,385.036,0,0,1,5.379-43.3c2.673-14.539,6.255-28.9,10.307-43.107,4.073-14.286,8.613-28.431,13.171-42.568L135.1.861a.629.629,0,0,0-.588-.83.719.719,0,0,0-.2-.031Q108.488,0,82.667.092,56.7.168,30.73.239,16.319.269,1.908.272a.729.729,0,0,0-.095.01.524.524,0,0,0-.561.49C-1.725,22.2.93,43.786,5.818,64.728,10.845,86.261,18.041,107.2,23.9,128.505c5.811,21.119,10.392,42.869,9.647,64.889a148.045,148.045,0,0,1-1.668,17.074c-.922,6.119-1.9,12.346-1.047,18.532.806,5.83,3.656,10.911,5.785,16.311,2.374,6.022,2.621,12.15,2.429,18.545-.172,5.738-.395,11.514,1.044,17.125a37.781,37.781,0,0,0,5.792,12.425A37.326,37.326,0,0,0,67.95,308.391a34.433,34.433,0,0,0,6.622.775c8.206.125,16.658-.229,24.521-2.793a34.88,34.88,0,0,0,10.233-5.2,31.163,31.163,0,0,0,8.015-9c2.039-3.436,3.5-7.184,5.544-10.617,1.781-2.984,4.139-5.977,7.633-6.949,4.406-1.226,8.644,1.27,12.759,2.475a13.666,13.666,0,0,0,6.705.458,14.5,14.5,0,0,0,5.831-2.92,34.492,34.492,0,0,0,4.858-4.834,58.75,58.75,0,0,0,4.565-5.825,15.351,15.351,0,0,0,2.664-6.636,10.964,10.964,0,0,0-1.259-6.338" transform="translate(0)" fill="#f2b297"/>
        <path id="Path_1033971" data-name="Path 1033971" d="M127.968,386.763A309.824,309.824,0,0,1,134.1,492.7a799.685,799.685,0,0,0-6.129-105.942" transform="translate(-82.697 -249.938)" fill="#c68b77"/>
        <path id="Path_1033972" data-name="Path 1033972" d="M248.33,350.443a256.116,256.116,0,0,0,4.6,121.085,187.32,187.32,0,0,1-4.6-121.085" transform="translate(-155.375 -226.467)" fill="#c68b77"/>
        <path id="Path_1033973" data-name="Path 1033973" d="M504.437,250.988a9.228,9.228,0,0,1,1.766-2.3s.006-.009.011-.013c.022-.022.045-.042.067-.064s.03-.031.047-.046l.008-.006a21.7,21.7,0,0,1,5.956-4.061,22.733,22.733,0,0,1,7.473-2.164,13.822,13.822,0,0,1,3.6.1,36.788,36.788,0,0,1,8.953-13.646,39.305,39.305,0,0,1,14.312-8.861,36.072,36.072,0,0,1,8.867-1.892,143.648,143.648,0,0,0,10.5-40.581,232.126,232.126,0,0,0,.577-42.238,385.035,385.035,0,0,0-5.379-43.3c-2.673-14.539-6.255-28.9-10.307-43.107-4.072-14.286-8.613-28.431-13.171-42.568q-.867-2.688-1.734-5.377a.629.629,0,0,1,.588-.83.719.719,0,0,1,.2-.031q25.822,0,51.644.092,25.968.076,51.936.147,14.411.03,28.823.033a.728.728,0,0,1,.094.01.524.524,0,0,1,.562.49c2.977,21.429.322,43.014-4.567,63.956-5.026,21.533-12.222,42.472-18.085,63.777-5.811,21.119-10.392,42.869-9.647,64.889a148.055,148.055,0,0,0,1.668,17.074c.922,6.119,1.9,12.346,1.047,18.532-.806,5.83-3.656,10.911-5.784,16.311-2.374,6.022-2.621,12.15-2.429,18.545.172,5.738.4,11.514-1.044,17.125a37.779,37.779,0,0,1-5.791,12.425,37.325,37.325,0,0,1-22.067,14.983,34.432,34.432,0,0,1-6.622.775c-8.206.125-16.658-.229-24.521-2.793a34.883,34.883,0,0,1-10.233-5.2,31.158,31.158,0,0,1-8.015-9c-2.039-3.436-3.5-7.184-5.544-10.617-1.781-2.984-4.139-5.977-7.633-6.949-4.406-1.226-8.644,1.27-12.759,2.475a13.665,13.665,0,0,1-6.705.458,14.5,14.5,0,0,1-5.831-2.92,34.513,34.513,0,0,1-4.858-4.834,58.8,58.8,0,0,1-4.565-5.825,15.36,15.36,0,0,1-2.664-6.636,10.961,10.961,0,0,1,1.259-6.338" transform="translate(-325.129)" fill="#f2b297"/>
        <path id="Path_1033974" data-name="Path 1033974" d="M835.027,386.763A309.815,309.815,0,0,0,828.9,492.7a799.739,799.739,0,0,1,6.129-105.942" transform="translate(-534.349 -249.938)" fill="#c68b77"/>
        <path id="Path_1033975" data-name="Path 1033975" d="M706.731,350.443a256.116,256.116,0,0,1-4.6,121.085,187.319,187.319,0,0,0,4.6-121.085" transform="translate(-453.736 -226.467)" fill="#c68b77"/>
        <path id="Path_1033976" data-name="Path 1033976" d="M183.7,198.485a532.871,532.871,0,0,0-3.437,102.8c2.211,34.015,7.82,68.007,18.361,100.472A288.628,288.628,0,0,0,220.41,452.48c1.1,1.992,4.159.21,3.055-1.785-16-28.891-26.2-60.7-32.5-93.028-6.571-33.734-8.911-68.262-8.076-102.594a544.43,544.43,0,0,1,4.346-56.588c.291-2.251-3.249-2.23-3.538,0" transform="translate(-115.794 -127.181)" fill="#db0505"/>
        <path id="Path_1033977" data-name="Path 1033977" d="M680.625,454.481a535.449,535.449,0,0,0,33.031-97.428c7.76-33.337,12.229-67.659,11.5-101.927a288.857,288.857,0,0,0-6.238-54.868c-.481-2.224-3.892-1.283-3.411.941,6.987,32.316,7.56,65.774,4.242,98.584-3.441,34.037-11.132,67.631-21.771,100.118A540.4,540.4,0,0,1,677.571,452.7c-.923,2.06,2.124,3.862,3.055,1.785" transform="translate(-437.755 -128.592)" fill="#db0505"/>
        <line id="Line_617" data-name="Line 617" y1="10.862" x2="121.635" transform="translate(13.475 209.638)" fill="none" stroke="#c90912" stroke-linecap="square" stroke-miterlimit="10" stroke-width="4" stroke-dasharray="0.02 8.28 0.02 8.28 0.02 8.28"/>
        <line id="Line_621" data-name="Line 621" y1="8.834" x2="112.283" transform="translate(31.536 304.347)" fill="none" stroke="#c90912" stroke-linecap="square" stroke-miterlimit="10" stroke-width="4" stroke-dasharray="0.02 8.28 0.02 8.28 0.02 8.28"/>
        <line id="Line_625" data-name="Line 625" x2="112.339" y2="8.086" transform="translate(223.107 209.954)" fill="none" stroke="#c90912" stroke-linecap="square" stroke-miterlimit="10" stroke-width="4" stroke-dasharray="0.02 8.28 0.02 8.28 0.02 8.28"/>
        <line id="Line_629" data-name="Line 629" x2="112.339" y2="8.086" transform="translate(206.505 305.208)" fill="none" stroke="#c90912" stroke-linecap="square" stroke-miterlimit="10" stroke-width="4" stroke-dasharray="0.02 8.28 0.02 8.28 0.02 8.28"/>
      </g>
    </g>
  </g>
</svg>
