<svg xmlns="http://www.w3.org/2000/svg" width="295" height="112.121" viewBox="0 0 295 112.121">
  <g id="Group_1178904" data-name="Group 1178904" transform="translate(-1125 -4430.879)">
    <g id="Group_1178760" data-name="Group 1178760" transform="translate(1125 4450)">
      <rect id="Rectangle_405094" data-name="Rectangle 405094" width="295" height="73" rx="2" transform="translate(0 10)" fill="#2f5235"/>
      <rect id="Rectangle_405095" data-name="Rectangle 405095" width="233" height="93" rx="2" transform="translate(31)" fill="#abb9ae"/>
    </g>
    <g id="shoemaker_7242154_1_" data-name="shoemaker_7242154 (1)" transform="translate(1224 4430.879)">
      <g id="Group_1178902" data-name="Group 1178902" transform="translate(1.808 1.808)">
        <g id="Group_1178887" data-name="Group 1178887" transform="translate(25.318 57.869)">
          <path id="Path_1034746" data-name="Path 1034746" d="M148.934,265.808v12.659H120V265.808L127.234,264a7.234,7.234,0,1,0,14.467,0Z" transform="translate(-120 -264)" fill="#5cd6b3"/>
        </g>
        <g id="Group_1178888" data-name="Group 1178888" transform="translate(10.85 59.677)">
          <path id="Path_1034747" data-name="Path 1034747" d="M108.444,302.743a9.042,9.042,0,0,0-9.042,9.042v5.425H61.116a5.388,5.388,0,0,0,.31-1.808v-5.425a5.425,5.425,0,0,0,0-10.85v-7.234H56V277.337a18.982,18.982,0,0,1,7.15-3.508L70.467,272v12.659H99.4V272l7.317,1.829a19.069,19.069,0,0,1,4.8,1.924,5.424,5.424,0,0,0,2.351,8.6v18.394Z" transform="translate(-56 -272)" fill="#fcd770"/>
        </g>
        <g id="Group_1178889" data-name="Group 1178889" transform="translate(5.425 94.037)">
          <path id="Path_1034748" data-name="Path 1034748" d="M42.85,427.617v5.425a5.425,5.425,0,0,1-10.85,0v-1.808h1.808a3.616,3.616,0,0,0,3.617-3.617V424a3.616,3.616,0,0,0,3.617,3.617Z" transform="translate(-32 -424)" fill="#969faa"/>
        </g>
        <g id="Group_1178890" data-name="Group 1178890" transform="translate(5.425 79.569)">
          <path id="Path_1034749" data-name="Path 1034749" d="M42.85,360v7.234H41.042a3.616,3.616,0,0,0-3.617,3.617,3.616,3.616,0,0,0-3.617-3.617H32V360H42.85Z" transform="translate(-32 -360)" fill="#969faa"/>
        </g>
        <g id="Group_1178891" data-name="Group 1178891" transform="translate(25.318 79.569)">
          <path id="Path_1034750" data-name="Path 1034750" d="M120,360h28.934v18.084H120Z" transform="translate(-120 -360)" fill="#ffeaa7"/>
        </g>
        <g id="Group_1178892" data-name="Group 1178892" transform="translate(65.102 61.485)">
          <path id="Path_1034751" data-name="Path 1034751" d="M315.892,280a5.425,5.425,0,1,1-3.617,9.467,5.42,5.42,0,0,1-7.234,0,5.425,5.425,0,1,1,0-8.084,5.42,5.42,0,0,1,7.234,0A5.4,5.4,0,0,1,315.892,280Z" transform="translate(-296 -280)" fill="#d3a06c"/>
        </g>
        <g id="Group_1178893" data-name="Group 1178893" transform="translate(54.252 101.27)">
          <path id="Path_1034752" data-name="Path 1034752" d="M280.551,456v3.617a3.616,3.616,0,0,1-3.617,3.617h-3.617l-1.808-1.808-3.617,1.808H251.617A3.616,3.616,0,0,1,248,459.617V456Z" transform="translate(-248 -456)" fill="#ecc19c"/>
        </g>
        <g id="Group_1178894" data-name="Group 1178894" transform="translate(54.252 70.952)">
          <path id="Path_1034753" data-name="Path 1034753" d="M280.551,344.964V352.2H248v-1.808a9.042,9.042,0,0,1,9.042-9.042h5.425V322.954a5.424,5.424,0,0,0,5.425-1.074,5.42,5.42,0,0,0,7.234,0,5.424,5.424,0,0,0,5.425,1.074V330.5a3.616,3.616,0,0,0-3.617,3.617v7.234A3.616,3.616,0,0,0,280.551,344.964Z" transform="translate(-248 -321.88)" fill="#cf9e76"/>
        </g>
        <g id="Group_1178895" data-name="Group 1178895" transform="translate(83.186 79.569)">
          <path id="Path_1034754" data-name="Path 1034754" d="M386.85,365.425v3.617a5.427,5.427,0,0,1-5.425,5.425h-1.808A3.616,3.616,0,0,1,376,370.85v-7.234A3.616,3.616,0,0,1,379.617,360h1.808A5.427,5.427,0,0,1,386.85,365.425Z" transform="translate(-376 -360)" fill="#f0d0b4"/>
        </g>
        <g id="Group_1178896" data-name="Group 1178896" transform="translate(0 86.803)">
          <path id="Path_1034755" data-name="Path 1034755" d="M18.85,399.234v3.617a3.616,3.616,0,0,1-3.617,3.617H13.425A5.427,5.427,0,0,1,8,401.042v-3.617A5.427,5.427,0,0,1,13.425,392h1.808a3.616,3.616,0,0,1,3.617,3.617Z" transform="translate(-8 -392)" fill="#f0d0b4"/>
        </g>
        <g id="Group_1178897" data-name="Group 1178897" transform="translate(10.85 86.803)">
          <path id="Path_1034756" data-name="Path 1034756" d="M61.425,392a5.425,5.425,0,0,1,0,10.85H59.617A3.616,3.616,0,0,1,56,399.234v-3.617A3.616,3.616,0,0,1,59.617,392Z" transform="translate(-56 -392)" fill="#f0d0b4"/>
        </g>
        <g id="Group_1178898" data-name="Group 1178898" transform="translate(23.509 23.509)">
          <path id="Path_1034757" data-name="Path 1034757" d="M144.551,122.85v4.467a14.469,14.469,0,0,1-7.023,12.406l-1.142.685a1.809,1.809,0,0,0-.877,1.551v4.4a7.234,7.234,0,1,1-14.467,0v-4.4a1.809,1.809,0,0,0-.877-1.551l-1.142-.685A14.469,14.469,0,0,1,112,127.317V112h32.551Z" transform="translate(-112 -112)" fill="#f0d0b4"/>
        </g>
        <g id="Group_1178899" data-name="Group 1178899" transform="translate(56.06 23.509)">
          <path id="Path_1034758" data-name="Path 1034758" d="M262.908,115.572a5.426,5.426,0,0,1-5.1,7.279H256V112h1.808A5.427,5.427,0,0,1,262.908,115.572Z" transform="translate(-256 -112)" fill="#f0d0b4"/>
        </g>
        <g id="Group_1178900" data-name="Group 1178900" transform="translate(16.276 23.509)">
          <path id="Path_1034759" data-name="Path 1034759" d="M87.234,112v10.85H85.425A5.427,5.427,0,0,1,80,117.425a5.257,5.257,0,0,1,.147-1.243A5.419,5.419,0,0,1,85.425,112Z" transform="translate(-80 -112)" fill="#f0d0b4"/>
        </g>
        <g id="Group_1178901" data-name="Group 1178901" transform="translate(12.659)">
          <path id="Path_1034760" data-name="Path 1034760" d="M113.231,12.021l-2.213-2.213-5.181,1.3a17.155,17.155,0,0,1-4.168.513,17.191,17.191,0,0,1-6.381-1.23L91.5,8.87A12.216,12.216,0,0,0,86.971,8H83.178a12.185,12.185,0,0,0-10.136,5.425A11.246,11.246,0,0,0,64,24.454V27.3a11.245,11.245,0,0,0,3.759,8.393h0a5.419,5.419,0,0,1,5.278-4.182H109.21a5.427,5.427,0,0,1,5.1,3.572,17.144,17.144,0,0,0-1.078-23.059Z" transform="translate(-64 -8)" fill="#b27946"/>
        </g>
      </g>
      <g id="Group_1178903" data-name="Group 1178903" transform="translate(0 0)">
        <path id="Path_1034761" data-name="Path 1034761" d="M90.42,79.569V74.98a7.232,7.232,0,0,0-7.234-12.525,7.234,7.234,0,0,0-7.234,0,7.22,7.22,0,0,0-8.082.58,20.836,20.836,0,0,0-4.054-1.474l-13.182-3.3v-2.99l1.14-.684a16.358,16.358,0,0,0,7.9-13.956V37.976a7.237,7.237,0,0,0,7.086-8.693A18.946,18.946,0,0,0,64.977,4.551L62.04,1.614,55.866,3.158a15.4,15.4,0,0,1-3.729.459,15.313,15.313,0,0,1-5.711-1.1L42.635,1a13.93,13.93,0,0,0-5.2-1H33.646A13.962,13.962,0,0,0,22.43,5.627a13.1,13.1,0,0,0-9.771,12.636v2.843A13.067,13.067,0,0,0,16.3,30.148c-.016.2-.026.395-.026.6a7.242,7.242,0,0,0,7.234,7.234v2.659a16.358,16.358,0,0,0,7.9,13.956l1.14.684v2.989l-13.182,3.3a20.728,20.728,0,0,0-4.9,1.909V52.444H10.85V79.569H5.425v7.463a7.246,7.246,0,0,0-5.425,7v3.617a7.246,7.246,0,0,0,5.425,7v.229A7.231,7.231,0,0,0,18.919,108.5H54.563a5.434,5.434,0,0,0,5.114,3.617h16.7l2.833-1.416,1.416,1.416h4.366A5.431,5.431,0,0,0,90.42,106.7V97.653a7.242,7.242,0,0,0,7.234-7.234V86.8a7.242,7.242,0,0,0-7.234-7.234Zm-3.617.311a5.434,5.434,0,0,0-3.617,5.114v7.234A5.434,5.434,0,0,0,86.8,97.342v3.928H57.869A7.242,7.242,0,0,1,65.1,94.037h7.234V75.953a7.221,7.221,0,0,0,3.617-.969,7.234,7.234,0,0,0,7.234,0,7.221,7.221,0,0,0,3.617.969ZM54.252,97.653H28.934V83.186H54.252ZM72.336,65.1a3.61,3.61,0,0,1,2.411.922l1.206,1.08,1.206-1.08a3.614,3.614,0,0,1,4.821,0l1.206,1.08,1.206-1.08a3.617,3.617,0,1,1,0,5.391l-1.206-1.08-1.206,1.08a3.614,3.614,0,0,1-4.821,0l-1.206-1.08-1.206,1.08A3.616,3.616,0,1,1,72.336,65.1ZM54.252,62.9v9.438H28.934V62.9l3.9-.975a9.043,9.043,0,0,0,17.519,0ZM59.677,34.36V27.126a3.617,3.617,0,1,1,0,7.234ZM19.892,30.743a3.621,3.621,0,0,1,3.617-3.617V34.36A3.621,3.621,0,0,1,19.892,30.743Zm7.234,9.893V25.08l2.614,1.742,2.006-3.009-3.852-2.568a1.726,1.726,0,0,1,.957-3.161h.427a1.714,1.714,0,0,1,1.22.505l2.052,2.052L34.6,18.589a1.714,1.714,0,0,1,1.22-.505h.427a1.726,1.726,0,0,1,.957,3.161l-3.852,2.568,2.006,3.009,3.852-2.568a5.342,5.342,0,0,0-2.963-9.787h-.427a5.3,5.3,0,0,0-3.272,1.118,5.3,5.3,0,0,0-3.272-1.118h-.427a5.348,5.348,0,0,0-5.342,5.342v3.7a7.223,7.223,0,0,0-5.688,2.772,9.45,9.45,0,0,1-1.546-5.175V18.263a9.465,9.465,0,0,1,7.588-9.256L24.6,8.86l.415-.623a10.353,10.353,0,0,1,8.632-4.62h3.792a10.323,10.323,0,0,1,3.853.742l3.791,1.516a18.911,18.911,0,0,0,7.054,1.359,19.006,19.006,0,0,0,4.607-.567L60.931,5.62l1.489,1.488a15.325,15.325,0,0,1,2.405,18.559A7.253,7.253,0,0,0,62.24,23.98a7.074,7.074,0,0,0-1.015-8.714l-2.077-2.077L56.59,15.746l2.077,2.077a3.448,3.448,0,0,1-.9,5.521l-1.711.856V40.636A12.723,12.723,0,0,1,49.915,51.49l-1.14.684a3.635,3.635,0,0,0-1.756,3.1v4.4a5.425,5.425,0,1,1-10.85,0v-4.4a3.635,3.635,0,0,0-1.756-3.1l-1.14-.684a12.722,12.722,0,0,1-6.146-10.855ZM9.042,83.186h7.234V86.8a5.4,5.4,0,0,0-3.617,1.386A5.4,5.4,0,0,0,9.042,86.8Zm9.042,14.467H16.276a1.811,1.811,0,0,1-1.808-1.808V92.228a1.811,1.811,0,0,1,1.808-1.808h1.808a3.617,3.617,0,1,1,0,7.234Zm-14.467,0V94.037A3.621,3.621,0,0,1,7.234,90.42H9.042a1.811,1.811,0,0,1,1.808,1.808v7.234a1.811,1.811,0,0,1-1.808,1.808H7.234A3.621,3.621,0,0,1,3.617,97.653Zm12.659,7.234a3.617,3.617,0,0,1-7.234,0,5.434,5.434,0,0,0,5.234-4,5.392,5.392,0,0,0,2,.384Zm3.617-3.846a7.234,7.234,0,0,0,0-14.009V79.569H14.467V67.726a17.045,17.045,0,0,1,5.779-2.657L25.318,63.8V75.953H57.869V63.8l5.071,1.268a17.224,17.224,0,0,1,2.7.919,7.223,7.223,0,0,0,3.08,8.991V90.42H65.1a10.806,10.806,0,0,0-7.234,2.772V79.569H25.318v21.7H54.252v3.617H19.892Zm65.1,7.463H82.127l-2.2-2.2-4.4,2.2H59.677a1.81,1.81,0,0,1-1.808-1.808v-1.808H86.8V106.7A1.81,1.81,0,0,1,84.995,108.5ZM94.037,90.42a3.621,3.621,0,0,1-3.617,3.617H88.611A1.811,1.811,0,0,1,86.8,92.228V84.995a1.811,1.811,0,0,1,1.808-1.808H90.42A3.621,3.621,0,0,1,94.037,86.8Z" transform="translate(0 0)"/>
        <path id="Path_1034762" data-name="Path 1034762" d="M159.888,202.656a7.618,7.618,0,0,0,6.852-4.234l.191-.382-3.235-1.618-.191.382a4.044,4.044,0,0,1-7.234,0l-.191-.382-3.235,1.618.191.382A7.619,7.619,0,0,0,159.888,202.656Z" transform="translate(-118.294 -152.021)"/>
        <circle id="Ellipse_11673" data-name="Ellipse 11673" cx="1.911" cy="1.911" r="1.911" transform="translate(30.989 29.304)"/>
        <circle id="Ellipse_11674" data-name="Ellipse 11674" cx="1.911" cy="1.911" r="1.911" transform="translate(48.827 29.304)"/>
        <path id="Path_1034763" data-name="Path 1034763" d="M177.657,144.851a1.808,1.808,0,0,0,.809-2.426l-.191-.382A13.581,13.581,0,0,1,176.848,136h-3.617a17.229,17.229,0,0,0,1.241,6.4l-2.05,1.025,1.617,3.235Z" transform="translate(-133.447 -105.257)"/>
        <path id="Path_1034764" data-name="Path 1034764" d="M189.431,65.415a3.429,3.429,0,0,1-1.906,3.084l-.711.356,1.617,3.235.711-.356a7.064,7.064,0,0,0,1.836-11.314L188.9,58.343,186.344,60.9l2.077,2.077A3.426,3.426,0,0,1,189.431,65.415Z" transform="translate(-144.221 -45.155)"/>
        <path id="Path_1034765" data-name="Path 1034765" d="M221.431,65.415a3.429,3.429,0,0,1-1.906,3.084l-.711.356,1.617,3.235.711-.356a7.064,7.064,0,0,0,1.836-11.314L220.9,58.343,218.344,60.9l2.077,2.077A3.426,3.426,0,0,1,221.431,65.415Z" transform="translate(-168.987 -45.155)"/>
      </g>
    </g>
  </g>
</svg>
