<svg xmlns="http://www.w3.org/2000/svg" width="83.222" height="87.818" viewBox="0 0 83.222 87.818">
  <g id="step_12434312" transform="translate(1 1)">
    <path id="Path_1034449" data-name="Path 1034449" d="M290.542,202.477,290.8,190.8v-6.626L282.5,178.34l-7.03,5.836v11.008l4.348,7.292Z" transform="translate(-231.493 -148.84)" fill="#ffe5c2"/>
    <path id="Path_1034450" data-name="Path 1034450" d="M344.292,198.087v20.727h3.191l.262-11.675v-6.626Z" transform="translate(-288.435 -165.178)" fill="#fed2a4"/>
    <path id="Path_1034451" data-name="Path 1034451" d="M108.97,342.258l13.409-2.682-2.42-8.993v-6.626l-8.308-5.836-7.03,5.836v11.008Z" transform="translate(-90.15 -264.485)" fill="#ffe5c2"/>
    <path id="Path_1034452" data-name="Path 1034452" d="M173.448,337.868v19.22l5.873-1.175-2.42-8.993v-6.626Z" transform="translate(-147.091 -280.822)" fill="#fed2a4"/>
    <path id="Path_1034453" data-name="Path 1034453" d="M120.993,399.785l-3.367-.962a27.51,27.51,0,0,1-11.9-7l-1.533-1.533-.3.6a9.921,9.921,0,0,1-12.558,4.775l-2.48-.992-.92,1.381A14.108,14.108,0,0,0,85.991,407.3l.678,2.71H99.457a.864.864,0,0,0,.611-.253l1.5-1.5a.863.863,0,0,1,1-.162l3.643,1.822a.864.864,0,0,0,.386.091h19.517v-3.444A7.055,7.055,0,0,0,120.993,399.785Z" transform="translate(-74.387 -324.193)" fill="#7a6d79"/>
    <path id="Path_1034454" data-name="Path 1034454" d="M260.247,8.363V42.836H244.908a33.875,33.875,0,0,0-2.421-12.576l-.881-2.2A43.005,43.005,0,0,1,238.7,8.294a.866.866,0,0,1,.861-.794h19.824A.863.863,0,0,1,260.247,8.363Z" transform="translate(-200.936 -7.5)" fill="#fec165"/>
    <path id="Path_1034455" data-name="Path 1034455" d="M291.836,260l-3.367-.962a27.509,27.509,0,0,1-11.9-7l-1.533-1.533-.3.6a9.921,9.921,0,0,1-12.558,4.775l-2.48-.992-.921,1.381a14.108,14.108,0,0,0-1.948,11.247l.514,2.056a.863.863,0,0,0,.838.654H270.3a.864.864,0,0,0,.611-.253l1.5-1.5a.864.864,0,0,1,1-.162l3.643,1.822a.863.863,0,0,0,.386.091h18.653a.863.863,0,0,0,.863-.863v-2.58A7.054,7.054,0,0,0,291.836,260Z" transform="translate(-215.73 -208.548)" fill="#7a6d79"/>
    <path id="Path_1034456" data-name="Path 1034456" d="M123.85,449.42v5.194a.863.863,0,0,1-.863.863H108.6a.863.863,0,0,1-.386-.091l-2.914-1.457a4.34,4.34,0,0,0-1.93-.456,4.29,4.29,0,0,0-3.052,1.264l-.486.486a.863.863,0,0,1-.613.253l-12.207-.038q.075.392.172.782l.677,2.71h12.789a.864.864,0,0,0,.611-.253l1.5-1.5a.863.863,0,0,1,1-.162l3.643,1.822a.863.863,0,0,0,.386.091H127.3v-3.444A7.056,7.056,0,0,0,123.85,449.42Z" transform="translate(-75.581 -373.112)" fill="#685e68"/>
    <path id="Path_1034457" data-name="Path 1034457" d="M294.729,309.638v5.194a.863.863,0,0,1-.863.863H279.481a.863.863,0,0,1-.386-.091l-2.914-1.457a4.34,4.34,0,0,0-1.931-.456,4.29,4.29,0,0,0-3.052,1.264l-.487.487a.863.863,0,0,1-.611.253H257.9q.072.373.165.744l.514,2.056a.863.863,0,0,0,.838.654h12.115a.864.864,0,0,0,.611-.253l1.5-1.5a.864.864,0,0,1,1-.162l3.643,1.822a.864.864,0,0,0,.386.091H297.32a.863.863,0,0,0,.863-.863V315.7A7.057,7.057,0,0,0,294.729,309.638Z" transform="translate(-216.96 -257.467)" fill="#685e68"/>
    <path id="Path_1034458" data-name="Path 1034458" d="M289.093,7.5H286.5V38.519a.863.863,0,0,1-.863.863h-11.2a33.859,33.859,0,0,1,.177,3.453h15.339V8.363A.863.863,0,0,0,289.093,7.5Z" transform="translate(-230.645 -7.5)" fill="#fdb441"/>
    <path id="Path_1034459" data-name="Path 1034459" d="M89.4,8.363V66.972H74.062a33.156,33.156,0,0,0-2.423-12.438l-.879-2.174A42.16,42.16,0,0,1,68.731,27.2a19.966,19.966,0,0,1,2.229-5.648,4.775,4.775,0,0,0-.13-4.949,21.32,21.32,0,0,1-3.017-8.12.861.861,0,0,1,.855-.983H88.535A.863.863,0,0,1,89.4,8.363Z" transform="translate(-59.589 -7.5)" fill="#fec165"/>
    <path id="Path_1034460" data-name="Path 1034460" d="M118.232,7.5h-2.59V62.656a.863.863,0,0,1-.863.863h-11.2a33.146,33.146,0,0,1,.181,3.453H119.1V8.363A.863.863,0,0,0,118.232,7.5Z" transform="translate(-89.286 -7.5)" fill="#fdb441"/>
    <line id="Line_604" data-name="Line 604" y2="11.008" transform="translate(43.973 35.335)" fill="none" stroke="#000" stroke-linecap="round" stroke-linejoin="round" stroke-miterlimit="10" stroke-width="2"/>
    <line id="Line_605" data-name="Line 605" y1="6.626" transform="translate(59.311 35.335)" fill="none" stroke="#000" stroke-linecap="round" stroke-linejoin="round" stroke-miterlimit="10" stroke-width="2"/>
    <line id="Line_606" data-name="Line 606" y2="11.008" transform="translate(14.472 59.472)" fill="none" stroke="#000" stroke-linecap="round" stroke-linejoin="round" stroke-miterlimit="10" stroke-width="2"/>
    <line id="Line_607" data-name="Line 607" y1="6.626" transform="translate(29.81 59.472)" fill="none" stroke="#000" stroke-linecap="round" stroke-linejoin="round" stroke-miterlimit="10" stroke-width="2"/>
    <path id="Path_1034461" data-name="Path 1034461" d="M96.609,410.01h2.848a.864.864,0,0,0,.611-.253l1.5-1.5a.863.863,0,0,1,1-.162l3.643,1.822a.863.863,0,0,0,.386.091h19.516v-3.444a7.054,7.054,0,0,0-5.116-6.783l-3.367-.962a27.51,27.51,0,0,1-11.9-7L104.2,390.29l-.3.6a9.921,9.921,0,0,1-12.558,4.775l-2.48-.992-.92,1.381A14.108,14.108,0,0,0,85.991,407.3l.678,2.71h3.9" transform="translate(-74.387 -324.192)" fill="none" stroke="#000" stroke-linecap="round" stroke-linejoin="round" stroke-miterlimit="10" stroke-width="2"/>
    <path id="Path_1034462" data-name="Path 1034462" d="M249.669,42.836h-4.761a33.875,33.875,0,0,0-2.421-12.576l-.881-2.2A43.005,43.005,0,0,1,238.7,8.294a.866.866,0,0,1,.861-.794h19.824a.863.863,0,0,1,.863.863V42.836h-4.534" transform="translate(-200.936 -7.5)" fill="none" stroke="#000" stroke-linecap="round" stroke-linejoin="round" stroke-miterlimit="10" stroke-width="2"/>
    <path id="Path_1034463" data-name="Path 1034463" d="M291.836,260l-3.367-.962a27.509,27.509,0,0,1-11.9-7l-1.533-1.533-.3.6a9.921,9.921,0,0,1-12.558,4.775l-2.48-.992-.921,1.381a14.108,14.108,0,0,0-1.948,11.247l.514,2.056a.863.863,0,0,0,.838.654H270.3a.864.864,0,0,0,.611-.253l1.5-1.5a.864.864,0,0,1,1-.162l3.643,1.822a.863.863,0,0,0,.386.091h18.653a.863.863,0,0,0,.863-.863v-2.58A7.054,7.054,0,0,0,291.836,260Z" transform="translate(-215.73 -208.548)" fill="none" stroke="#000" stroke-linecap="round" stroke-linejoin="round" stroke-miterlimit="10" stroke-width="2"/>
    <line id="Line_608" data-name="Line 608" y2="13.409" transform="translate(5.411 53.636)" fill="none" stroke="#000" stroke-linecap="round" stroke-linejoin="round" stroke-miterlimit="10" stroke-width="2"/>
    <path id="Path_1034464" data-name="Path 1034464" d="M36.617,320.8l2.682-2.682,2.682,2.682" transform="translate(-33.887 -264.485)" fill="none" stroke="#000" stroke-linecap="round" stroke-linejoin="round" stroke-miterlimit="10" stroke-width="2"/>
    <line id="Line_609" data-name="Line 609" y1="13.409" transform="translate(72.458 67.046)" fill="none" stroke="#000" stroke-linecap="round" stroke-linejoin="round" stroke-miterlimit="10" stroke-width="2"/>
    <path id="Path_1034465" data-name="Path 1034465" d="M430.262,457.9l-2.682,2.682L424.9,457.9" transform="translate(-355.122 -380.13)" fill="none" stroke="#000" stroke-linecap="round" stroke-linejoin="round" stroke-miterlimit="10" stroke-width="2"/>
    <path id="Path_1034466" data-name="Path 1034466" d="M89.4,32.585V66.972H74.062a33.156,33.156,0,0,0-2.423-12.438l-.879-2.174A42.16,42.16,0,0,1,68.731,27.2a19.966,19.966,0,0,1,2.229-5.648,4.775,4.775,0,0,0-.13-4.949,21.32,21.32,0,0,1-3.017-8.12.861.861,0,0,1,.855-.983H88.535a.863.863,0,0,1,.863.863V26.541" transform="translate(-59.589 -7.5)" fill="none" stroke="#000" stroke-linecap="round" stroke-linejoin="round" stroke-miterlimit="10" stroke-width="2"/>
    <line id="Line_610" data-name="Line 610" x2="28.781" transform="translate(51.722 85.818)" fill="none" stroke="#000" stroke-linecap="round" stroke-linejoin="round" stroke-miterlimit="10" stroke-width="2"/>
    <line id="Line_611" data-name="Line 611" x1="12.281" transform="translate(0 85.818)" fill="none" stroke="#000" stroke-linecap="round" stroke-linejoin="round" stroke-miterlimit="10" stroke-width="2"/>
  </g>
</svg>
