<svg xmlns="http://www.w3.org/2000/svg" width="86.422" height="85.845" viewBox="0 0 86.422 85.845">
  <g id="step-back_12434162" transform="translate(-6.086 -6.984)">
    <path id="Path_1034598" data-name="Path 1034598" d="M74.865,313.748l15.721-5.24-2.62-7.86v-7.924l-10.481-5.177-7.86,5.177v13.164Z" transform="translate(-51.644 -232.399)" fill="#ffdfcf"/>
    <path id="Path_1034599" data-name="Path 1034599" d="M158.971,327.595l5.368-1.789-2.62-7.86v-7.924l-3.374-1.667v18.324l2.62-.873Z" transform="translate(-125.396 -249.698)" fill="#ffcebf"/>
    <path id="Path_1034600" data-name="Path 1034600" d="M49.534,7.984h-22.1a.844.844,0,0,0-.811.612l-.233.816a51.454,51.454,0,0,0,1.7,33.245l1.052,2.63a40.487,40.487,0,0,1,2.9,15.037H50.378V8.828A.843.843,0,0,0,49.534,7.984Z" transform="translate(-14.056 0)" fill="#7a6d79"/>
    <path id="Path_1034601" data-name="Path 1034601" d="M88.663,376.556l-4.027-1.151a32.9,32.9,0,0,1-14.224-8.369L68.58,365.2l-.358.717a11.864,11.864,0,0,1-15.017,5.71l-2.965-1.186-1.1,1.651a16.87,16.87,0,0,0-2.33,13.45l.81,3.241H62.99a.844.844,0,0,0,.6-.247l1.943-1.943a.844.844,0,0,1,.974-.158l4.518,2.259a.843.843,0,0,0,.377.089H94.781v-4.118A8.435,8.435,0,0,0,88.663,376.556Z" transform="translate(-32.258 -296.956)" fill="#fe646f"/>
    <path id="Path_1034602" data-name="Path 1034602" d="M93.729,440.57v6.649a.844.844,0,0,1-.844.844H74.518a.845.845,0,0,1-.377-.089l-3.806-1.9a4.237,4.237,0,0,0-1.886-.445,4.19,4.19,0,0,0-2.983,1.235l-.955.955a.844.844,0,0,1-.6.247H49.1c.011.045.022.089.033.133l.81,3.241H65.312a.844.844,0,0,0,.6-.247l1.943-1.943a.844.844,0,0,1,.974-.158l4.518,2.259a.843.843,0,0,0,.377.089H97.1v-4.118A8.435,8.435,0,0,0,93.729,440.57Z" transform="translate(-34.58 -359.608)" fill="#fd4755"/>
    <path id="Path_1034603" data-name="Path 1034603" d="M86.428,7.984H83.9V56.106a.844.844,0,0,1-.843.844H68.79q.14,1.681.141,3.374H87.272V8.828A.843.843,0,0,0,86.428,7.984Z" transform="translate(-50.95 0)" fill="#685e68"/>
    <line id="Line_643" data-name="Line 643" y2="3.993" transform="translate(17.981 69.495)" fill="none" stroke="#000" stroke-linecap="round" stroke-linejoin="round" stroke-miterlimit="10" stroke-width="2"/>
    <line id="Line_644" data-name="Line 644" y2="3.267" transform="translate(17.981 60.324)" fill="none" stroke="#000" stroke-linecap="round" stroke-linejoin="round" stroke-miterlimit="10" stroke-width="2"/>
    <line id="Line_645" data-name="Line 645" y1="7.924" transform="translate(36.322 60.324)" fill="none" stroke="#000" stroke-linecap="round" stroke-linejoin="round" stroke-miterlimit="10" stroke-width="2"/>
    <path id="Path_1034604" data-name="Path 1034604" d="M50.378,27.769V8.828a.844.844,0,0,0-.844-.844h-22.1a.844.844,0,0,0-.811.612l-.233.816a51.454,51.454,0,0,0,1.7,33.245l1.052,2.63a40.487,40.487,0,0,1,2.9,15.037H50.378V33.673" transform="translate(-14.056 0)" fill="none" stroke="#000" stroke-linecap="round" stroke-linejoin="round" stroke-miterlimit="10" stroke-width="2"/>
    <path id="Path_1034605" data-name="Path 1034605" d="M59.082,388.784h3.909a.844.844,0,0,0,.6-.247l1.943-1.943a.844.844,0,0,1,.974-.158l4.518,2.259a.844.844,0,0,0,.377.089H94.782v-4.118a8.435,8.435,0,0,0-6.118-8.11l-4.027-1.151a32.9,32.9,0,0,1-14.224-8.369L68.581,365.2l-.358.717a11.864,11.864,0,0,1-15.017,5.71l-2.965-1.186-1.1,1.651a16.87,16.87,0,0,0-2.33,13.45l.81,3.241h5.558" transform="translate(-32.259 -296.956)" fill="none" stroke="#000" stroke-linecap="round" stroke-linejoin="round" stroke-miterlimit="10" stroke-width="2"/>
    <path id="Path_1034606" data-name="Path 1034606" d="M209.406,111.054,224.151,125.8h2.591a32.9,32.9,0,0,0,15.976-4.14l3.661-2.035a8.437,8.437,0,0,1,10.061,1.409l2.912,2.912-16.674,16.674-5.557,1.854v3.7L226,157.294l-2.865-1.717a16.866,16.866,0,0,1-7.862-11.158l-.39-1.945-5.481-5.481" transform="translate(-167.844 -85.682)" fill="none" stroke="#000" stroke-linecap="round" stroke-linejoin="round" stroke-miterlimit="10" stroke-width="2"/>
    <line id="Line_646" data-name="Line 646" y2="23.581" transform="translate(10.12 49.906)" fill="none" stroke="#000" stroke-linecap="round" stroke-linejoin="round" stroke-miterlimit="10" stroke-width="2"/>
    <path id="Path_1034607" data-name="Path 1034607" d="M7.5,380.734l2.62,2.62,2.62-2.62" transform="translate(0 -309.866)" fill="none" stroke="#000" stroke-linecap="round" stroke-linejoin="round" stroke-miterlimit="10" stroke-width="2"/>
    <line id="Line_647" data-name="Line 647" x1="7.86" transform="translate(7.5 91.829)" fill="none" stroke="#000" stroke-linecap="round" stroke-linejoin="round" stroke-miterlimit="10" stroke-width="2"/>
    <line id="Line_648" data-name="Line 648" x1="7.86" transform="translate(62.523 91.829)" fill="none" stroke="#000" stroke-linecap="round" stroke-linejoin="round" stroke-miterlimit="10" stroke-width="2"/>
    <path id="Path_1034608" data-name="Path 1034608" d="M383.829,384.706l-3.579-.959.959-3.579" transform="translate(-309.867 -309.396)" fill="none" stroke="#000" stroke-linecap="round" stroke-linejoin="round" stroke-miterlimit="10" stroke-width="2"/>
    <path id="Path_1034609" data-name="Path 1034609" d="M380.25,306.752l3.478-2.008a21.931,21.931,0,0,0,10.218-13.317l1.04-3.88" transform="translate(-309.867 -232.4)" fill="none" stroke="#000" stroke-linecap="round" stroke-linejoin="round" stroke-miterlimit="10" stroke-width="2"/>
  </g>
</svg>
