<svg id="thread_7242211" xmlns="http://www.w3.org/2000/svg" width="47.583" height="47.583" viewBox="0 0 47.583 47.583">
  <g id="Group_1111505" data-name="Group 1111505" transform="translate(0.767 1.044)">
    <g id="Group_1111486" data-name="Group 1111486" transform="translate(36.838 22.337)">
      <path id="Path_900438" data-name="Path 900438" d="M395.07,243.72v10.519c0,.166-.008.331-.024.5a5.237,5.237,0,0,1-1.511,3.211,5.239,5.239,0,0,1-1.522-3.348c-.009-.119-.013-.238-.013-.358V243.72a3.074,3.074,0,0,0,3.07,0Z" transform="translate(-392 -243.72)" fill="#e6e9ed"/>
    </g>
    <g id="Group_1111487" data-name="Group 1111487" transform="translate(16.614 14.305)">
      <path id="Path_900439" data-name="Path 900439" d="M181.18,166.41l.478.606h0a24.03,24.03,0,0,1,5.932,1.007h0V160Z" transform="translate(-181.18 -160)" fill="#e6e9ed"/>
    </g>
    <g id="Group_1111488" data-name="Group 1111488" transform="translate(4.605 6.281)">
      <path id="Path_900440" data-name="Path 900440" d="M72.787,76.806a33.427,33.427,0,0,1-5.22.614h0L56,88.989v1.727a23.711,23.711,0,0,1,3.07-.192v-.767a1.509,1.509,0,0,1,.136-.631,1.532,1.532,0,0,1,1.4-.9h2.769a5.348,5.348,0,0,1,2.153.451l8.893-8.893V76.361h0A13.031,13.031,0,0,1,72.787,76.806Z" transform="translate(-56 -76.36)" fill="#e6e9ed"/>
    </g>
    <g id="Group_1111489" data-name="Group 1111489" transform="translate(4.605 6.281)">
      <path id="Path_900441" data-name="Path 900441" d="M62.958,77.426,56,84.384V76.361h0A26.348,26.348,0,0,0,62.958,77.426Z" transform="translate(-56 -76.36)" fill="#e6e9ed"/>
    </g>
    <g id="Group_1111490" data-name="Group 1111490" transform="translate(14.131 12.77)">
      <path id="Path_900442" data-name="Path 900442" d="M163.425,146.3l-2.3,2.3-3.34,3.34-.418-.53a5.365,5.365,0,0,0-2.064-1.592l1.218-1.218,2.3-2.3,2.3-2.3Z" transform="translate(-155.3 -144)" fill="#ccd1d9"/>
    </g>
    <g id="Group_1111491" data-name="Group 1111491" transform="translate(19.954 9.7)">
      <path id="Path_900443" data-name="Path 900443" d="M219.07,112.767V116.6l-.767.767-2.3-2.3,3.07-3.07Z" transform="translate(-216 -112)" fill="#ccd1d9"/>
    </g>
    <g id="Group_1111492" data-name="Group 1111492" transform="translate(4.605 7.341)">
      <path id="Path_900444" data-name="Path 900444" d="M67.568,87.41h0l-.823.823-2.3,2.3-2.3,2.3-2.3,2.3-2.3,2.3L56,98.979v-4.6l6.958-6.958c.726.034,1.479.051,2.252.051C66.019,87.467,66.809,87.447,67.568,87.41Z" transform="translate(-56 -87.41)" fill="#ccd1d9"/>
    </g>
    <g id="Group_1111493" data-name="Group 1111493" transform="translate(31.466 38.096)">
      <path id="Path_900445" data-name="Path 900445" d="M350.133,408.449a1.535,1.535,0,0,1-1.086,2.621H336c5.175,0,8.332-1.731,10-3.07h3.047A1.534,1.534,0,0,1,350.133,408.449Z" transform="translate(-336 -408)" fill="#ccd1d9"/>
    </g>
    <g id="Group_1111494" data-name="Group 1111494" transform="translate(0 39.631)">
      <path id="Path_900446" data-name="Path 900446" d="M53.6,425.086A1.534,1.534,0,0,0,54.048,424a6.139,6.139,0,0,1-6.14,6.14H24.884a2.3,2.3,0,0,1-1.381-.46l-2.456-1.842-.852,1.277a2.3,2.3,0,0,1-1.915,1.025H10.62A2.62,2.62,0,0,1,8,427.52v-1.985H52.513A1.534,1.534,0,0,0,53.6,425.086Z" transform="translate(-8 -424)" fill="#aab2bd"/>
    </g>
    <g id="Group_1111495" data-name="Group 1111495" transform="translate(0 22.747)">
      <path id="Path_900447" data-name="Path 900447" d="M49.466,263.349c-1.668,1.339-4.825,3.07-10,3.07H24.884L22,260.642a6.209,6.209,0,0,0-5.554-3.432H8V248c0,1.271,3.436,2.3,7.675,2.3a35.23,35.23,0,0,0,6.172-.468l.351.468a19.187,19.187,0,0,0,15.349,7.675h2.192a19.178,19.178,0,0,0,3.111.4l2,.091a5.239,5.239,0,0,0,1.522,3.348,5.237,5.237,0,0,0,1.511-3.211l.879.04a2.32,2.32,0,0,1,1.548,3.947,9.81,9.81,0,0,1-.845.759Z" transform="translate(-8 -248)" fill="#dfb28b"/>
    </g>
    <g id="Group_1111496" data-name="Group 1111496" transform="translate(35.303 16.607)">
      <path id="Path_900448" data-name="Path 900448" d="M380.6,189.729a3.07,3.07,0,1,1,1.535-2.659A3.059,3.059,0,0,1,380.6,189.729Z" transform="translate(-376 -184)" fill="#ff826e"/>
    </g>
    <g id="Group_1111497" data-name="Group 1111497" transform="translate(13.847 23.114)">
      <path id="Path_900449" data-name="Path 900449" d="M170.232,261.431H168.04a19.187,19.187,0,0,1-15.349-7.675l-.351-.468A17.663,17.663,0,0,0,157,251.82l1.769,2.241.387.489a19.192,19.192,0,0,0,11.077,6.88Z" transform="translate(-152.34 -251.82)" fill="#ecc19c"/>
    </g>
    <g id="Group_1111498" data-name="Group 1111498" transform="translate(20.275 23.515)">
      <path id="Path_900450" data-name="Path 900450" d="M223.633,256v3.07c0,.5-.739.959-1.993,1.336a19.016,19.016,0,0,1-1.9-2.077l-.387-.489C221.952,257.42,223.633,256.752,223.633,256Z" transform="translate(-219.35 -256)" fill="#fcd770"/>
    </g>
    <g id="Group_1111499" data-name="Group 1111499" transform="translate(3.07 2.026)">
      <path id="Path_900451" data-name="Path 900451" d="M58.322,36.7a33.426,33.426,0,0,1-5.22.614c-.759.037-1.548.057-2.358.057-.772,0-1.525-.017-2.252-.051a26.349,26.349,0,0,1-6.958-1.066C40.56,35.909,40,35.5,40,35.07V32c0,1.271,4.81,2.3,10.744,2.3S61.489,33.271,61.489,32v3.07c0,.434-.56.839-1.535,1.186A13.03,13.03,0,0,1,58.322,36.7Z" transform="translate(-40 -32)" fill="#fcd770"/>
    </g>
    <g id="Group_1111500" data-name="Group 1111500" transform="translate(17.092 21.322)">
      <path id="Path_900452" data-name="Path 900452" d="M193.636,235.333c0,.752-1.682,1.42-4.283,1.84l-1.769-2.241-1.414-1.792a24.029,24.029,0,0,1,5.932,1.007C193.076,234.494,193.636,234.9,193.636,235.333Z" transform="translate(-186.17 -233.14)" fill="#ffeaa7"/>
    </g>
    <g id="Group_1111501" data-name="Group 1111501" transform="translate(2.954 0)">
      <ellipse id="Ellipse_11602" data-name="Ellipse 11602" cx="10.704" cy="2.007" rx="10.704" ry="2.007" transform="translate(0)" fill="#ffeaa7"/>
    </g>
    <g id="Group_1111502" data-name="Group 1111502" transform="translate(7.675 18.142)">
      <path id="Path_900453" data-name="Path 900453" d="M97.418,203.179l1.414,1.792a17.664,17.664,0,0,1-4.659,1.468,35.228,35.228,0,0,1-6.172.468v-5.372a1.509,1.509,0,0,1,.136-.631,1.532,1.532,0,0,1,1.4-.9H92.3a5.38,5.38,0,0,1,4.217,2.043l.418.53.478.606Z" transform="translate(-88 -200)" fill="#d3a06c"/>
    </g>
    <g id="Group_1111503" data-name="Group 1111503" transform="translate(0 31.957)">
      <path id="Path_900454" data-name="Path 900454" d="M22,347.432l2.889,5.777H8V344h8.442A6.209,6.209,0,0,1,22,347.432Z" transform="translate(-8 -344)" fill="#e6e9ed"/>
    </g>
    <g id="Group_1111504" data-name="Group 1111504" transform="translate(0 20.445)">
      <path id="Path_900455" data-name="Path 900455" d="M15.675,224v4.6C11.436,228.6,8,227.574,8,226.3c0-.944,1.895-1.756,4.6-2.111A23.708,23.708,0,0,1,15.675,224Z" transform="translate(-8 -224)" fill="#cf9e76"/>
    </g>
  </g>
  <g id="Group_1111506" data-name="Group 1111506">
    <path id="Path_900456" data-name="Path 900456" d="M45.28,38.373H44.055a3.09,3.09,0,0,0-2.49-4.7l-.122-.006V23.789a3.836,3.836,0,0,0-1.535-6.828v-.845a.768.768,0,0,1,.767-.767h4.6a2.3,2.3,0,0,0,0-4.6H24.559V7.85c1.038-.458,1.535-1.018,1.535-1.71V3.07C26.094,2,24.9,1.24,22.34.691A38.851,38.851,0,0,0,14.582,0,38.851,38.851,0,0,0,6.824.691C4.263,1.24,3.07,2,3.07,3.07V6.14c0,.692.5,1.252,1.535,1.71V21.019a14.776,14.776,0,0,0-1.81.409C.94,21.984,0,22.78,0,23.791v20.4a3.388,3.388,0,0,0,3.388,3.388h7.659A3.063,3.063,0,0,0,13.6,46.216l.4-.6,1.807,1.355a3.09,3.09,0,0,0,1.842.614H40.675a6.915,6.915,0,0,0,6.907-6.907A2.305,2.305,0,0,0,45.28,38.373Zm.767,2.3a.768.768,0,0,1-.767.767H39.935A13.272,13.272,0,0,0,42.5,39.908h2.78A.768.768,0,0,1,46.048,40.675Zm-3.07-3.922a1.537,1.537,0,0,1-.445,1.088c-1.332,1.345-4.44,3.6-10.3,3.6H18.126L15.449,36.09a6.938,6.938,0,0,0-6.24-3.856v1.535a5.412,5.412,0,0,1,4.867,3.008l2.333,4.667H1.535V33.768H4.6V32.233H1.535V25.672a8.165,8.165,0,0,0,1.26.482,20.472,20.472,0,0,0,5.647.707,37.082,37.082,0,0,0,5.841-.4l.068.091a19.954,19.954,0,0,0,15.963,7.982h2.112a19.983,19.983,0,0,0,3.156.4l1.356.062A5.964,5.964,0,0,0,38.6,38.148l.543.543.543-.543A5.966,5.966,0,0,0,41.3,35.193l.193.009A1.55,1.55,0,0,1,42.978,36.753ZM6.14,15.667l6.5-6.5c.637.025,1.287.038,1.947.038l.452,0L6.14,18.1Zm7.675-3.07,3.519,3.519-1.217,1.217L12.6,13.814Zm7.549,12.968-1.8-2.275c3.028.345,4.521.927,4.921,1.266A7.793,7.793,0,0,1,21.363,25.565Zm-2.788-3.915L20.721,19.5l2.3,2.3v.534a27.688,27.688,0,0,0-4.449-.691Zm4.449-2.015-1.217-1.217L23.024,17.2Zm-5.579.974a6.152,6.152,0,0,0-1.281-1.153L20.721,14.9l1.217,1.217ZM11.512,14.9l3.519,3.519-.321.321a6.159,6.159,0,0,0-1.964-.321H12.6l-2.3-2.3Zm1.234,5.054a4.579,4.579,0,0,1,3.614,1.751l1.7,2.153A23.389,23.389,0,0,1,9.209,25.32v-4.6a.768.768,0,0,1,.767-.767Zm6.3,5.152,1.782,2.258a19.944,19.944,0,0,0,6.57,5.4,18.532,18.532,0,0,1-11.43-6.633,18.2,18.2,0,0,0,3.078-1.024Zm4.49,2.985q-.568-.562-1.09-1.177a11.069,11.069,0,0,0,2.114-.652v1.293A2.634,2.634,0,0,1,23.535,28.092Zm-.511-13.06-1.217-1.217L23.024,12.6Zm-4.6,0L14.9,11.512l1.217-1.217,3.519,3.519ZM17.2,9.21l.071-.071c.932-.05,1.825-.128,2.663-.229l-1.517,1.517ZM9.21,17.2l1.217,1.217h-.45a2.292,2.292,0,0,0-1.461.524l-.524-.524Zm30.7,16.7a4.442,4.442,0,0,1-.767,2.508,4.441,4.441,0,0,1-.767-2.508V24.482a3.852,3.852,0,0,0,1.535,0Zm1.535-13.179a2.3,2.3,0,1,1-2.3-2.3A2.305,2.305,0,0,1,41.443,20.721Zm3.837-8.442a.767.767,0,1,1,0,1.535h-4.6a2.305,2.305,0,0,0-2.3,2.3v.845a3.836,3.836,0,0,0-1.535,6.828v9.664L35.653,33.4a18.407,18.407,0,0,1-10.86-4.17,1.962,1.962,0,0,0,1.3-1.6v-3.07c0-.838-.786-1.378-1.535-1.711V12.279ZM23.024,10.427l-2.3,2.3L19.5,11.512l3.039-3.039q.249-.056.481-.115ZM21.559,7.11a39.138,39.138,0,0,1-6.977.565A39.138,39.138,0,0,1,7.6,7.11c-2.081-.395-2.844-.859-3-1.04V4.78a11.662,11.662,0,0,0,2.219.669,38.851,38.851,0,0,0,7.758.691,38.851,38.851,0,0,0,7.758-.691,11.676,11.676,0,0,0,2.219-.669V6.07C24.4,6.251,23.64,6.715,21.559,7.11ZM7.6,2.1a39.138,39.138,0,0,1,6.977-.565,39.138,39.138,0,0,1,6.977.565,7.478,7.478,0,0,1,2.925.97,7.477,7.477,0,0,1-2.925.97,39.138,39.138,0,0,1-6.977.565A39.138,39.138,0,0,1,7.6,4.04,7.477,7.477,0,0,1,4.68,3.07,7.477,7.477,0,0,1,7.6,2.1ZM6.824,8.518a30.525,30.525,0,0,0,3.765.53L6.14,13.5V8.358Q6.464,8.441,6.824,8.518ZM6.14,20.272l.767-.767.805.805a2.3,2.3,0,0,0-.038.412v.011c-.524.015-1.037.046-1.535.091Zm1.535,2v3.047C3.728,25.2,1.683,24.2,1.537,23.791,1.683,23.383,3.728,22.385,7.675,22.268Zm33,23.78H17.652a1.545,1.545,0,0,1-.921-.307l-3.1-2.329-1.3,1.952a1.532,1.532,0,0,1-1.277.684H3.388a1.853,1.853,0,0,1-1.853-1.853V42.978H45.28a2.323,2.323,0,0,0,.255-.014,5.379,5.379,0,0,1-4.859,3.084Z" transform="translate(0 0)"/>
    <path id="Path_900457" data-name="Path 900457" d="M64,336h1.535v1.535H64Z" transform="translate(-57.86 -303.767)"/>
  </g>
</svg>
