<svg xmlns="http://www.w3.org/2000/svg" xmlns:xlink="http://www.w3.org/1999/xlink" width="118" height="118" viewBox="0 0 118 118">
  <defs>
    <filter id="Path_896985" x="0" y="0" width="118" height="118" filterUnits="userSpaceOnUse">
      <feOffset dy="3" input="SourceAlpha"/>
      <feGaussianBlur stdDeviation="3" result="blur"/>
      <feFlood flood-opacity="0.161"/>
      <feComposite operator="in" in2="blur"/>
      <feComposite in="SourceGraphic"/>
    </filter>
  </defs>
  <g id="Group_1178592" data-name="Group 1178592" transform="translate(9 6)">
    <g id="Group_1111318" data-name="Group 1111318">
      <g id="Group_1109826" data-name="Group 1109826">
        <g id="Group_1098742" data-name="Group 1098742" transform="translate(0 0)">
          <g transform="matrix(1, 0, 0, 1, -9, -6)" filter="url(#Path_896985)">
            <g id="Path_896985-2" data-name="Path 896985" transform="translate(9 6)" fill="#2f5235" opacity="0.859">
              <path d="M 49.99993896484375 98.5 C 43.45182418823242 98.5 37.10037994384766 97.21788787841797 31.12203979492188 94.68926239013672 C 25.34688186645508 92.24657440185547 20.15993881225586 88.74932861328125 15.70529651641846 84.29470062255859 C 11.25066757202148 79.84007263183594 7.753438949584961 74.65312957763672 5.310753345489502 68.87797546386719 C 2.782124757766724 62.89963150024414 1.499996066093445 56.54819107055664 1.499996066093445 50.00007629394531 C 1.499996066093445 43.45181655883789 2.782124757766724 37.10037612915039 5.310753345489502 31.12203216552734 C 7.753438949584961 25.34687614440918 11.25066757202148 20.15993309020996 15.70529651641846 15.70530414581299 C 20.15993881225586 11.25067520141602 25.34688186645508 7.753432273864746 31.12203979492188 5.310746669769287 C 37.10037994384766 2.782118082046509 43.45182418823242 1.500003814697266 49.99993896484375 1.500003814697266 C 56.54805374145508 1.500003814697266 62.89949798583984 2.782118082046509 68.87785339355469 5.310746669769287 C 74.65300750732422 7.753432273864746 79.83995056152344 11.25067520141602 84.29457855224609 15.70530414581299 C 88.74921417236328 20.15993309020996 92.24645233154297 25.34687614440918 94.68914031982422 31.12203216552734 C 97.21776580810547 37.10037612915039 98.49988555908203 43.45181655883789 98.49988555908203 49.99993133544922 C 98.49988555908203 56.54819107055664 97.21776580810547 62.89963150024414 94.68914031982422 68.87797546386719 C 92.24645233154297 74.65312957763672 88.74921417236328 79.84007263183594 84.29457855224609 84.29470062255859 C 79.83995056152344 88.74932861328125 74.65300750732422 92.24657440185547 68.87785339355469 94.68926239013672 C 62.89949798583984 97.21788787841797 56.54805374145508 98.5 49.99993896484375 98.5 Z" stroke="none"/>
              <path d="M 49.99993896484375 3.000007629394531 C 43.65366363525391 3.000007629394531 37.49881744384766 4.242263793945312 31.70636749267578 6.692268371582031 C 26.11000061035156 9.059326171875 21.08332061767578 12.44860076904297 16.76596832275391 16.76596069335938 C 12.44860076904297 21.08332824707031 9.059326171875 26.11000061035156 6.6922607421875 31.70635986328125 C 4.242263793945312 37.49881744384766 3 43.65366363525391 3 50.00006484985352 C 3 56.34634399414062 4.242263793945312 62.50119018554688 6.6922607421875 68.29363250732422 C 9.059326171875 73.88999938964844 12.44860076904297 78.91667938232422 16.76596832275391 83.23403930664062 C 21.08332061767578 87.55140686035156 26.11000061035156 90.94068145751953 31.70636749267578 93.3077392578125 C 37.49881744384766 95.75774383544922 43.65366363525391 97 49.99993896484375 97 C 56.34621429443359 97 62.50106048583984 95.75774383544922 68.29352569580078 93.3077392578125 C 73.88987731933594 90.94068145751953 78.91654968261719 87.55140686035156 83.23392486572266 83.23403930664062 C 87.55127716064453 78.91667938232422 90.9405517578125 73.88999938964844 93.3076171875 68.29363250732422 C 95.75761413574219 62.50119018554688 96.9998779296875 56.34634399414062 96.9998779296875 49.99994277954102 C 96.9998779296875 43.65366363525391 95.75761413574219 37.49881744384766 93.3076171875 31.70635986328125 C 90.94056701660156 26.11000061035156 87.55127716064453 21.08332824707031 83.23392486572266 16.76596069335938 C 78.91654968261719 12.44860076904297 73.88987731933594 9.059310913085938 68.29352569580078 6.692268371582031 C 62.50106048583984 4.242263793945312 56.34621429443359 3.000007629394531 49.99993896484375 3.000007629394531 M 49.99993896484375 7.62939453125e-06 C 77.61415100097656 7.62939453125e-06 99.9998779296875 22.38572692871094 99.9998779296875 49.99994277954102 L 99.9998779296875 50.00006484985352 C 99.9998779296875 77.61426544189453 77.61415100097656 100 49.99993896484375 100 C 22.3857421875 100 0 77.61426544189453 0 50.00006484985352 L 0 49.99994277954102 C 0 22.38572692871094 22.3857421875 7.62939453125e-06 49.99993896484375 7.62939453125e-06 Z" stroke="none" fill="#fff"/>
            </g>
          </g>
          <g id="Rectangle_400907" data-name="Rectangle 400907" transform="translate(0)" fill="none" stroke="#fff" stroke-width="3">
            <rect width="100" height="100" rx="50" stroke="none"/>
            <rect x="1.5" y="1.5" width="97" height="97" rx="48.5" fill="none"/>
          </g>
        </g>
      </g>
    </g>
    <g id="measuring_7242078" transform="translate(16.073 24.829)">
      <g id="Group_1178806" data-name="Group 1178806" transform="translate(1.094 1.094)">
        <g id="Group_1178797" data-name="Group 1178797" transform="translate(47.059 3.283)">
          <path id="Path_1034610" data-name="Path 1034610" d="M352,32c6.044,0,14.227,1.471,14.227,3.283S358.044,38.566,352,38.566Z" transform="translate(-352 -32)" fill="#dfb28b"/>
        </g>
        <g id="Group_1178798" data-name="Group 1178798" transform="translate(35.638)">
          <path id="Path_1034611" data-name="Path 1034611" d="M279.931,11.283V17.85a18.682,18.682,0,0,1-5.27-.822,30.6,30.6,0,0,1-6.152-2.655l3.54-4.647A4.378,4.378,0,0,1,275.533,8h1.115a3.284,3.284,0,0,1,3.283,3.283Z" transform="translate(-268.51 -8)" fill="#d3a06c"/>
        </g>
        <g id="Group_1178799" data-name="Group 1178799" transform="translate(22.982 6.372)">
          <path id="Path_1034612" data-name="Path 1034612" d="M194.807,57.235,188.442,65.2A15.922,15.922,0,0,1,176,71.19l12.655-16.61A30.6,30.6,0,0,0,194.807,57.235Z" transform="translate(-176 -54.58)" fill="#ecc19c"/>
        </g>
        <g id="Group_1178800" data-name="Group 1178800" transform="translate(11.642 6.566)">
          <path id="Path_1034613" data-name="Path 1034613" d="M142.745,56V71.457a17.775,17.775,0,0,0-2.189-.135,17.511,17.511,0,0,0-17.51,17.51H96.78c0-5.943-1.473-11.146-3.68-14.029l11.341-2.387a15.922,15.922,0,0,0,12.442-5.986l6.365-7.969a18.681,18.681,0,0,0,5.27.822C134.561,59.283,142.745,57.813,142.745,56Z" transform="translate(-93.1 -56)" fill="#cf9e76"/>
        </g>
        <g id="Group_1178801" data-name="Group 1178801" transform="translate(2.189 25.37)">
          <path id="Path_1034614" data-name="Path 1034614" d="M37.133,207.479H24v-5.822a7.661,7.661,0,0,1,6.082-7.5l3.371-.71C35.66,196.332,37.133,201.536,37.133,207.479Z" transform="translate(-24 -193.45)" fill="#dfb28b"/>
        </g>
        <g id="Group_1178802" data-name="Group 1178802" transform="translate(41.587 21.888)">
          <path id="Path_1034615" data-name="Path 1034615" d="M331.7,168.135v4.424a13.142,13.142,0,0,0-15.322,12.951H312A17.511,17.511,0,0,1,329.51,168,17.775,17.775,0,0,1,331.7,168.135Z" transform="translate(-312 -168)" fill="#ccd1d9"/>
        </g>
        <g id="Group_1178803" data-name="Group 1178803" transform="translate(45.965 26.266)">
          <path id="Path_1034616" data-name="Path 1034616" d="M359.322,200.182v.155a15.315,15.315,0,0,1-1.094,5.683c-.073.181-.141.364-.205.547h0a15.3,15.3,0,0,0-.888,5.135v1.431H344a13.142,13.142,0,0,1,15.322-12.951Z" transform="translate(-344 -200)" fill="#e6e9ed"/>
        </g>
        <g id="Group_1178804" data-name="Group 1178804" transform="translate(59.098 32.832)">
          <path id="Path_1034617" data-name="Path 1034617" d="M443.283,248a3.283,3.283,0,0,1,0,6.566H440v-1.431a15.3,15.3,0,0,1,.888-5.135h2.4Z" transform="translate(-440 -248)" fill="#ffeaa7"/>
        </g>
        <g id="Group_1178805" data-name="Group 1178805" transform="translate(0 36.115)">
          <path id="Path_1034618" data-name="Path 1034618" d="M64.909,275.283h5.472A3.283,3.283,0,0,0,73.664,272v8.755a3.284,3.284,0,0,1-3.283,3.283H8v-8.755H64.909Z" transform="translate(-8 -272)" fill="#fcd770"/>
        </g>
      </g>
      <path id="Path_1034619" data-name="Path 1034619" d="M63.475,32.832H62.65a16.315,16.315,0,0,0,.826-5.136V7.661c0-1.508-1.762-2.554-5.714-3.392A49.207,49.207,0,0,0,49.113,3.3,4.385,4.385,0,0,0,44.871,0H43.755A5.5,5.5,0,0,0,39.4,2.156L23.453,23.09,9.14,26.1A8.8,8.8,0,0,0,2.189,34.67V39.4H0V50.343H63.475a4.383,4.383,0,0,0,4.378-4.378V37.21A4.383,4.383,0,0,0,63.475,32.832ZM48.2,39.4A12.054,12.054,0,0,1,60.192,28.454c.357,0,.715.017,1.071.048a14.132,14.132,0,0,1-.993,4.47A16.324,16.324,0,0,0,59.1,39.062V39.4ZM61.287,26.309c-.364-.028-.729-.043-1.094-.043A14.246,14.246,0,0,0,46.007,39.4H43.813A16.437,16.437,0,0,1,60.192,24.077c.364,0,.73.013,1.094.037Zm-.2-18.648A13.835,13.835,0,0,1,56.65,9.044a48.368,48.368,0,0,1-7.4.789V5.488a48.369,48.369,0,0,1,7.4.789,13.835,13.835,0,0,1,4.438,1.383ZM41.144,3.482a3.3,3.3,0,0,1,2.612-1.293h1.115a2.191,2.191,0,0,1,2.189,2.189V9.806a22.954,22.954,0,0,1-8.677-2.7ZM32.936,20.051l-2.81-2.108,1.459-1.915,3.191,2.393A14.849,14.849,0,0,1,32.936,20.051ZM30.953,21.3a14.72,14.72,0,0,1-4.525,1.5L28.8,19.684Zm5.238-4.553-3.28-2.46,1.459-1.915,3.324,2.493Zm2.87-3.593L35.7,10.631l1.337-1.755a32.324,32.324,0,0,0,4.011,1.794ZM24.2,25.17a16.932,16.932,0,0,0,13.175-6.4l5.912-7.4a19.222,19.222,0,0,0,4.868.666,49.163,49.163,0,0,0,9.607-.985,19.136,19.136,0,0,0,3.525-1.036v11.9c-.365-.021-.73-.033-1.094-.033A18.628,18.628,0,0,0,41.62,39.4H17.494A26.834,26.834,0,0,0,14.534,27.2ZM4.378,34.67a6.6,6.6,0,0,1,5.214-6.426l2.669-.562C14.023,30.353,15.151,34.7,15.3,39.4H4.378ZM65.664,45.965a2.191,2.191,0,0,1-2.189,2.189H2.189V41.587H4.378v4.378H6.566V41.587H8.755v2.189h2.189V41.587h2.189v4.378h2.189V41.587H17.51v2.189H19.7V41.587h2.189v4.378h2.189V41.587h2.189v2.189h2.189V41.587h2.189v4.378h2.189V41.587h2.189v2.189H37.21V41.587H39.4v4.378h2.189V41.587h2.189v2.189h2.189V41.587h2.189v4.378h2.189V41.587h2.189v2.189H54.72V41.587h2.189v4.378H59.1V41.587h2.189v2.189h2.189V41.587A4.35,4.35,0,0,0,65.664,41ZM63.475,39.4H61.287v-.336a14.139,14.139,0,0,1,.587-4.041h1.6a2.189,2.189,0,1,1,0,4.378Z"/>
    </g>
  </g>
</svg>
