<svg xmlns="http://www.w3.org/2000/svg" xmlns:xlink="http://www.w3.org/1999/xlink" width="118" height="118" viewBox="0 0 118 118">
  <defs>
    <filter id="Path_896985" x="0" y="0" width="118" height="118" filterUnits="userSpaceOnUse">
      <feOffset dy="3" input="SourceAlpha"/>
      <feGaussianBlur stdDeviation="3" result="blur"/>
      <feFlood flood-opacity="0.161"/>
      <feComposite operator="in" in2="blur"/>
      <feComposite in="SourceGraphic"/>
    </filter>
  </defs>
  <g id="Group_1178829" data-name="Group 1178829" transform="translate(-1160 -505.812)">
    <g id="Group_1178734" data-name="Group 1178734" transform="translate(1.391 -3337.188)">
      <g id="Group_1111320" data-name="Group 1111320" transform="translate(-8.391 -3)">
        <g id="Group_1109828" data-name="Group 1109828" transform="translate(1176 3852)">
          <g id="Group_1098742" data-name="Group 1098742">
            <g transform="matrix(1, 0, 0, 1, -9, -6)" filter="url(#Path_896985)">
              <g id="Path_896985-2" data-name="Path 896985" transform="translate(9 6)" fill="#2f5235" opacity="0.859">
                <path d="M 49.99993896484375 98.5 C 43.45182418823242 98.5 37.10037994384766 97.21788787841797 31.12203979492188 94.68926239013672 C 25.34688186645508 92.24657440185547 20.15993881225586 88.74932861328125 15.70529651641846 84.29470062255859 C 11.25066757202148 79.84007263183594 7.753438949584961 74.65312957763672 5.310753345489502 68.87797546386719 C 2.782124757766724 62.89963150024414 1.499996066093445 56.54819107055664 1.499996066093445 50.00007629394531 C 1.499996066093445 43.45181655883789 2.782124757766724 37.10037612915039 5.310753345489502 31.12203216552734 C 7.753438949584961 25.34687614440918 11.25066757202148 20.15993309020996 15.70529651641846 15.70530414581299 C 20.15993881225586 11.25067520141602 25.34688186645508 7.753432273864746 31.12203979492188 5.310746669769287 C 37.10037994384766 2.782118082046509 43.45182418823242 1.500003814697266 49.99993896484375 1.500003814697266 C 56.54805374145508 1.500003814697266 62.89949798583984 2.782118082046509 68.87785339355469 5.310746669769287 C 74.65300750732422 7.753432273864746 79.83995056152344 11.25067520141602 84.29457855224609 15.70530414581299 C 88.74921417236328 20.15993309020996 92.24645233154297 25.34687614440918 94.68914031982422 31.12203216552734 C 97.21776580810547 37.10037612915039 98.49988555908203 43.45181655883789 98.49988555908203 49.99993133544922 C 98.49988555908203 56.54819107055664 97.21776580810547 62.89963150024414 94.68914031982422 68.87797546386719 C 92.24645233154297 74.65312957763672 88.74921417236328 79.84007263183594 84.29457855224609 84.29470062255859 C 79.83995056152344 88.74932861328125 74.65300750732422 92.24657440185547 68.87785339355469 94.68926239013672 C 62.89949798583984 97.21788787841797 56.54805374145508 98.5 49.99993896484375 98.5 Z" stroke="none"/>
                <path d="M 49.99993896484375 3.000007629394531 C 43.65366363525391 3.000007629394531 37.49881744384766 4.242263793945312 31.70636749267578 6.692268371582031 C 26.11000061035156 9.059326171875 21.08332061767578 12.44860076904297 16.76596832275391 16.76596069335938 C 12.44860076904297 21.08332824707031 9.059326171875 26.11000061035156 6.6922607421875 31.70635986328125 C 4.242263793945312 37.49881744384766 3 43.65366363525391 3 50.00006484985352 C 3 56.34634399414062 4.242263793945312 62.50119018554688 6.6922607421875 68.29363250732422 C 9.059326171875 73.88999938964844 12.44860076904297 78.91667938232422 16.76596832275391 83.23403930664062 C 21.08332061767578 87.55140686035156 26.11000061035156 90.94068145751953 31.70636749267578 93.3077392578125 C 37.49881744384766 95.75774383544922 43.65366363525391 97 49.99993896484375 97 C 56.34621429443359 97 62.50106048583984 95.75774383544922 68.29352569580078 93.3077392578125 C 73.88987731933594 90.94068145751953 78.91654968261719 87.55140686035156 83.23392486572266 83.23403930664062 C 87.55127716064453 78.91667938232422 90.9405517578125 73.88999938964844 93.3076171875 68.29363250732422 C 95.75761413574219 62.50119018554688 96.9998779296875 56.34634399414062 96.9998779296875 49.99994277954102 C 96.9998779296875 43.65366363525391 95.75761413574219 37.49881744384766 93.3076171875 31.70635986328125 C 90.94056701660156 26.11000061035156 87.55127716064453 21.08332824707031 83.23392486572266 16.76596069335938 C 78.91654968261719 12.44860076904297 73.88987731933594 9.059310913085938 68.29352569580078 6.692268371582031 C 62.50106048583984 4.242263793945312 56.34621429443359 3.000007629394531 49.99993896484375 3.000007629394531 M 49.99993896484375 7.62939453125e-06 C 77.61415100097656 7.62939453125e-06 99.9998779296875 22.38572692871094 99.9998779296875 49.99994277954102 L 99.9998779296875 50.00006484985352 C 99.9998779296875 77.61426544189453 77.61415100097656 100 49.99993896484375 100 C 22.3857421875 100 0 77.61426544189453 0 50.00006484985352 L 0 49.99994277954102 C 0 22.38572692871094 22.3857421875 7.62939453125e-06 49.99993896484375 7.62939453125e-06 Z" stroke="none" fill="#fff"/>
              </g>
            </g>
            <g id="Rectangle_400907" data-name="Rectangle 400907" transform="translate(0 0)" fill="none" stroke="#fff" stroke-width="3">
              <rect width="100" height="100" rx="50" stroke="none"/>
              <rect x="1.5" y="1.5" width="97" height="97" rx="48.5" fill="none"/>
            </g>
          </g>
        </g>
      </g>
    </g>
    <g id="shoe_1589460" transform="translate(1188.155 533.155)">
      <path id="Path_1034671" data-name="Path 1034671" d="M10,224.012H31.206v4.819H10Zm0,0" transform="translate(-8.795 -197.021)" fill="#c68a65"/>
      <path id="Path_1034672" data-name="Path 1034672" d="M31.205,10l4.09,5.317a20.747,20.747,0,0,0,11.24,7.433l12.509,3.243A13.663,13.663,0,0,1,69.279,39.22,1.384,1.384,0,0,1,67.894,40.6H48.133A18.007,18.007,0,0,1,39.139,38.2l-1.187-.684A12.92,12.92,0,0,0,31.5,35.785H10V10" transform="translate(-8.794 -8.794)" fill="#c68a65"/>
      <path id="Path_1034673" data-name="Path 1034673" d="M31.206,10H10v4.841H34.929c-1.585-1.484-2.386-3.1-3.723-4.84Zm0,0" transform="translate(-8.795 -8.795)" fill="#dca98b"/>
      <path id="Path_1034674" data-name="Path 1034674" d="M10,105.547V119.82H24.273A14.273,14.273,0,0,0,10,105.547Zm0,0" transform="translate(-8.795 -92.83)" fill="#dca98b"/>
      <path id="Path_1034675" data-name="Path 1034675" d="M213.773,349.746H179.18a2.289,2.289,0,0,0-2.289,2.289v4.219a2.289,2.289,0,0,0,2.289,2.289h34.593a2.289,2.289,0,0,0,2.289-2.289v-4.219A2.289,2.289,0,0,0,213.773,349.746Zm0,0" transform="translate(-155.578 -307.606)" fill="#ffcb7c"/>
      <path id="Path_1034676" data-name="Path 1034676" d="M90.836,361.484H101.2v5.969H90.836Zm0,0" transform="translate(-79.891 -317.93)" fill="#b0e7f8"/>
      <path id="Path_1034677" data-name="Path 1034677" d="M20.682,323.519V326.1H17.606A7.606,7.606,0,0,1,10,318.492v-9.325l1.335-.393v-1.913L10,306.085V302h8.4v4.084l-1.335.777v1.913l2.67.393v5.97a2.513,2.513,0,0,0-2.513,2.513v2.413A3.456,3.456,0,0,0,20.682,323.519Zm0,0" transform="translate(-8.795 -265.613)" fill="#dff6fc"/>
      <path id="Path_1034678" data-name="Path 1034678" d="M1.205,33.015H22.411a1.2,1.2,0,0,0,1.2-1.2V28.233a11.734,11.734,0,0,1,4.939,1.53l1.187.684a19.239,19.239,0,0,0,9.6,2.568H59.1a2.592,2.592,0,0,0,2.59-2.589A14.868,14.868,0,0,0,50.552,16.033L38.043,12.791a19.64,19.64,0,0,1-10.587-7L23.366.472A1.2,1.2,0,0,0,22.411,0H1.205A1.205,1.205,0,0,0,0,1.205v30.6a1.2,1.2,0,0,0,1.2,1.2Zm1.2-19.038A13.091,13.091,0,0,1,14.219,25.786H2.41Zm18.8,16.628H2.41V28.2h18.8Zm.611-28.194,1.869,2.43H10.844a1.2,1.2,0,1,0,0,2.41H25.483l.056,0,.007.01a21.849,21.849,0,0,0,2.893,3.084l-2.462,2.463a1.2,1.2,0,0,0,1.7,1.7l2.667-2.667A22.133,22.133,0,0,0,34,13.914L32.68,17.161a1.2,1.2,0,1,0,2.233.905l1.333-3.289q.591.19,1.192.347l4.049,1.05v3.681a1.2,1.2,0,0,0,2.41,0V16.8l6.05,1.568a12.459,12.459,0,0,1,9.333,12.06.18.18,0,0,1-.18.179H39.339a16.821,16.821,0,0,1-8.393-2.246l-1.187-.684A14.143,14.143,0,0,0,22.7,25.786H16.637A15.5,15.5,0,0,0,2.41,11.559V2.41Zm0,0" transform="translate(0)"/>
      <path id="Path_1034679" data-name="Path 1034679" d="M58.2,297.753H23.6a3.492,3.492,0,0,0-2.806,1.414H11.033l-1.554-.228v-.179l.736-.428a1.2,1.2,0,0,0,.6-1.042V293.2a1.2,1.2,0,0,0-1.2-1.2h-8.4A1.2,1.2,0,0,0,0,293.2v4.084a1.2,1.2,0,0,0,.6,1.042l.736.428v.319l-.47.138A1.2,1.2,0,0,0,0,300.371V309.7a8.821,8.821,0,0,0,8.811,8.811h3.077a1.205,1.205,0,0,0,1.2-1.2v-2.579a1.205,1.205,0,0,0-1.2-1.2,2.254,2.254,0,0,1-2.251-2.252v-2.412a1.31,1.31,0,0,1,1.308-1.309H20.8A3.49,3.49,0,0,0,23.6,308.96h6.611a1.2,1.2,0,1,0,0-2.41H23.6a1.086,1.086,0,0,1-1.084-1.084v-4.219a1.086,1.086,0,0,1,1.084-1.084H58.2a1.086,1.086,0,0,1,1.084,1.084v4.219A1.085,1.085,0,0,1,58.2,306.55H39.851a1.2,1.2,0,0,0,0,2.41H58.2a3.5,3.5,0,0,0,3.494-3.494v-4.219a3.5,3.5,0,0,0-3.494-3.494Zm-50.968,11.1v2.412a4.669,4.669,0,0,0,3.456,4.5v.327H8.811a6.408,6.408,0,0,1-6.4-6.4v-8.423l.47-.138a1.2,1.2,0,0,0,.865-1.156v-1.913a1.2,1.2,0,0,0-.6-1.042L2.41,296.6V294.41H8.4V296.6l-.736.428a1.2,1.2,0,0,0-.6,1.042v1.913a1.205,1.205,0,0,0,1.03,1.192l1.641.241v3.924a3.725,3.725,0,0,0-2.513,3.518Zm4.923-7.279h7.959v3.56H12.15Zm0,0" transform="translate(0 -256.818)"/>
      <path id="Path_1034680" data-name="Path 1034680" d="M41.2,42.589a1.205,1.205,0,1,0-.852-.353A1.214,1.214,0,0,0,41.2,42.589Zm0,0" transform="translate(-35.18 -35.338)"/>
      <path id="Path_1034681" data-name="Path 1034681" d="M281.955,412.762a1.205,1.205,0,1,0,.852.353A1.212,1.212,0,0,0,281.955,412.762Zm0,0" transform="translate(-246.923 -363.03)"/>
    </g>
  </g>
</svg>
