<svg xmlns="http://www.w3.org/2000/svg" xmlns:xlink="http://www.w3.org/1999/xlink" width="400" height="421" viewBox="0 0 400 421">
  <defs>
    <clipPath id="clip-path">
      <rect id="Rectangle_405111" data-name="Rectangle 405111" width="291.703" height="327.339" fill="none"/>
    </clipPath>
  </defs>
  <g id="Group_1178735" data-name="Group 1178735" transform="translate(-179.051 -3447.98)">
    <rect id="Rectangle_405110" data-name="Rectangle 405110" width="400" height="421" rx="21" transform="translate(179.051 3447.98)" fill="#ebebeb"/>
    <g id="Group_1177609" data-name="Group 1177609" transform="translate(233.051 3447.98)">
      <g id="Group_1177608" data-name="Group 1177608" clip-path="url(#clip-path)">
        <path id="Path_1033938" data-name="Path 1033938" d="M143.905.37A.6.6,0,0,0,143.33,0q-12.809,0-25.617.052Q104.77.1,91.827.178,78.836.252,65.845.33,52.892.4,39.938.462q-12.83.052-25.66.064H11.112a.666.666,0,0,0-.488,1.095q3.769,22.061,8.437,43.955,4.7,22.007,10.3,43.808t12.1,43.344c3.546,11.754,7.388,23.36,9.68,35.447a116.178,116.178,0,0,1,2.1,16.954c.182,4.539.1,9.3-1.337,13.657a15.382,15.382,0,0,1-1.066,2.5A64.015,64.015,0,0,0,44.986,213.5a36.475,36.475,0,0,0-2.041,12.106,33.662,33.662,0,0,0,.712,6.425c-5.021,2.748-7.55,8.028-9.848,13.025-2.171,4.72-4.958,9.883-10.187,11.664-2.53.862-5.548,1.411-7.243,3.647a6.578,6.578,0,0,0-7.025,1.243,5.983,5.983,0,0,0-.731,7.607,6.118,6.118,0,0,0,3.705,2.726.726.726,0,0,0,.164.018,28.025,28.025,0,0,0,7.544,9.473,27.148,27.148,0,0,0,11.065,5.58,20.778,20.778,0,0,0,6.475.461,67.031,67.031,0,0,0,18.148,11.516,57.724,57.724,0,0,0,10.243,3.283,69.18,69.18,0,0,0,11.723,1.4,108.97,108.97,0,0,0,24.584-2c7.027-1.313,14.532-2.9,20.167-7.59a22.723,22.723,0,0,0,5.808-7.508,14.459,14.459,0,0,0,1.579-8.961,8.392,8.392,0,0,0-.28-1.05c2.884-.245,5.3-2.611,6.351-5.229,1.389-3.459.834-7.378.357-10.965a89.052,89.052,0,0,0-4.686-19.715,40.5,40.5,0,0,0-4.612-9.08,43.179,43.179,0,0,0,5.017-27.216,68.947,68.947,0,0,0-3.628-13.264c-1.614-4.5-3.407-8.927-4.9-13.465a52.051,52.051,0,0,1-2.851-13.311q-.046-.839-.049-1.68.351-15.96,1.461-31.891t2.984-31.772q1.878-15.914,4.517-31.724,2.626-15.741,5.992-31.345t7.463-31.04Q143.487,2.9,144.02.935a.6.6,0,0,0-.115-.565" transform="translate(-5.104)" fill="#f2b297"/>
        <path id="Path_1033939" data-name="Path 1033939" d="M171.924,412.812c8.69,17.943,12.838,38.217,12.98,58.126a134.093,134.093,0,0,1-7.776,45.792,168.37,168.37,0,0,0,5.768-52.378,168.125,168.125,0,0,0-10.972-51.54" transform="translate(-115.483 -277.29)" fill="#c68b77"/>
        <path id="Path_1033940" data-name="Path 1033940" d="M288.326,509.867c-6.722-21.173-9.405-43.666-9.139-65.858.5-22.155,3.964-44.6,11.307-65.528a267.362,267.362,0,0,0-9.2,57.273,261.25,261.25,0,0,0,7.031,74.113" transform="translate(-187.521 -254.229)" fill="#c68b77"/>
        <path id="Path_1033941" data-name="Path 1033941" d="M473.064.37a.6.6,0,0,1,.575-.37q12.809,0,25.617.052Q512.2.1,525.142.178q12.992.074,25.982.152Q564.077.4,577.031.462q12.83.052,25.66.064h3.166a.666.666,0,0,1,.489,1.095q-3.769,22.061-8.437,43.955-4.7,22.007-10.3,43.808t-12.1,43.344c-3.546,11.754-7.389,23.36-9.68,35.447a116.163,116.163,0,0,0-2.1,16.954c-.182,4.539-.1,9.3,1.337,13.657a15.388,15.388,0,0,0,1.066,2.5,64.015,64.015,0,0,1,5.855,12.215,36.476,36.476,0,0,1,2.041,12.106,33.666,33.666,0,0,1-.712,6.425c5.021,2.748,7.55,8.028,9.848,13.025,2.171,4.72,4.958,9.883,10.187,11.664,2.53.862,5.548,1.411,7.243,3.647a6.578,6.578,0,0,1,7.025,1.243,5.983,5.983,0,0,1,.731,7.607,6.117,6.117,0,0,1-3.705,2.726.726.726,0,0,1-.164.018,28.024,28.024,0,0,1-7.544,9.473,27.148,27.148,0,0,1-11.065,5.58,20.779,20.779,0,0,1-6.475.461,67.03,67.03,0,0,1-18.148,11.516A57.725,57.725,0,0,1,551,302.275a69.179,69.179,0,0,1-11.723,1.4,108.97,108.97,0,0,1-24.584-2c-7.027-1.313-14.532-2.9-20.167-7.59a22.723,22.723,0,0,1-5.808-7.508,14.46,14.46,0,0,1-1.579-8.961,8.386,8.386,0,0,1,.28-1.05c-2.884-.245-5.3-2.611-6.351-5.229-1.389-3.459-.834-7.378-.357-10.965a89.052,89.052,0,0,1,4.686-19.715,40.5,40.5,0,0,1,4.612-9.08,43.179,43.179,0,0,1-5.017-27.216,68.947,68.947,0,0,1,3.628-13.264c1.614-4.5,3.407-8.927,4.9-13.465a52.053,52.053,0,0,0,2.851-13.311q.046-.839.049-1.68-.351-15.96-1.461-31.891t-2.984-31.772Q490.1,83.062,487.46,67.251q-2.626-15.741-5.992-31.345T474,4.866Q473.482,2.9,472.949.935a.6.6,0,0,1,.115-.565" transform="translate(-317.667)" fill="#f2b297"/>
        <path id="Path_1033942" data-name="Path 1033942" d="M697.669,412.812c-8.69,17.943-12.838,38.217-12.98,58.126a134.094,134.094,0,0,0,7.776,45.792,165.665,165.665,0,0,1,5.2-103.918" transform="translate(-459.912 -277.29)" fill="#c68b77"/>
        <path id="Path_1033943" data-name="Path 1033943" d="M584.654,509.867c6.722-21.173,9.405-43.666,9.139-65.858-.5-22.155-3.964-44.6-11.307-65.528a267.37,267.37,0,0,1,9.2,57.273,261.251,261.251,0,0,1-7.031,74.113" transform="translate(-391.261 -254.229)" fill="#c68b77"/>
        <path id="Path_1033944" data-name="Path 1033944" d="M240.875,199.572V448.725c0,3.364-.064,6.736,0,10.1,0,.147,0,.294,0,.442a1.318,1.318,0,0,0,2.634,0V210.114c0-3.364.064-6.736,0-10.1,0-.147,0-.294,0-.442a1.318,1.318,0,0,0-2.634,0" transform="translate(-161.779 -133.2)" fill="#db0505"/>
        <path id="Path_1033945" data-name="Path 1033945" d="M651.645,199.572V448.725c0,3.364-.064,6.736,0,10.1,0,.147,0,.294,0,.442a1.318,1.318,0,0,0,2.634,0V210.114c0-3.364.064-6.736,0-10.1,0-.147,0-.294,0-.442a1.318,1.318,0,0,0-2.634,0" transform="translate(-437.696 -133.2)" fill="#db0505"/>
        <path id="Path_1033946" data-name="Path 1033946" d="M42.973,683.651l-.643-3.363,3.366-.641.64,3.363Z" transform="translate(-28.433 -456.525)" fill="#c90912"/>
        <path id="Path_1033947" data-name="Path 1033947" d="M60.011,677.622l-.748-3.341,3.348-.744.743,3.343Zm5.228-1.127-.748-3.341,3.348-.744.743,3.342Z" transform="translate(-39.808 -451.663)" fill="#c90912"/>
        <path id="Path_1033948" data-name="Path 1033948" d="M94.141,624.125l-.748-3.341,3.348-.744.743,3.342ZM99.369,623l-.748-3.341,3.348-.744.743,3.342Zm5.18-1.159-.669-3.358,3.364-.664.663,3.359Zm5.276-1.1-.748-3.341,3.348-.744.743,3.343Zm5.228-1.127-.748-3.341,3.348-.744.743,3.342Zm5.223-1.131-.739-3.343,3.35-.735.734,3.344Zm5.181-1.158-.661-3.36,3.366-.657.656,3.361Zm5.275-1.1-.739-3.343,3.35-.735.734,3.344Zm5.228-1.127-.74-3.343,3.35-.735.734,3.344Zm5.228-1.128-.74-3.343,3.35-.735.734,3.344Zm5.185-1.155-.669-3.358,3.364-.664.663,3.359Zm5.276-1.1-.748-3.341,3.348-.744.743,3.342Zm5.228-1.127-.748-3.341,3.348-.744.743,3.342Zm5.228-1.128-.748-3.341,3.348-.744.743,3.343Zm5.228-1.127L166.584,605l3.348-.744.743,3.342Zm5.18-1.159-.669-3.358,3.364-.665.663,3.359Zm5.276-1.1-.748-3.341,3.348-.744.743,3.342Zm5.228-1.128-.748-3.341,3.348-.744.743,3.342Zm5.228-1.127-.748-3.341,3.348-.744.743,3.342Zm5.18-1.159-.669-3.358,3.364-.664.663,3.359Zm5.276-1.1-.748-3.341,3.348-.744.743,3.343Zm5.228-1.127-.748-3.341,3.348-.744.743,3.342Z" transform="translate(-62.733 -400.582)" fill="#c90912"/>
        <path id="Path_1033949" data-name="Path 1033949" d="M452.5,595.265l-.8-3.33,3.333-.793.793,3.331Z" transform="translate(-303.413 -397.075)" fill="#c90912"/>
        <path id="Path_1033950" data-name="Path 1033950" d="M862.81,683.651l-3.366-.641.641-3.364,3.363.641Z" transform="translate(-577.296 -456.525)" fill="#c90912"/>
        <path id="Path_1033951" data-name="Path 1033951" d="M834.908,677.623l-3.348-.744.743-3.342,3.343.743ZM829.68,676.5l-3.348-.744.743-3.343,3.343.743Z" transform="translate(-555.055 -451.663)" fill="#c90912"/>
        <path id="Path_1033952" data-name="Path 1033952" d="M586.841,624.125l-3.348-.744.743-3.343,3.343.743ZM581.613,623l-3.348-.744.743-3.342,3.343.743Zm-5.18-1.159-3.364-.664.664-3.359,3.359.664Zm-5.276-1.1L567.809,620l.743-3.342,3.342.743Zm-5.222-1.131-3.349-.735.734-3.344,3.344.734Zm-5.228-1.128-3.35-.735.734-3.344,3.344.734Zm-5.181-1.158-3.366-.657.656-3.36,3.361.656Zm-5.275-1.1-3.35-.735.734-3.344,3.344.734Zm-5.228-1.127-3.35-.735.734-3.345,3.344.734Zm-5.233-1.124-3.348-.744.743-3.342,3.342.743Zm-5.18-1.159-3.364-.664.663-3.359,3.359.663Zm-5.276-1.1-3.348-.744.743-3.343,3.343.743Zm-5.228-1.127-3.348-.744.743-3.342,3.342.743Zm-5.228-1.128-3.348-.744.743-3.342,3.342.743Zm-5.228-1.127L510.3,607.6l.743-3.343,3.342.743Zm-5.18-1.159-3.364-.664.663-3.359,3.359.664Zm-5.276-1.1-3.348-.744.743-3.342,3.343.743Zm-5.228-1.127-3.348-.744.743-3.342,3.343.743Zm-5.228-1.127-3.348-.744.743-3.343,3.342.743Zm-5.18-1.159-3.364-.664.663-3.359,3.359.663Zm-5.276-1.1-3.348-.744.743-3.342,3.342.743Zm-5.228-1.127-3.348-.744.743-3.343,3.343.743Z" transform="translate(-318.193 -400.582)" fill="#c90912"/>
        <path id="Path_1033953" data-name="Path 1033953" d="M453.04,595.266l-3.333-.794.793-3.331,3.331.793Z" transform="translate(-302.072 -397.075)" fill="#c90912"/>
        <path id="Path_1033954" data-name="Path 1033954" d="M869.26,928.509h-3.427v-3.424h3.424Z" transform="translate(-581.588 -621.388)" fill="#c90912"/>
        <path id="Path_1033955" data-name="Path 1033955" d="M835.515,928.652h-3.429v-3.424h3.424Zm5.348-.034h-3.429v-3.424h3.424Z" transform="translate(-558.92 -621.461)" fill="#c90912"/>
        <path id="Path_1033956" data-name="Path 1033956" d="M476.751,929.545l-.083-3.423,3.423-.083.088,3.423Zm-1.961-.007h-3.429v-3.424h3.424Zm7.308-.026-.082-3.423,3.423-.083.088,3.423Zm5.348-.033-.083-3.423,3.423-.083.088,3.423Zm5.348-.034-.082-3.423,3.423-.082.088,3.423Zm5.348-.033-.082-3.423,3.423-.082.088,3.423Zm5.348-.033-.083-3.423,3.423-.082.088,3.423Zm5.348-.034-.082-3.423,3.423-.083.088,3.423Zm8.736-.074h-3.429v-3.424h3.424Zm5.348-.033h-3.429v-3.424h3.424Zm5.348-.034h-3.429V925.78h3.424Zm5.348-.033h-3.429v-3.424h3.424Zm5.348-.034h-3.429v-3.424h3.424Zm5.348-.034h-3.429v-3.424h3.424Zm5.348-.033h-3.429v-3.424h3.424Zm5.348-.034h-3.429v-3.424h3.424Zm5.348-.034H556.93v-3.424h3.424Zm5.348-.033h-3.429v-3.424H565.7Zm5.348-.033h-3.429v-3.424h3.424Zm5.348-.034h-3.429v-3.424H576.4Zm5.348-.034h-3.429v-3.424h3.424Zm5.348-.033H583.67v-3.424h3.424Z" transform="translate(-316.618 -621.608)" fill="#c90912"/>
        <path id="Path_1033957" data-name="Path 1033957" d="M450.3,931.128h-3.427V927.7H450.3Z" transform="translate(-300.167 -623.147)" fill="#c90912"/>
        <path id="Path_1033958" data-name="Path 1033958" d="M422.389,928.509h-3.427v-3.424h3.424Z" transform="translate(-281.421 -621.388)" fill="#c90912"/>
        <path id="Path_1033959" data-name="Path 1033959" d="M388.644,928.652h-3.429v-3.424h3.424Zm5.348-.034h-3.429v-3.424h3.424Z" transform="translate(-258.752 -621.461)" fill="#c90912"/>
        <path id="Path_1033960" data-name="Path 1033960" d="M29.88,929.545l-.083-3.423,3.423-.083.088,3.423Zm-1.961-.007H24.49v-3.424h3.424Zm7.308-.026-.082-3.423,3.423-.083.088,3.423Zm5.348-.033-.083-3.423,3.423-.083L44,929.4Zm5.348-.034-.082-3.423,3.423-.082.088,3.423Zm5.348-.033-.082-3.423,3.423-.082.088,3.423Zm5.348-.033-.083-3.423,3.423-.082.088,3.423Zm5.348-.034-.082-3.423,3.423-.083.088,3.423Zm8.735-.074H67.274v-3.424H70.7Zm5.348-.033H72.622v-3.424h3.424ZM81.4,929.2H77.971V925.78h3.424Zm5.348-.033H83.318v-3.424h3.424Zm5.348-.034H88.667v-3.424H92.09Zm5.348-.034H94.014v-3.424h3.424Zm5.348-.033H99.363v-3.424h3.424Zm5.348-.034h-3.429v-3.424h3.424Zm5.348-.034h-3.429v-3.424h3.424Zm5.348-.033h-3.429v-3.424h3.424Zm5.348-.033h-3.429v-3.424h3.424Zm5.348-.034H126.1v-3.424h3.424Zm5.348-.034h-3.429v-3.424h3.424Zm5.348-.033H136.8v-3.424h3.424Z" transform="translate(-16.45 -621.608)" fill="#c90912"/>
        <path id="Path_1033961" data-name="Path 1033961" d="M3.427,931.128H0V927.7H3.424Z" transform="translate(0 -623.147)" fill="#c90912"/>
      </g>
    </g>
  </g>
</svg>
