<svg xmlns="http://www.w3.org/2000/svg" width="404" height="404" viewBox="0 0 404 404">
  <g id="Group_1178923" data-name="Group 1178923" transform="translate(978 8822)">
    <circle id="Ellipse_11676" data-name="Ellipse 11676" cx="202" cy="202" r="202" transform="translate(-978 -8822)" fill="#d8cabd"/>
    <path id="Path_1034777" data-name="Path 1034777" d="M308.417,109.809c.458,1.385,1.4,2.838,3.047,2.741a3.71,3.71,0,0,0,1.172-.274c3.281-1.209,6.693-2.028,9.949-3.31a9.383,9.383,0,0,0,3.942-2.528,8.932,8.932,0,0,0,1.762-3.9,29.119,29.119,0,0,0,.48-4.466,24.856,24.856,0,0,0-.108-4.935,9.273,9.273,0,0,0-1.6-4.165,8.435,8.435,0,0,0-2.768-2.4,10.538,10.538,0,0,0-7.35-.943,11.219,11.219,0,0,0-6.474,4.613,15.421,15.421,0,0,0-2.679,7.94c-.11,1.916-.157,3.848-.121,5.766a19.966,19.966,0,0,0,.747,5.864" transform="translate(-1066.479 -8819.458)" fill="#2f5235"/>
    <path id="Path_1034778" data-name="Path 1034778" d="M352.55,101.815a.355.355,0,0,0,.047.118c0,.014,0,.026,0,.041.211.968.386,1.944.611,2.909a8.824,8.824,0,0,0,.746,2.156,5.642,5.642,0,0,0,3.714,2.754,8.807,8.807,0,0,0,5.425-.473,5.2,5.2,0,0,0,2.111-1.654,8.444,8.444,0,0,0,1.287-2.9c.319-1.171.574-2.367.81-3.558a23.884,23.884,0,0,0,.5-3.936,11.113,11.113,0,0,0-1.534-6.282,6.95,6.95,0,0,0-4.7-3.253,8.362,8.362,0,0,0-9.153,5.728,15.075,15.075,0,0,0-.144,6.658c.084.567.18,1.131.28,1.694" transform="translate(-1084.696 -8820.4)" fill="#2f5235"/>
    <path id="Path_1034779" data-name="Path 1034779" d="M388.973,116.7c2.867,1.2,6.61.093,7.912-2.844a9.77,9.77,0,0,0,.7-2.77,28.942,28.942,0,0,0,.219-2.917,13.34,13.34,0,0,0-.973-5.794,7.606,7.606,0,0,0-3.38-3.632,5.468,5.468,0,0,0-4.816-.181,7.1,7.1,0,0,0-3.347,3.5,14.157,14.157,0,0,0-1.069,5.773c-.008.489-.006.977,0,1.466a.556.556,0,0,0-.011.072,7.228,7.228,0,0,0,1.286,4.575,8.144,8.144,0,0,0,3.482,2.751" transform="translate(-1097.944 -8824.694)" fill="#2f5235"/>
    <path id="Path_1034780" data-name="Path 1034780" d="M413.4,130.547a5.77,5.77,0,0,0,3.943.511,4.86,4.86,0,0,0,3.224-2.408,8.938,8.938,0,0,0,.8-2.253q.3-1.276.474-2.578a10.721,10.721,0,0,0-.372-5.106c-.978-2.642-3.775-4.848-6.676-3.827a6.353,6.353,0,0,0-3.261,2.8,12.527,12.527,0,0,0-1.422,4.8c-.049.371-.092.743-.133,1.114a.25.25,0,0,0-.011.035,6.38,6.38,0,0,0,.662,4.2,6.955,6.955,0,0,0,2.768,2.711" transform="translate(-1108.496 -8831.497)" fill="#2f5235"/>
    <path id="Path_1034781" data-name="Path 1034781" d="M442.833,143.667a6.46,6.46,0,0,0-2.509-3.272,4.088,4.088,0,0,0-3.878-.35,6.045,6.045,0,0,0-2.866,2.937,13.5,13.5,0,0,0-1.129,4.884c-.032.4-.058.8-.082,1.2a.608.608,0,0,0-.013.073,6.662,6.662,0,0,0,.8,4.064,6.52,6.52,0,0,0,2.616,2.523,4.934,4.934,0,0,0,3.694.313,4.673,4.673,0,0,0,2.9-2.651,9.933,9.933,0,0,0,.632-2.31c.139-.832.252-1.67.32-2.51a11.793,11.793,0,0,0-.487-4.9" transform="translate(-1117.724 -8841.807)" fill="#2f5235"/>
    <path id="Path_1034782" data-name="Path 1034782" d="M380.811,156.381a43.483,43.483,0,0,0-10.965-11.447,54.908,54.908,0,0,0-14.053-7.533,55.957,55.957,0,0,0-15.692-3.258,52.1,52.1,0,0,0-15.969,1.47c-8.014,2.041-15.542,4.4-17.735,13.369-.96,3.925-.774,8.027-.581,12.062.622,13.029,1.835,25.977,1.083,38.961q-.9,15.5-1.8,31.007c-1.1,18.911,4.509,37.327,9.55,55.323,3.817,13.631,4.33,38.08,18.882,45.194a20.115,20.115,0,0,0,18.636-.686c9.03-5.27,12.413-16.616,13.448-27.02,1.369-13.758,2.909-27.722,6-41.211,3.261-14.213,8.206-27.967,11.827-42.084,4.987-19.445,8.76-46.087-2.638-64.149" transform="translate(-1065.372 -8839.478)" fill="#2f5235"/>
    <path id="Path_1034783" data-name="Path 1034783" d="M234.869,109.809c-.458,1.385-1.4,2.838-3.047,2.741a3.71,3.71,0,0,1-1.172-.274c-3.281-1.209-6.693-2.028-9.949-3.31a9.383,9.383,0,0,1-3.942-2.528,8.932,8.932,0,0,1-1.762-3.9,29.119,29.119,0,0,1-.48-4.466,24.856,24.856,0,0,1,.108-4.935,9.272,9.272,0,0,1,1.6-4.165,8.435,8.435,0,0,1,2.768-2.4,10.538,10.538,0,0,1,7.35-.943,11.219,11.219,0,0,1,6.474,4.613,15.421,15.421,0,0,1,2.679,7.94c.11,1.916.157,3.848.121,5.766a19.965,19.965,0,0,1-.747,5.864" transform="translate(-1028.159 -8819.458)" fill="#2f5235"/>
    <path id="Path_1034784" data-name="Path 1034784" d="M194.466,101.815a.355.355,0,0,1-.047.118c0,.014,0,.026,0,.041-.211.968-.386,1.944-.611,2.909a8.823,8.823,0,0,1-.746,2.156,5.642,5.642,0,0,1-3.715,2.754,8.805,8.805,0,0,1-5.424-.473,5.2,5.2,0,0,1-2.111-1.654,8.443,8.443,0,0,1-1.287-2.9c-.319-1.171-.574-2.367-.81-3.558a23.882,23.882,0,0,1-.5-3.936,11.113,11.113,0,0,1,1.534-6.282,6.95,6.95,0,0,1,4.7-3.253,8.362,8.362,0,0,1,9.153,5.728,15.075,15.075,0,0,1,.144,6.658c-.084.567-.18,1.131-.28,1.694" transform="translate(-1013.673 -8820.4)" fill="#2f5235"/>
    <path id="Path_1034785" data-name="Path 1034785" d="M159.594,116.7c-2.867,1.2-6.61.093-7.912-2.844a9.77,9.77,0,0,1-.7-2.77,28.955,28.955,0,0,1-.219-2.917,13.34,13.34,0,0,1,.973-5.794,7.606,7.606,0,0,1,3.38-3.632,5.467,5.467,0,0,1,4.816-.181,7.1,7.1,0,0,1,3.347,3.5,14.157,14.157,0,0,1,1.069,5.773c.008.489.006.977,0,1.466a.548.548,0,0,1,.011.072,7.228,7.228,0,0,1-1.286,4.575,8.144,8.144,0,0,1-3.482,2.751" transform="translate(-1001.976 -8824.694)" fill="#2f5235"/>
    <path id="Path_1034786" data-name="Path 1034786" d="M136.217,130.547a5.77,5.77,0,0,1-3.943.511,4.86,4.86,0,0,1-3.224-2.408,8.938,8.938,0,0,1-.8-2.253q-.3-1.276-.474-2.578a10.72,10.72,0,0,1,.372-5.106c.978-2.642,3.775-4.848,6.676-3.827a6.353,6.353,0,0,1,3.261,2.8,12.527,12.527,0,0,1,1.422,4.8c.049.371.092.743.133,1.114a.246.246,0,0,1,.011.035,6.38,6.38,0,0,1-.663,4.2,6.955,6.955,0,0,1-2.768,2.711" transform="translate(-992.47 -8831.497)" fill="#2f5235"/>
    <path id="Path_1034787" data-name="Path 1034787" d="M107.513,143.667a6.46,6.46,0,0,1,2.509-3.272,4.088,4.088,0,0,1,3.878-.35,6.045,6.045,0,0,1,2.866,2.937,13.5,13.5,0,0,1,1.129,4.884c.032.4.058.8.082,1.2a.608.608,0,0,1,.013.073,6.659,6.659,0,0,1-.8,4.064,6.515,6.515,0,0,1-2.615,2.523,4.934,4.934,0,0,1-3.694.313,4.673,4.673,0,0,1-2.9-2.651,9.931,9.931,0,0,1-.632-2.31c-.139-.832-.252-1.67-.32-2.51a11.783,11.783,0,0,1,.487-4.9" transform="translate(-983.975 -8841.807)" fill="#2f5235"/>
    <path id="Path_1034788" data-name="Path 1034788" d="M119.1,156.381a43.483,43.483,0,0,1,10.965-11.447,54.907,54.907,0,0,1,14.053-7.533,55.956,55.956,0,0,1,15.692-3.258,52.1,52.1,0,0,1,15.969,1.47c8.014,2.041,15.542,4.4,17.735,13.369.96,3.925.773,8.027.58,12.062-.622,13.029-1.834,25.977-1.082,38.961q.9,15.5,1.8,31.007c1.1,18.911-4.509,37.327-9.55,55.323-3.817,13.631-4.33,38.08-18.882,45.194a20.115,20.115,0,0,1-18.636-.686c-9.03-5.27-12.413-16.616-13.448-27.02-1.369-13.758-2.909-27.722-6-41.211-3.261-14.213-8.206-27.967-11.827-42.084-4.987-19.445-8.76-46.087,2.638-64.149" transform="translate(-985.89 -8839.478)" fill="#2f5235"/>
  </g>
</svg>
