<svg xmlns="http://www.w3.org/2000/svg" xmlns:xlink="http://www.w3.org/1999/xlink" width="118" height="118" viewBox="0 0 118 118">
  <defs>
    <filter id="Path_896985" x="0" y="0" width="118" height="118" filterUnits="userSpaceOnUse">
      <feOffset dy="3" input="SourceAlpha"/>
      <feGaussianBlur stdDeviation="3" result="blur"/>
      <feFlood flood-opacity="0.161"/>
      <feComposite operator="in" in2="blur"/>
      <feComposite in="SourceGraphic"/>
    </filter>
  </defs>
  <g id="Group_1178828" data-name="Group 1178828" transform="translate(-743 -505.812)">
    <g id="Group_1178733" data-name="Group 1178733" transform="translate(8.615 -3337.188)">
      <g id="Group_1111319" data-name="Group 1111319" transform="translate(-12.391 -3)">
        <g id="Group_1109827" data-name="Group 1109827" transform="translate(755.775 3852)">
          <g id="Group_1098742" data-name="Group 1098742">
            <g transform="matrix(1, 0, 0, 1, -9, -6)" filter="url(#Path_896985)">
              <g id="Path_896985-2" data-name="Path 896985" transform="translate(9 6)" fill="#2f5235" opacity="0.859">
                <path d="M 49.99993896484375 98.5 C 43.45182418823242 98.5 37.10037994384766 97.21788787841797 31.12203979492188 94.68926239013672 C 25.34688186645508 92.24657440185547 20.15993881225586 88.74932861328125 15.70529651641846 84.29470062255859 C 11.25066757202148 79.84007263183594 7.753438949584961 74.65312957763672 5.310753345489502 68.87797546386719 C 2.782124757766724 62.89963150024414 1.499996066093445 56.54819107055664 1.499996066093445 50.00007629394531 C 1.499996066093445 43.45181655883789 2.782124757766724 37.10037612915039 5.310753345489502 31.12203216552734 C 7.753438949584961 25.34687614440918 11.25066757202148 20.15993309020996 15.70529651641846 15.70530414581299 C 20.15993881225586 11.25067520141602 25.34688186645508 7.753432273864746 31.12203979492188 5.310746669769287 C 37.10037994384766 2.782118082046509 43.45182418823242 1.500003814697266 49.99993896484375 1.500003814697266 C 56.54805374145508 1.500003814697266 62.89949798583984 2.782118082046509 68.87785339355469 5.310746669769287 C 74.65300750732422 7.753432273864746 79.83995056152344 11.25067520141602 84.29457855224609 15.70530414581299 C 88.74921417236328 20.15993309020996 92.24645233154297 25.34687614440918 94.68914031982422 31.12203216552734 C 97.21776580810547 37.10037612915039 98.49988555908203 43.45181655883789 98.49988555908203 49.99993133544922 C 98.49988555908203 56.54819107055664 97.21776580810547 62.89963150024414 94.68914031982422 68.87797546386719 C 92.24645233154297 74.65312957763672 88.74921417236328 79.84007263183594 84.29457855224609 84.29470062255859 C 79.83995056152344 88.74932861328125 74.65300750732422 92.24657440185547 68.87785339355469 94.68926239013672 C 62.89949798583984 97.21788787841797 56.54805374145508 98.5 49.99993896484375 98.5 Z" stroke="none"/>
                <path d="M 49.99993896484375 3.000007629394531 C 43.65366363525391 3.000007629394531 37.49881744384766 4.242263793945312 31.70636749267578 6.692268371582031 C 26.11000061035156 9.059326171875 21.08332061767578 12.44860076904297 16.76596832275391 16.76596069335938 C 12.44860076904297 21.08332824707031 9.059326171875 26.11000061035156 6.6922607421875 31.70635986328125 C 4.242263793945312 37.49881744384766 3 43.65366363525391 3 50.00006484985352 C 3 56.34634399414062 4.242263793945312 62.50119018554688 6.6922607421875 68.29363250732422 C 9.059326171875 73.88999938964844 12.44860076904297 78.91667938232422 16.76596832275391 83.23403930664062 C 21.08332061767578 87.55140686035156 26.11000061035156 90.94068145751953 31.70636749267578 93.3077392578125 C 37.49881744384766 95.75774383544922 43.65366363525391 97 49.99993896484375 97 C 56.34621429443359 97 62.50106048583984 95.75774383544922 68.29352569580078 93.3077392578125 C 73.88987731933594 90.94068145751953 78.91654968261719 87.55140686035156 83.23392486572266 83.23403930664062 C 87.55127716064453 78.91667938232422 90.9405517578125 73.88999938964844 93.3076171875 68.29363250732422 C 95.75761413574219 62.50119018554688 96.9998779296875 56.34634399414062 96.9998779296875 49.99994277954102 C 96.9998779296875 43.65366363525391 95.75761413574219 37.49881744384766 93.3076171875 31.70635986328125 C 90.94056701660156 26.11000061035156 87.55127716064453 21.08332824707031 83.23392486572266 16.76596069335938 C 78.91654968261719 12.44860076904297 73.88987731933594 9.059310913085938 68.29352569580078 6.692268371582031 C 62.50106048583984 4.242263793945312 56.34621429443359 3.000007629394531 49.99993896484375 3.000007629394531 M 49.99993896484375 7.62939453125e-06 C 77.61415100097656 7.62939453125e-06 99.9998779296875 22.38572692871094 99.9998779296875 49.99994277954102 L 99.9998779296875 50.00006484985352 C 99.9998779296875 77.61426544189453 77.61415100097656 100 49.99993896484375 100 C 22.3857421875 100 0 77.61426544189453 0 50.00006484985352 L 0 49.99994277954102 C 0 22.38572692871094 22.3857421875 7.62939453125e-06 49.99993896484375 7.62939453125e-06 Z" stroke="none" fill="#fff"/>
              </g>
            </g>
            <g id="Rectangle_400907" data-name="Rectangle 400907" transform="translate(0 0)" fill="none" stroke="#fff" stroke-width="3">
              <rect width="100" height="100" rx="50" stroke="none"/>
              <rect x="1.5" y="1.5" width="97" height="97" rx="48.5" fill="none"/>
            </g>
          </g>
        </g>
      </g>
    </g>
    <g id="design_8584588" transform="translate(749.448 523.237)">
      <g id="Group_1178817" data-name="Group 1178817" transform="translate(27.801 7.5)">
        <path id="Path_1034650" data-name="Path 1034650" d="M75.08,9.837V59.014L64.447,69.648H30.139A2.337,2.337,0,0,1,27.8,67.311V9.837A2.337,2.337,0,0,1,30.139,7.5h42.6A2.337,2.337,0,0,1,75.08,9.837Z" transform="translate(-27.802 -7.5)" fill="#fcf1f2"/>
        <path id="Path_1034651" data-name="Path 1034651" d="M302.862,7.5H299.1a2.337,2.337,0,0,1,2.337,2.337V59.014L290.809,69.648h3.757L305.2,59.014V9.837A2.337,2.337,0,0,0,302.862,7.5Z" transform="translate(-257.921 -7.5)" fill="#f4e5e0"/>
        <g id="Group_1178815" data-name="Group 1178815" transform="translate(29.152 0.559)">
          <path id="Path_1034652" data-name="Path 1034652" d="M285.886,39.4,266.192,59.091l-5.258,1.558,1.559-5.257L282.187,35.7Z" transform="translate(-260.934 -32.731)" fill="#6c7fd8"/>
          <path id="Path_1034653" data-name="Path 1034653" d="M266.192,196.89l-5.258,1.558,1.559-5.257A4.13,4.13,0,0,1,266.192,196.89Z" transform="translate(-260.934 -170.53)" fill="#fdd79b"/>
          <path id="Path_1034654" data-name="Path 1034654" d="M266.192,196.89l-5.258,1.558,1.559-5.257A4.13,4.13,0,0,1,266.192,196.89Z" transform="translate(-260.934 -170.53)" fill="#fdd79b"/>
          <path id="Path_1034655" data-name="Path 1034655" d="M430.894,14.939l3.7,3.7,2.536-2.536a1.473,1.473,0,0,0,0-2.083L435.512,12.4a1.473,1.473,0,0,0-2.083,0Z" transform="translate(-409.641 -11.972)" fill="#fe646f"/>
          <path id="Path_1034656" data-name="Path 1034656" d="M449.466,14.019,447.85,12.4a1.473,1.473,0,0,0-2.083,0l-.772.772.774.719a1.473,1.473,0,0,1,0,2.083l-.748.752,1.909,1.909,2.535-2.536A1.473,1.473,0,0,0,449.466,14.019Z" transform="translate(-421.979 -11.972)" fill="#fd4755"/>
          <path id="Path_1034657" data-name="Path 1034657" d="M283.977,50.01,260.934,73.171l5.258-1.558,19.694-19.694Z" transform="translate(-260.934 -45.253)" fill="#4f66d0"/>
          <path id="Path_1034658" data-name="Path 1034658" d="M266.192,196.89l-5.258,1.558,1.559-5.257A4.13,4.13,0,0,1,266.192,196.89Z" transform="translate(-260.934 -170.53)" fill="#fdd79b"/>
          <path id="Path_1034659" data-name="Path 1034659" d="M260.934,206.637l5.258-1.558A4.223,4.223,0,0,0,265,202.551Z" transform="translate(-260.934 -178.72)" fill="#fbc56d"/>
        </g>
        <path id="Path_1034660" data-name="Path 1034660" d="M320.852,430.094v-8.3a2.337,2.337,0,0,1,2.337-2.337h8.3Z" transform="translate(-284.207 -367.946)" fill="#cdbfba"/>
        <g id="Group_1178816" data-name="Group 1178816" transform="translate(11.226 23.62)">
          <path id="Path_1034661" data-name="Path 1034661" d="M117.579,198.559v9.081h25.6v-1.287c0-2.386-3.1-5.058-6.428-5.058-4.248,0-8.056-1.808-9.775-4.067a2.155,2.155,0,0,0-1.718-.842h-5.5A2.174,2.174,0,0,0,117.579,198.559Z" transform="translate(-117.579 -196.385)" fill="#cdbfba"/>
          <path id="Path_1034662" data-name="Path 1034662" d="M117.579,286.391h25.6v2.477A1.178,1.178,0,0,1,142,290.045H118.757a1.178,1.178,0,0,1-1.178-1.178Z" transform="translate(-117.579 -275.136)" fill="#e6d6d1"/>
        </g>
      </g>
      <g id="Group_1178827" data-name="Group 1178827" transform="translate(27.801 7.5)">
        <g id="Group_1178818" data-name="Group 1178818" transform="translate(29.153 0.559)">
          <path id="Path_1034663" data-name="Path 1034663" d="M279.059,46.223,266.192,59.091l-5.258,1.558,1.559-5.257L282.187,35.7l3.7,3.7-3.714,3.714" transform="translate(-260.934 -32.731)" fill="none" stroke="#000" stroke-linecap="round" stroke-linejoin="round" stroke-miterlimit="10" stroke-width="1"/>
          <path id="Path_1034664" data-name="Path 1034664" d="M266.192,196.89l-5.258,1.558,1.559-5.257A4.13,4.13,0,0,1,266.192,196.89Z" transform="translate(-260.934 -170.53)" fill="none" stroke="#000" stroke-linecap="round" stroke-linejoin="round" stroke-miterlimit="10" stroke-width="1"/>
          <path id="Path_1034665" data-name="Path 1034665" d="M430.894,14.939l3.7,3.7,2.536-2.536a1.473,1.473,0,0,0,0-2.083L435.512,12.4a1.473,1.473,0,0,0-2.083,0Z" transform="translate(-409.641 -11.972)" fill="none" stroke="#000" stroke-linecap="round" stroke-linejoin="round" stroke-miterlimit="10" stroke-width="1"/>
        </g>
        <line id="Line_654" data-name="Line 654" y2="3.655" transform="translate(18.292 34.875)" fill="none" stroke="#000" stroke-linecap="round" stroke-linejoin="round" stroke-miterlimit="10" stroke-width="1"/>
        <line id="Line_655" data-name="Line 655" x1="1.916" y2="2.468" transform="translate(21.281 26.65)" fill="none" stroke="#000" stroke-linecap="round" stroke-linejoin="round" stroke-miterlimit="10" stroke-width="1"/>
        <line id="Line_656" data-name="Line 656" x1="1.991" y2="2.413" transform="translate(24.964 28.13)" fill="none" stroke="#000" stroke-linecap="round" stroke-linejoin="round" stroke-miterlimit="10" stroke-width="1"/>
        <g id="Group_1178821" data-name="Group 1178821" transform="translate(4.918 41.348)">
          <g id="Group_1178819" data-name="Group 1178819">
            <line id="Line_657" data-name="Line 657" y2="5.749" transform="translate(1.624)" fill="none" stroke="#000" stroke-linecap="round" stroke-linejoin="round" stroke-miterlimit="10" stroke-width="1"/>
            <line id="Line_658" data-name="Line 658" x1="5.749" transform="translate(0 4.125)" fill="none" stroke="#000" stroke-linecap="round" stroke-linejoin="round" stroke-miterlimit="10" stroke-width="1"/>
          </g>
          <g id="Group_1178820" data-name="Group 1178820" transform="translate(31.693)">
            <line id="Line_659" data-name="Line 659" y2="5.749" transform="translate(4.125)" fill="none" stroke="#000" stroke-linecap="round" stroke-linejoin="round" stroke-miterlimit="10" stroke-width="1"/>
            <line id="Line_660" data-name="Line 660" x2="5.749" transform="translate(0 4.125)" fill="none" stroke="#000" stroke-linecap="round" stroke-linejoin="round" stroke-miterlimit="10" stroke-width="1"/>
          </g>
        </g>
        <g id="Group_1178823" data-name="Group 1178823" transform="translate(4.918 15.051)">
          <g id="Group_1178822" data-name="Group 1178822" transform="translate(0 0)">
            <line id="Line_661" data-name="Line 661" y1="5.749" transform="translate(1.624)" fill="none" stroke="#000" stroke-linecap="round" stroke-linejoin="round" stroke-miterlimit="10" stroke-width="1"/>
            <line id="Line_662" data-name="Line 662" x1="5.749" transform="translate(0 1.624)" fill="none" stroke="#000" stroke-linecap="round" stroke-linejoin="round" stroke-miterlimit="10" stroke-width="1"/>
          </g>
        </g>
        <g id="Group_1178825" data-name="Group 1178825" transform="translate(10.667 16.675)">
          <g id="Group_1178824" data-name="Group 1178824">
            <line id="Line_663" data-name="Line 663" x2="1.501" fill="none" stroke="#000" stroke-linecap="round" stroke-linejoin="round" stroke-width="1"/>
            <line id="Line_664" data-name="Line 664" x2="17.692" transform="translate(5.432)" fill="none" stroke="#000" stroke-linecap="round" stroke-linejoin="round" stroke-width="1" stroke-dasharray="20.96 31.44"/>
            <line id="Line_665" data-name="Line 665" x2="1.501" transform="translate(25.089)" fill="none" stroke="#000" stroke-linecap="round" stroke-linejoin="round" stroke-width="1"/>
          </g>
        </g>
        <path id="Path_1034666" data-name="Path 1034666" d="M27.8,58.065V9.837A2.337,2.337,0,0,1,30.138,7.5h42.6a2.337,2.337,0,0,1,2.337,2.337v4.317" transform="translate(-27.801 -7.5)" fill="none" stroke="#000" stroke-linecap="round" stroke-linejoin="round" stroke-miterlimit="10" stroke-width="1"/>
        <path id="Path_1034667" data-name="Path 1034667" d="M75.079,119.87v37.463L64.446,167.967H30.138A2.337,2.337,0,0,1,27.8,165.63v-4.848" transform="translate(-27.801 -105.818)" fill="none" stroke="#000" stroke-linecap="round" stroke-linejoin="round" stroke-miterlimit="10" stroke-width="1"/>
        <path id="Path_1034668" data-name="Path 1034668" d="M320.852,430.094v-8.3a2.337,2.337,0,0,1,2.337-2.337h8.3Z" transform="translate(-284.207 -367.946)" fill="none" stroke="#000" stroke-linecap="round" stroke-linejoin="round" stroke-miterlimit="10" stroke-width="1"/>
        <line id="Line_666" data-name="Line 666" transform="translate(23.196 45.474)" fill="none" stroke="#000" stroke-linecap="round" stroke-linejoin="round" stroke-miterlimit="10" stroke-width="1"/>
        <g id="Group_1178826" data-name="Group 1178826" transform="translate(11.226 23.62)">
          <path id="Path_1034669" data-name="Path 1034669" d="M117.579,198.559v9.081h25.6v-1.287c0-2.386-3.1-5.058-6.428-5.058-4.248,0-8.056-1.808-9.775-4.067a2.155,2.155,0,0,0-1.718-.842h-5.5A2.174,2.174,0,0,0,117.579,198.559Z" transform="translate(-117.579 -196.385)" fill="none" stroke="#000" stroke-linecap="round" stroke-linejoin="round" stroke-miterlimit="10" stroke-width="1"/>
          <path id="Path_1034670" data-name="Path 1034670" d="M117.579,286.391h25.6v2.477A1.178,1.178,0,0,1,142,290.045H118.757a1.178,1.178,0,0,1-1.178-1.178Z" transform="translate(-117.579 -275.136)" fill="none" stroke="#000" stroke-linecap="round" stroke-linejoin="round" stroke-miterlimit="10" stroke-width="1"/>
        </g>
      </g>
    </g>
  </g>
</svg>
