<svg xmlns="http://www.w3.org/2000/svg" xmlns:xlink="http://www.w3.org/1999/xlink" width="404" height="404" viewBox="0 0 404 404">
  <defs>
    <clipPath id="clip-path">
      <rect id="Rectangle_405106" data-name="Rectangle 405106" width="338.018" height="338.018" fill="#2f5235"/>
    </clipPath>
  </defs>
  <g id="Group_1178921" data-name="Group 1178921" transform="translate(-282.051 -2729)">
    <circle id="Ellipse_11675" data-name="Ellipse 11675" cx="202" cy="202" r="202" transform="translate(282.051 2729)" fill="#d8cabd"/>
    <g id="Group_1178708" data-name="Group 1178708" transform="translate(9785.051 5167.58)">
      <g id="Group_1177601" data-name="Group 1177601" transform="translate(-9467.092 -2405.091)">
        <g id="Group_1177600" data-name="Group 1177600" transform="translate(0 -0.001)" clip-path="url(#clip-path)">
          <path id="Path_1033898" data-name="Path 1033898" d="M225.212,112.529c-.705,1.76-2.044,3.569-4.172,3.311a4.85,4.85,0,0,1-1.5-.449c-4.159-1.832-8.518-3.168-12.639-5.093a12.19,12.19,0,0,1-4.91-3.595,11.609,11.609,0,0,1-1.972-5.2,37.81,37.81,0,0,1-.264-5.832,32.246,32.246,0,0,1,.537-6.392A12.038,12.038,0,0,1,202.7,84a10.958,10.958,0,0,1,3.784-2.893,13.691,13.691,0,0,1,9.609-.632,14.58,14.58,0,0,1,8.027,6.5,20.044,20.044,0,0,1,2.837,10.514c-.011,2.494-.105,5-.306,7.49a25.95,25.95,0,0,1-1.44,7.545" transform="translate(-78.764 -31.503)" fill="#2f5235"/>
          <path id="Path_1033899" data-name="Path 1033899" d="M181.595,107.162a.386.386,0,0,1-.044.13c0,.015,0,.029,0,.045-.174,1.061-.309,2.13-.5,3.189a9.605,9.605,0,0,1-.686,2.379,6.128,6.128,0,0,1-3.873,3.2,9.565,9.565,0,0,1-5.91-.207,5.656,5.656,0,0,1-2.382-1.675,9.189,9.189,0,0,1-1.56-3.074c-.411-1.253-.755-2.535-1.078-3.812a25.924,25.924,0,0,1-.762-4.24,12.07,12.07,0,0,1,1.309-6.9,7.548,7.548,0,0,1,4.915-3.793,9.08,9.08,0,0,1,10.248,5.7,16.384,16.384,0,0,1,.532,7.212c-.059.618-.132,1.236-.208,1.853" transform="translate(-64.962 -36.362)" fill="#2f5235"/>
          <path id="Path_1033900" data-name="Path 1033900" d="M151.342,128.1c-2.955,1.626-7.125.874-8.874-2.144a10.614,10.614,0,0,1-1.08-2.908,31.766,31.766,0,0,1-.578-3.124,14.49,14.49,0,0,1,.374-6.368,8.255,8.255,0,0,1,3.223-4.317,5.94,5.94,0,0,1,5.179-.759,7.717,7.717,0,0,1,4.022,3.389,15.371,15.371,0,0,1,1.83,6.107c.066.526.121,1.054.174,1.582a.567.567,0,0,1,.021.077,7.848,7.848,0,0,1-.853,5.089,8.838,8.838,0,0,1-3.437,3.377" transform="translate(-55.452 -42.661)" fill="#2f5235"/>
          <path id="Path_1033901" data-name="Path 1033901" d="M129.6,146.985a6.264,6.264,0,0,1-4.312.214,5.277,5.277,0,0,1-3.283-2.884,9.7,9.7,0,0,1-.676-2.508c-.143-.938-.242-1.884-.291-2.832a11.637,11.637,0,0,1,.843-5.495c1.286-2.775,4.5-4.922,7.556-3.567a6.9,6.9,0,0,1,3.289,3.312,13.6,13.6,0,0,1,1.127,5.317c.021.406.036.811.048,1.217,0,.013.008.025.009.039a6.933,6.933,0,0,1-1.079,4.491,7.549,7.549,0,0,1-3.23,2.7" transform="translate(-47.718 -51.062)" fill="#2f5235"/>
          <path id="Path_1033902" data-name="Path 1033902" d="M106.33,156.128a7.019,7.019,0,0,1,2.785-3.506,4.439,4.439,0,0,1,4.217-.308,6.568,6.568,0,0,1,3.056,3.242,14.658,14.658,0,0,1,1.134,5.324c.028.435.048.87.067,1.306a.685.685,0,0,1,.013.08,7.233,7.233,0,0,1-.942,4.4,7.077,7.077,0,0,1-2.887,2.69,5.357,5.357,0,0,1-4.016.271,5.079,5.079,0,0,1-3.1-2.932,10.784,10.784,0,0,1-.643-2.52c-.136-.9-.242-1.818-.3-2.731a12.792,12.792,0,0,1,.62-5.314" transform="translate(-41.667 -59.904)" fill="#2f5235"/>
          <path id="Path_1033903" data-name="Path 1033903" d="M190.657,299.717c-2.348-3.36-5.1-6.4-7.762-9.514-1.326-1.551-2.629-3.122-3.849-4.759a.525.525,0,0,1-.094-.123c-4.458-5.429-9.081-10.719-13.58-16.113-2.279-2.733-4.531-5.491-6.709-8.305-2.119-2.74-4.119-5.56-6.107-8.4-3.9-5.563-7.744-11.26-10.07-17.693a57.146,57.146,0,0,1-2.506-9.727,60.873,60.873,0,0,1-.937-9.919c-.036-6.128,2.67-12.3,6.574-16.935q.755-.9,1.584-1.728a26.148,26.148,0,0,1,5.821-4.4,29.82,29.82,0,0,1,9.492-3.184,61.584,61.584,0,0,1,10-.714,59.254,59.254,0,0,0,9.358-.6c6.363-1.043,12.8-3.95,15.821-9.976a19.713,19.713,0,0,0-.721-18.261c-3.211-5.708-8.8-9.778-14.879-11.991-7.03-2.56-14.77-2.835-22.153-2.132a65.354,65.354,0,0,0-19.561,4.888,50.372,50.372,0,0,0-16.507,11.216,43.581,43.581,0,0,0-9.987,16.7,40.96,40.96,0,0,0-1.514,19.287,37.721,37.721,0,0,0,1.1,4.712c2.374,8.663,4.613,17.364,6.634,26.117,2.068,8.958,3.912,17.971,5.414,27.042,1.471,8.878,2.614,17.816,3.245,26.794s1.164,17.93,3.08,26.751a67.989,67.989,0,0,0,7.564,20.335,36.541,36.541,0,0,0,13.762,13.641,33.475,33.475,0,0,0,10.824,3.738,31.22,31.22,0,0,0,13.024-1.005c6.707-1.847,13.676-5.071,17.549-11.135a22.5,22.5,0,0,0,3.108-10.858,35.906,35.906,0,0,0-1.584-12.562,39.746,39.746,0,0,0-5.434-11.192" transform="translate(-44.1 -57.141)" fill="#2f5235"/>
          <path id="Path_1033904" data-name="Path 1033904" d="M315.147,112.529c.705,1.76,2.044,3.569,4.172,3.311a4.85,4.85,0,0,0,1.5-.449c4.159-1.832,8.518-3.168,12.639-5.093a12.19,12.19,0,0,0,4.91-3.595,11.608,11.608,0,0,0,1.972-5.2,37.806,37.806,0,0,0,.265-5.832,32.29,32.29,0,0,0-.538-6.392A12.044,12.044,0,0,0,337.659,84a10.966,10.966,0,0,0-3.784-2.893,13.691,13.691,0,0,0-9.609-.632,14.58,14.58,0,0,0-8.027,6.5A20.044,20.044,0,0,0,313.4,97.494c.011,2.494.105,5,.306,7.49a25.951,25.951,0,0,0,1.44,7.545" transform="translate(-123.578 -31.503)" fill="#2f5235"/>
          <path id="Path_1033905" data-name="Path 1033905" d="M365.272,107.162a.385.385,0,0,0,.044.13c0,.015,0,.029,0,.045.174,1.061.31,2.13.5,3.189a9.6,9.6,0,0,0,.686,2.379,6.129,6.129,0,0,0,3.873,3.2,9.565,9.565,0,0,0,5.91-.207,5.655,5.655,0,0,0,2.382-1.675,9.188,9.188,0,0,0,1.56-3.074c.411-1.253.755-2.535,1.078-3.812a25.927,25.927,0,0,0,.762-4.24,12.07,12.07,0,0,0-1.31-6.9,7.548,7.548,0,0,0-4.915-3.793A9.08,9.08,0,0,0,365.6,98.1a16.384,16.384,0,0,0-.532,7.212c.059.618.132,1.236.208,1.853" transform="translate(-143.888 -36.362)" fill="#2f5235"/>
          <path id="Path_1033906" data-name="Path 1033906" d="M396.894,128.1c2.954,1.626,7.125.874,8.874-2.144a10.615,10.615,0,0,0,1.08-2.908c.245-1.029.437-2.076.578-3.124a14.49,14.49,0,0,0-.374-6.368,8.255,8.255,0,0,0-3.223-4.317,5.94,5.94,0,0,0-5.179-.759,7.717,7.717,0,0,0-4.022,3.389,15.37,15.37,0,0,0-1.83,6.107c-.066.526-.121,1.054-.174,1.582a.572.572,0,0,0-.021.077,7.848,7.848,0,0,0,.853,5.089,8.837,8.837,0,0,0,3.437,3.377" transform="translate(-154.766 -42.661)" fill="#2f5235"/>
          <path id="Path_1033907" data-name="Path 1033907" d="M420.054,146.985a6.264,6.264,0,0,0,4.312.214,5.279,5.279,0,0,0,3.283-2.884,9.7,9.7,0,0,0,.676-2.508c.143-.938.242-1.884.291-2.832a11.638,11.638,0,0,0-.843-5.495c-1.286-2.775-4.5-4.922-7.556-3.567a6.9,6.9,0,0,0-3.29,3.312,13.612,13.612,0,0,0-1.126,5.317c-.021.406-.036.811-.048,1.217,0,.013-.008.025-.009.039a6.933,6.933,0,0,0,1.079,4.491,7.548,7.548,0,0,0,3.23,2.7" transform="translate(-163.921 -51.062)" fill="#2f5235"/>
          <path id="Path_1033908" data-name="Path 1033908" d="M443.95,156.128a7.019,7.019,0,0,0-2.785-3.506,4.439,4.439,0,0,0-4.217-.308,6.567,6.567,0,0,0-3.056,3.242,14.657,14.657,0,0,0-1.134,5.324c-.028.435-.048.87-.067,1.306a.688.688,0,0,0-.013.08,7.233,7.233,0,0,0,.942,4.4,7.077,7.077,0,0,0,2.887,2.69,5.357,5.357,0,0,0,4.016.271,5.079,5.079,0,0,0,3.1-2.932,10.785,10.785,0,0,0,.643-2.52c.136-.9.242-1.818.3-2.731a12.793,12.793,0,0,0-.62-5.314" transform="translate(-170.596 -59.904)" fill="#2f5235"/>
          <path id="Path_1033909" data-name="Path 1033909" d="M310.283,299.717c2.348-3.36,5.1-6.4,7.762-9.514,1.326-1.551,2.629-3.122,3.848-4.759a.6.6,0,0,1,.048-.053.7.7,0,0,1,.046-.07c4.457-5.429,9.081-10.719,13.58-16.113,2.279-2.733,4.531-5.491,6.709-8.305,2.119-2.74,4.119-5.56,6.107-8.4,3.9-5.563,7.744-11.26,10.07-17.693a57.144,57.144,0,0,0,2.505-9.727,60.74,60.74,0,0,0,.937-9.919c.036-6.128-2.67-12.3-6.573-16.935q-.755-.9-1.584-1.728a26.148,26.148,0,0,0-5.821-4.4,29.815,29.815,0,0,0-9.492-3.184,61.579,61.579,0,0,0-10-.714,59.254,59.254,0,0,1-9.358-.6c-6.363-1.043-12.8-3.95-15.821-9.976a19.715,19.715,0,0,1,.721-18.261c3.211-5.708,8.8-9.778,14.879-11.991,7.031-2.56,14.77-2.835,22.154-2.132a65.354,65.354,0,0,1,19.561,4.888,50.366,50.366,0,0,1,16.507,11.216,43.582,43.582,0,0,1,9.988,16.7,40.959,40.959,0,0,1,1.514,19.287,37.816,37.816,0,0,1-1.1,4.712c-2.375,8.663-4.614,17.364-6.635,26.117-2.068,8.958-3.912,17.971-5.414,27.042-1.471,8.878-2.614,17.816-3.245,26.794s-1.164,17.93-3.079,26.751a67.989,67.989,0,0,1-7.564,20.335,36.544,36.544,0,0,1-13.762,13.641,33.475,33.475,0,0,1-10.824,3.738,31.218,31.218,0,0,1-13.023-1.005c-6.708-1.847-13.677-5.071-17.55-11.135a22.51,22.51,0,0,1-3.108-10.858,35.9,35.9,0,0,1,1.584-12.562,39.747,39.747,0,0,1,5.434-11.192" transform="translate(-118.822 -57.141)" fill="#2f5235"/>
        </g>
      </g>
    </g>
  </g>
</svg>
