<svg xmlns="http://www.w3.org/2000/svg" xmlns:xlink="http://www.w3.org/1999/xlink" width="400" height="421" viewBox="0 0 400 421">
  <defs>
    <clipPath id="clip-path">
      <rect id="Rectangle_405113" data-name="Rectangle 405113" width="302.348" height="327.339" fill="none"/>
    </clipPath>
  </defs>
  <g id="Group_1178741" data-name="Group 1178741" transform="translate(8886 656)">
    <rect id="Rectangle_405110" data-name="Rectangle 405110" width="400" height="421" rx="21" transform="translate(-8886 -656)" fill="#ebebeb"/>
    <g id="Group_1177609" data-name="Group 1177609" transform="translate(-8826.949 -656)">
      <g id="Group_1177616" data-name="Group 1177616" transform="translate(-10.051)">
        <g id="Group_1177612" data-name="Group 1177612" clip-path="url(#clip-path)">
          <path id="Path_1033962" data-name="Path 1033962" d="M126.767,164.319a41.212,41.212,0,0,1-.3-5.243q.61-15.093,1.019-30.193.427-15.506.692-31.017.274-15.658.419-31.317.148-15.545.2-31.092.052-15.17.031-30.342,0-1.838-.005-3.678A.6.6,0,0,0,128.65,1a.423.423,0,0,0-.03-.031l0,0a.6.6,0,0,0-.447-.179q-11.055,0-22.11-.078Q94.825.634,83.591.519,72.291.41,60.992.293,49.742.182,38.493.1,27.409.019,16.325,0h-2.79a.679.679,0,0,0-.189.028.721.721,0,0,0-.572.8,464.159,464.159,0,0,0,9.475,48.081c3.725,14.94,8.046,29.721,12.462,44.469,2.154,7.193,4.328,14.379,6.454,21.579,2.134,7.224,4.069,14.512,6.272,21.714,4.593,15.016,11.1,30.376,10.311,46.381-.75,15.154-8.942,28.821-9.624,43.984a41.482,41.482,0,0,0,.081,4.952c-3.966.662-7.468,3.164-10.419,5.772a52.248,52.248,0,0,0-4.562,4.6c-1.408,1.6-2.716,3.27-4.193,4.8-2.852,2.961-6.465,5.879-10.752,6.1-4.559.23-8.994-3.26-13.539-1.585a7.358,7.358,0,0,0-4.346,4.364,7.2,7.2,0,0,0,1.786,7.493.687.687,0,0,0,.163.116.5.5,0,0,0,.142.2,15.968,15.968,0,0,0,3.5,2.283,6.106,6.106,0,0,0,3.6.67,22.765,22.765,0,0,0,7.476,10.177,25.519,25.519,0,0,0,12.466,5.246,21.607,21.607,0,0,0,7.3-.317,132.16,132.16,0,0,0,17.179,11.877,91.753,91.753,0,0,0,9.329,4.47,66.55,66.55,0,0,0,10.328,3.489c13.319,3.119,29.184,1.413,39.718-8.021,4.915-4.4,7.451-10.467,8.715-16.826a134.788,134.788,0,0,0,2.015-22.188c.124-4.053.223-8.108.48-12.155a63.416,63.416,0,0,1,1.529-11.579c1.87-7.377,5.852-14.035,7.392-21.516,3.2-15.528-4.962-30.021-6.751-45.139" transform="translate(0)" fill="#f2b297"/>
          <path id="Path_1033963" data-name="Path 1033963" d="M191.451,332.457c8.873,35.285,16.469,73.077,6.011,108.862l-1.288,4.053-1.444,4a90.482,90.482,0,0,1-7.518,15.184c10.415-20.035,13.81-42.909,13.183-65.26-.574-22.539-5.1-44.67-8.944-66.837" transform="translate(-121.278 -215.37)" fill="#c68b77"/>
          <path id="Path_1033964" data-name="Path 1033964" d="M296.468,328.333c-6.378,33.9-10.056,68.263-12.147,102.676-.076,1.4-.3,5.069-.36,6.449a108.792,108.792,0,0,0,1.118,19.258,29.236,29.236,0,0,0,2.263,8.263,27.774,27.774,0,0,1-2.833-8.157,97.708,97.708,0,0,1-2-19.4c.146-6.355.383-13.1.749-19.438.858-15.8,2.488-31.627,4.79-47.29a355.246,355.246,0,0,1,8.414-42.36" transform="translate(-183.016 -212.699)" fill="#c68b77"/>
          <path id="Path_1033965" data-name="Path 1033965" d="M484.777,164.319a41.2,41.2,0,0,0,.3-5.243q-.61-15.093-1.018-30.193-.427-15.506-.692-31.017-.274-15.658-.419-31.317-.148-15.545-.2-31.092-.052-15.17-.031-30.342,0-1.838.005-3.678A.6.6,0,0,1,482.893,1a.417.417,0,0,1,.03-.031l0,0a.6.6,0,0,1,.447-.179q11.055,0,22.11-.078Q516.718.634,527.953.519q11.3-.109,22.6-.226Q561.8.182,573.051.1,584.134.019,595.219,0h2.79a.676.676,0,0,1,.189.028.721.721,0,0,1,.572.8A464.176,464.176,0,0,1,589.3,48.908c-3.725,14.94-8.046,29.721-12.462,44.469-2.154,7.193-4.328,14.379-6.454,21.579-2.134,7.224-4.069,14.512-6.272,21.714-4.593,15.016-11.1,30.376-10.311,46.381.75,15.154,8.942,28.821,9.624,43.984a41.473,41.473,0,0,1-.081,4.952c3.966.662,7.468,3.164,10.419,5.772a52.256,52.256,0,0,1,4.562,4.6c1.408,1.6,2.716,3.27,4.193,4.8,2.852,2.961,6.465,5.879,10.752,6.1,4.559.23,8.994-3.26,13.539-1.585a7.358,7.358,0,0,1,4.346,4.364,7.2,7.2,0,0,1-1.786,7.493.683.683,0,0,1-.163.116.5.5,0,0,1-.142.2,15.968,15.968,0,0,1-3.5,2.283,6.105,6.105,0,0,1-3.6.67,22.766,22.766,0,0,1-7.476,10.177,25.52,25.52,0,0,1-12.466,5.246,21.606,21.606,0,0,1-7.3-.317,132.166,132.166,0,0,1-17.179,11.877,91.784,91.784,0,0,1-9.329,4.47,66.566,66.566,0,0,1-10.329,3.489c-13.319,3.119-29.184,1.413-39.718-8.021-4.915-4.4-7.451-10.467-8.715-16.826a134.789,134.789,0,0,1-2.015-22.188c-.124-4.053-.223-8.108-.48-12.155a63.417,63.417,0,0,0-1.529-11.579c-1.87-7.377-5.852-14.035-7.392-21.516-3.2-15.528,4.962-30.021,6.751-45.139" transform="translate(-309.196)" fill="#f2b297"/>
          <path id="Path_1033966" data-name="Path 1033966" d="M638.864,332.457c-8.873,35.285-16.469,73.077-6.011,108.862l1.288,4.053,1.444,4a90.512,90.512,0,0,0,7.518,15.184c-10.414-20.035-13.81-42.909-13.183-65.26.573-22.539,5.1-44.67,8.944-66.837" transform="translate(-406.689 -215.37)" fill="#c68b77"/>
          <path id="Path_1033967" data-name="Path 1033967" d="M536.353,328.333c6.378,33.9,10.056,68.263,12.146,102.676.076,1.4.3,5.069.36,6.449a108.792,108.792,0,0,1-1.118,19.258,29.241,29.241,0,0,1-2.263,8.263,27.776,27.776,0,0,0,2.833-8.157,97.71,97.71,0,0,0,2-19.4c-.146-6.355-.383-13.1-.749-19.438-.858-15.8-2.488-31.627-4.79-47.29a355.258,355.258,0,0,0-8.414-42.36" transform="translate(-347.457 -212.699)" fill="#c68b77"/>
          <path id="Path_1033968" data-name="Path 1033968" d="M194.023,158.618a413.8,413.8,0,0,1,9.643,52.5,424.918,424.918,0,0,1,2.868,53.412,427.372,427.372,0,0,1-3.8,53.188,424.592,424.592,0,0,1-10.493,52.518,416.507,416.507,0,0,1-16.953,50.474q-1.3,3.176-2.654,6.329c-.656,1.53,1.6,2.863,2.258,1.32a418.989,418.989,0,0,0,18.023-50.717,424.852,424.852,0,0,0,11.413-52.748,431.743,431.743,0,0,0,4.7-53.4,425.819,425.819,0,0,0-2.042-53.931,418.871,418.871,0,0,0-8.855-53.1q-.767-3.272-1.587-6.532a1.308,1.308,0,0,0-2.521.695" transform="translate(-111.755 -101.702)" fill="#c90912"/>
          <path id="Path_1033969" data-name="Path 1033969" d="M593.964,157.922a419.136,419.136,0,0,0-9.708,52.954,424.871,424.871,0,0,0-2.894,53.891,431.27,431.27,0,0,0,3.872,53.469,426.36,426.36,0,0,0,10.579,52.923,416.127,416.127,0,0,0,17.255,51.13q1.253,3.042,2.553,6.065c.661,1.542,2.914.211,2.257-1.32a413.934,413.934,0,0,1-17.825-50.324,426.659,426.659,0,0,1-13.941-158.916,413.808,413.808,0,0,1,8.786-52.645q.766-3.273,1.587-6.532a1.308,1.308,0,0,0-2.521-.695" transform="translate(-376.601 -101.701)" fill="#c90912"/>
          <line id="Line_601" data-name="Line 601" y1="33.272" x2="103.614" transform="translate(42.55 186.422)" fill="none" stroke="#c90912" stroke-linecap="square" stroke-miterlimit="10" stroke-width="4" stroke-dasharray="0.02 8.28 0.02 8.28 0.02 8.28"/>
          <line id="Line_605" data-name="Line 605" x1="103.614" y1="33.272" transform="translate(156.969 186.422)" fill="none" stroke="#c90912" stroke-linecap="square" stroke-miterlimit="10" stroke-width="4" stroke-dasharray="0.02 8.28 0.02 8.28 0.02 8.28"/>
          <line id="Line_609" data-name="Line 609" x1="103.614" y2="33.272" transform="translate(176.053 287.467)" fill="none" stroke="#c90912" stroke-linecap="square" stroke-miterlimit="10" stroke-width="4" stroke-dasharray="0.02 8.28 0.02 8.28 0.02 8.28"/>
          <line id="Line_613" data-name="Line 613" x2="103.614" y2="33.272" transform="translate(21.375 286.945)" fill="none" stroke="#c90912" stroke-linecap="square" stroke-miterlimit="10" stroke-width="4" stroke-dasharray="0.02 8.28 0.02 8.28 0.02 8.28"/>
        </g>
      </g>
    </g>
  </g>
</svg>
