<svg xmlns="http://www.w3.org/2000/svg" xmlns:xlink="http://www.w3.org/1999/xlink" width="108" height="108" viewBox="0 0 108 108">
  <defs>
    <filter id="Path_904820" x="0" y="0" width="108" height="108" filterUnits="userSpaceOnUse">
      <feOffset dy="3" input="SourceAlpha"/>
      <feGaussianBlur stdDeviation="3" result="blur"/>
      <feFlood flood-opacity="0.161"/>
      <feComposite operator="in" in2="blur"/>
      <feComposite in="SourceGraphic"/>
    </filter>
  </defs>
  <g id="Group_1178877" data-name="Group 1178877" transform="translate(-199.999 -1109)">
    <g id="Group_1178752" data-name="Group 1178752" transform="translate(208.999 1115)">
      <g id="Group_1178589" data-name="Group 1178589" transform="translate(0 0)">
        <g id="Group_1173585" data-name="Group 1173585">
          <g id="Group_1173428" data-name="Group 1173428">
            <g id="Group_1171958" data-name="Group 1171958">
              <g id="Group_1167341" data-name="Group 1167341">
                <g id="Group_1166792" data-name="Group 1166792">
                  <g transform="matrix(1, 0, 0, 1, -9, -6)" filter="url(#Path_904820)">
                    <g id="Path_904820-2" data-name="Path 904820" transform="translate(9 6)" fill="#fdfae4">
                      <path d="M 44.99999618530273 88.49996948242188 C 39.12687301635742 88.49996948242188 33.43022155761719 87.35004425048828 28.06829643249512 85.08214569091797 C 22.88852119445801 82.89128112792969 18.23629570007324 79.75457000732422 14.24084663391113 75.75911712646484 C 10.24540901184082 71.763671875 7.108683586120605 67.11144256591797 4.917821407318115 61.93168258666992 C 2.649921178817749 56.56974411010742 1.499996185302734 50.87310409545898 1.499996185302734 44.99998092651367 C 1.499996185302734 39.12685775756836 2.649921178817749 33.43021774291992 4.917821407318115 28.06829261779785 C 7.108683586120605 22.88851928710938 10.24540901184082 18.23630523681641 14.24084663391113 14.2408561706543 C 18.23629570007324 10.24540615081787 22.88852119445801 7.108693599700928 28.06829643249512 4.917830944061279 C 33.43022155761719 2.649930953979492 39.12687301635742 1.500005960464478 44.99999618530273 1.500005960464478 C 50.87311935424805 1.500005960464478 56.56977081298828 2.649930953979492 61.93169784545898 4.917830944061279 C 67.11147308349609 7.108693599700928 71.76369476318359 10.24540615081787 75.75914764404297 14.2408561706543 C 79.75458526611328 18.23630523681641 82.89131164550781 22.88851928710938 85.08216857910156 28.06829261779785 C 87.35007476806641 33.43021774291992 88.5 39.12685775756836 88.5 44.99998092651367 C 88.5 50.87310409545898 87.35007476806641 56.56974411010742 85.08216857910156 61.93168258666992 C 82.89131164550781 67.11144256591797 79.75458526611328 71.763671875 75.75914764404297 75.75911712646484 C 71.76369476318359 79.75457000732422 67.11147308349609 82.89128112792969 61.93169784545898 85.08214569091797 C 56.56977081298828 87.35004425048828 50.87311935424805 88.49996948242188 44.99999618530273 88.49996948242188 Z" stroke="none"/>
                      <path d="M 44.99999618530273 2.999992370605469 C 39.32870864868164 2.999992370605469 33.82865142822266 4.110054016113281 28.65262603759766 6.299339294433594 C 23.65165710449219 8.414566040039062 19.15968322753906 11.44333648681641 15.301513671875 15.30150604248047 C 11.44333648681641 19.15968322753906 8.414566040039062 23.65164184570312 6.299339294433594 28.65261077880859 C 4.110054016113281 33.82865142822266 2.999992370605469 39.32869338989258 2.999992370605469 44.99998092651367 C 2.999992370605469 50.67126846313477 4.110054016113281 56.17131042480469 6.299339294433594 61.34735107421875 C 8.414566040039062 66.34832763671875 11.44333648681641 70.84027862548828 15.301513671875 74.69845581054688 C 19.15968322753906 78.55662536621094 23.65165710449219 81.58539581298828 28.65262603759766 83.70062255859375 C 33.82865142822266 85.88990783691406 39.32870864868164 86.99996948242188 44.99999618530273 86.99996948242188 C 50.67128372192383 86.99996948242188 56.17134094238281 85.88990783691406 61.34736633300781 83.70062255859375 C 66.34834289550781 81.58539581298828 70.84030914306641 78.55662536621094 74.69847869873047 74.69845581054688 C 78.55665588378906 70.84027862548828 81.58542633056641 66.34832763671875 83.70065307617188 61.34735107421875 C 85.88993835449219 56.17131042480469 87 50.67126846313477 87 44.99998092651367 C 87 39.32869338989258 85.88993835449219 33.82865142822266 83.70065307617188 28.65261077880859 C 81.58542633056641 23.65164184570312 78.55665588378906 19.15968322753906 74.69847869873047 15.30150604248047 C 70.84030914306641 11.44333648681641 66.34834289550781 8.414566040039062 61.34736633300781 6.299339294433594 C 56.17134094238281 4.110054016113281 50.67128372192383 2.999992370605469 44.99999618530273 2.999992370605469 M 44.99999618530273 -7.62939453125e-06 C 69.85281372070312 -7.62939453125e-06 90 20.14717864990234 90 44.99998092651367 C 90 69.852783203125 69.85281372070312 89.99996948242188 44.99999618530273 89.99996948242188 C 20.14717864990234 89.99996948242188 -7.62939453125e-06 69.852783203125 -7.62939453125e-06 44.99998092651367 C -7.62939453125e-06 20.14717864990234 20.14717864990234 -7.62939453125e-06 44.99999618530273 -7.62939453125e-06 Z" stroke="none" fill="#a7921d"/>
                    </g>
                  </g>
                </g>
              </g>
            </g>
          </g>
        </g>
      </g>
    </g>
    <g id="shoe_7242171" transform="translate(225.853 1132.354)">
      <g id="Group_1178875" data-name="Group 1178875" transform="translate(0.908 0.908)">
        <g id="Group_1178865" data-name="Group 1178865" transform="translate(29.054 9.079)">
          <path id="Path_1034724" data-name="Path 1034724" d="M266.889,101.77c.169-1.042.318-2.162.437-3.388.19-1.948.305-4.162.305-6.751V88a15.268,15.268,0,0,0,6.8,12.7l.616.411a3,3,0,0,0,3.328,0l.616-.411a15.268,15.268,0,0,0,6.8-12.7v3.632c0,14.527,3.632,17.251,3.632,27.238,0,6.108-8.346,12.215-11,14a3.059,3.059,0,0,1-3.418,0c-2.656-1.79-11-7.9-11-14a36.194,36.194,0,0,1,.93-8.221h0c.608-2.751,1.394-5.365,1.959-8.877Z" transform="translate(-264 -88)" fill="#dfb28b"/>
        </g>
        <g id="Group_1178866" data-name="Group 1178866" transform="translate(0 22.849)">
          <path id="Path_1034725" data-name="Path 1034725" d="M39.944,209.33c-.565,3.513-1.351,6.126-1.959,8.877h0l-4.642,10.446a14.754,14.754,0,0,1-8.817,8L12.113,240.8A3.124,3.124,0,0,1,8,237.833a12.5,12.5,0,0,1,.8-4.409c.481-1.272,1.141-3.06,1.879-5.178h7.509a13.611,13.611,0,0,0,5.113-1c4.547-1.845,13.75-11.858,16.638-17.92Z" transform="translate(-8 -209.33)" fill="#dfb28b"/>
        </g>
        <g id="Group_1178867" data-name="Group 1178867" transform="translate(2.684 7.09)">
          <path id="Path_1034726" data-name="Path 1034726" d="M58.02,70.644l3.326,12.2c-.119,1.226-.268,2.346-.437,3.388-2.888,6.063-12.092,16.075-16.638,17.92a13.611,13.611,0,0,1-5.113,1H31.65c2.678-7.673,6.4-19.686,6.4-27.238v-.252a1.61,1.61,0,0,0,.107.586c.8,2.063,5.872,1.96,11.329-.229,5.318-2.135,9.04-5.465,8.484-7.542Z" transform="translate(-31.65 -70.47)" fill="#ecc19c"/>
        </g>
        <g id="Group_1178868" data-name="Group 1178868" transform="translate(32.686)">
          <path id="Path_1034727" data-name="Path 1034727" d="M314.159,17.079a15.268,15.268,0,0,1-6.8,12.7l-.616.411a3,3,0,0,1-3.328,0l-.616-.411a15.268,15.268,0,0,1-6.8-12.7,9.079,9.079,0,1,1,18.159,0Z" transform="translate(-296 -8)" fill="#f0d0b4"/>
        </g>
        <g id="Group_1178869" data-name="Group 1178869" transform="translate(9.079 5.447)">
          <path id="Path_1034728" data-name="Path 1034728" d="M94.356,58.722a2.724,2.724,0,1,0,4.691-1.883c4.426-1.3,8.146-1.1,8.822.641l.051.16c.556,2.077-3.165,5.407-8.484,7.542-5.457,2.189-10.529,2.293-11.329.229A1.61,1.61,0,0,1,88,64.825c0-1.765,2.557-4.212,6.357-6.13C94.357,58.7,94.356,58.713,94.356,58.722Z" transform="translate(-88 -55.997)" fill="#f0d0b4"/>
        </g>
        <g id="Group_1178870" data-name="Group 1178870" transform="translate(39.031 5.797)">
          <circle id="Ellipse_11669" data-name="Ellipse 11669" cx="2.68" cy="2.68" r="2.68" transform="translate(0 0)" fill="#fcd770"/>
        </g>
        <g id="Group_1178871" data-name="Group 1178871" transform="translate(15.435 6.289)">
          <path id="Path_1034729" data-name="Path 1034729" d="M148.691,63.41A2.723,2.723,0,1,1,144,65.293c0-.009,0-.018,0-.026.689-.35,1.42-.68,2.182-.986C147.034,63.94,147.875,63.649,148.691,63.41Z" transform="translate(-144 -63.41)" fill="#fcd770"/>
        </g>
        <g id="Group_1178872" data-name="Group 1178872" transform="translate(25.094 16.517)">
          <ellipse id="Ellipse_11670" data-name="Ellipse 11670" cx="2.144" cy="1.608" rx="2.144" ry="1.608" transform="translate(0 0)" fill="#e6e9ed"/>
        </g>
        <g id="Group_1178873" data-name="Group 1178873" transform="translate(19.734 19.733)">
          <circle id="Ellipse_11671" data-name="Ellipse 11671" cx="2.144" cy="2.144" r="2.144" transform="translate(0 0)" fill="#e6e9ed"/>
        </g>
        <g id="Group_1178874" data-name="Group 1178874" transform="translate(14.373 24.022)">
          <ellipse id="Ellipse_11672" data-name="Ellipse 11672" cx="2.144" cy="1.608" rx="2.144" ry="1.608" transform="translate(0 0)" fill="#e6e9ed"/>
        </g>
      </g>
      <g id="Group_1178876" data-name="Group 1178876" transform="translate(0 0)">
        <path id="Path_1034730" data-name="Path 1034730" d="M347.632,55.264A3.632,3.632,0,1,0,344,51.632,3.636,3.636,0,0,0,347.632,55.264Zm0-5.448a1.816,1.816,0,1,1-1.816,1.816A1.818,1.818,0,0,1,347.632,49.816Z" transform="translate(-304.959 -42.552)"/>
        <path id="Path_1034731" data-name="Path 1034731" d="M54.7,29.76a59.5,59.5,0,0,1-2.043-16.141V9.987a9.987,9.987,0,1,0-19.975,0v3.632c0,.362,0,.714-.008,1.061l-1.84-6.748-.053-.166A2.516,2.516,0,0,0,30.7,7.51a2.854,2.854,0,0,0-1.625-1.567c-2.245-.975-6.519-.471-10.888,1.282a23.188,23.188,0,0,0-6.836,4.07c-1.84,1.68-2.315,3.019-2.272,3.991v.149c0,9.609-6.288,27-8.216,32.1A13.334,13.334,0,0,0,0,52.26a4.032,4.032,0,0,0,5.308,3.826L17.72,51.948a15.7,15.7,0,0,0,9.359-8.5L29.1,38.9c-.031.624-.048,1.275-.048,1.959,0,2.856,1.6,5.969,4.759,9.251a42.709,42.709,0,0,0,6.644,5.506,3.966,3.966,0,0,0,4.433,0,42.709,42.709,0,0,0,6.644-5.506c3.158-3.282,4.759-6.395,4.759-9.251A42.026,42.026,0,0,0,54.7,29.76ZM42.673,1.816a8.181,8.181,0,0,1,8.171,8.171A14.332,14.332,0,0,1,44.45,21.936l-.617.411a2.091,2.091,0,0,1-2.319,0l-.617-.411A14.332,14.332,0,0,1,34.5,9.987a8.181,8.181,0,0,1,8.171-8.171ZM18.865,8.91c.625-.251,1.232-.467,1.819-.656a1.815,1.815,0,1,1-3.36,1.329q.732-.347,1.541-.673ZM15.7,10.429a3.631,3.631,0,0,0,6.754-2.67,16.41,16.41,0,0,1,3.723-.489,5.721,5.721,0,0,1,2.18.339,1.144,1.144,0,0,1,.65.547l.019.058c.37,1.215-2.484,4.294-7.937,6.483-4.459,1.789-8.044,1.929-9.489,1.3a1.131,1.131,0,0,1-.655-.558.732.732,0,0,1-.046-.229v-.028h0c-.019-1.028,1.663-2.969,4.8-4.754Zm-4.89,7.2.067.031a7.42,7.42,0,0,0,2.9.491,22.506,22.506,0,0,0,7.986-1.773,23.188,23.188,0,0,0,6.836-4.07,10.509,10.509,0,0,0,1.2-1.28l2.566,9.407c-.11,1.1-.244,2.106-.394,3.05-2.9,5.954-11.861,15.627-16.1,17.347a12.629,12.629,0,0,1-4.771.929H4.87c2.446-7.131,5.393-16.937,5.936-24.132ZM25.42,42.713a13.877,13.877,0,0,1-8.274,7.512L4.733,54.363a2.217,2.217,0,0,1-2.918-2.1,11.523,11.523,0,0,1,.746-4.088c.464-1.228,1.042-2.794,1.676-4.591H11.1a14.437,14.437,0,0,0,5.453-1.062c2.272-.922,5.65-3.694,9.268-7.605A63.435,63.435,0,0,0,30.9,28.708q-.129.534-.257,1.052c-.213.865-.422,1.718-.616,2.588Zm18.455,11.4a2.149,2.149,0,0,1-2.4,0c-2.487-1.675-10.6-7.582-10.6-13.252a39.995,39.995,0,0,1,1.536-10.663,60.523,60.523,0,0,0,2.012-12.916,16.158,16.158,0,0,0,5.471,6.169l.617.411a3.907,3.907,0,0,0,4.334,0l.617-.411a16.158,16.158,0,0,0,5.471-6.169,60.523,60.523,0,0,0,2.012,12.916,40,40,0,0,1,1.536,10.664c0,5.67-8.114,11.576-10.6,13.252Z" transform="translate(0 0)"/>
        <path id="Path_1034732" data-name="Path 1034732" d="M417.746,396.828l1.294,1.274a24,24,0,0,0,1.636-1.83l-1.418-1.134A22.213,22.213,0,0,1,417.746,396.828Z" transform="translate(-370.335 -350.293)"/>
        <path id="Path_1034733" data-name="Path 1034733" d="M429.666,238.294l-1.776.378c.278,1.306.57,2.492.852,3.64a37.043,37.043,0,0,1,1.431,9.8,4.8,4.8,0,0,1-.722,2.238l1.585.885a6.536,6.536,0,0,0,.952-3.123,38.519,38.519,0,0,0-1.483-10.23C430.226,240.744,429.938,239.572,429.666,238.294Z" transform="translate(-379.328 -211.249)"/>
        <path id="Path_1034734" data-name="Path 1034734" d="M226.724,149.448A2.724,2.724,0,1,0,224,146.724,2.727,2.727,0,0,0,226.724,149.448Zm0-3.632a.908.908,0,1,1-.908.908A.909.909,0,0,1,226.724,145.816Z" transform="translate(-198.578 -127.657)"/>
        <path id="Path_1034735" data-name="Path 1034735" d="M178.724,181.448A2.724,2.724,0,1,0,176,178.724,2.727,2.727,0,0,0,178.724,181.448Zm0-3.632a.908.908,0,1,1-.908.908A.909.909,0,0,1,178.724,177.816Z" transform="translate(-156.025 -156.025)"/>
        <path id="Path_1034736" data-name="Path 1034736" d="M130.724,213.448A2.724,2.724,0,1,0,128,210.724,2.727,2.727,0,0,0,130.724,213.448Zm0-3.632a.908.908,0,1,1-.908.908A.909.909,0,0,1,130.724,209.816Z" transform="translate(-113.473 -184.394)"/>
      </g>
    </g>
  </g>
</svg>
