<svg xmlns="http://www.w3.org/2000/svg" width="295" height="104.314" viewBox="0 0 295 104.314">
  <g id="Group_1178796" data-name="Group 1178796" transform="translate(-1125.051 -4794.686)">
    <g id="Group_1177984" data-name="Group 1177984" transform="translate(0 4399)">
      <rect id="Rectangle_405094" data-name="Rectangle 405094" width="295" height="73" rx="2" transform="translate(1125.051 417)" fill="#2f5235"/>
      <rect id="Rectangle_405095" data-name="Rectangle 405095" width="233" height="93" rx="2" transform="translate(1156.051 407)" fill="#abb9ae"/>
    </g>
    <g id="resurrection_15549573" transform="translate(1219.051 4793.686)">
      <path id="Path_1034587" data-name="Path 1034587" d="M7.686,43.643A13.157,13.157,0,0,0,18.374,58.851l.323.056A95.074,95.074,0,0,1,56.778,74.694l7.189,5.047a44.485,44.485,0,0,0,17.814,7.386l.454.079a6.513,6.513,0,0,0,7.544-5.288l.032-.168a6.516,6.516,0,0,0-3.764-7.077L81.378,72.58a13.46,13.46,0,0,1-5.483-4.487L54.463,37.977A21.872,21.872,0,0,1,50.41,25.3V2H15.078V29.761A6.73,6.73,0,0,1,13.41,34.2l-2.656,3.028a13.147,13.147,0,0,0-3.067,6.419Z" transform="translate(4.43 0.682)" fill="#ffe4c9"/>
      <path id="Path_1034588" data-name="Path 1034588" d="M88.415,80.553l.032-.168a6.515,6.515,0,0,0-3.764-7.077l-4.671-2.093a13.46,13.46,0,0,1-5.483-4.487L53.1,36.612a21.872,21.872,0,0,1-4.053-12.681V4H17.077V31.761a6.729,6.729,0,0,1-1.667,4.433l-2.657,3.029a13.148,13.148,0,0,0-.941,16.123,13.108,13.108,0,0,0,5.2,2.142l.323.056A95.074,95.074,0,0,1,55.413,73.33L62.6,78.378a44.485,44.485,0,0,0,17.814,7.386l.454.079a6.513,6.513,0,0,0,7.544-5.29Z" transform="translate(5.795 2.047)" fill="#ffdab7"/>
      <path id="Path_1034589" data-name="Path 1034589" d="M2,58H102.949v6.73H2Z" transform="translate(0.682 38.902)" fill="#f6f7fe"/>
      <path id="Path_1034590" data-name="Path 1034590" d="M4,60h97.584v3.365H4Z" transform="translate(2.047 40.267)" fill="#ebedfc"/>
      <path id="Path_1034591" data-name="Path 1034591" d="M18.763,61.189l.325.057a93.17,93.17,0,0,1,21.8,6.666,93.638,93.638,0,0,1,15.608,8.84L63.689,81.8a46.129,46.129,0,0,0,18.482,7.662l.36.062A8.295,8.295,0,0,0,87.35,73.78l-4.6-2.054a11.793,11.793,0,0,1-4.8-3.93L56.515,37.678a20.089,20.089,0,0,1-3.74-11.7V2.682A1.682,1.682,0,0,0,51.092,1H15.76a1.682,1.682,0,0,0-1.682,1.682V30.444a5.047,5.047,0,0,1-1.25,3.323l-2.658,3.028a14.841,14.841,0,0,0,8.594,24.4ZM10.026,44.612a11.486,11.486,0,0,1,2.675-5.6l2.657-3.028a8.412,8.412,0,0,0,2.085-5.54V4.365H49.41V25.978a23.562,23.562,0,0,0,4.364,13.659L75.205,69.755a15.142,15.142,0,0,0,6.17,5.047l4.6,2.054a4.93,4.93,0,0,1-2.86,9.358l-.358-.062a42.786,42.786,0,0,1-17.138-7.107L58.431,74a96.84,96.84,0,0,0-16.17-9.161,96.551,96.551,0,0,0-22.586-6.9l-.323-.056a11.5,11.5,0,0,1-9.326-13.271Z" transform="translate(3.748)"/>
      <path id="Path_1034592" data-name="Path 1034592" d="M19.6,23.543a6.73,6.73,0,0,1,5.46,7.8,1.682,1.682,0,0,0,1.363,1.95,1.77,1.77,0,0,0,.294.025,1.682,1.682,0,0,0,1.656-1.39,10.1,10.1,0,0,0-8.192-11.695,1.682,1.682,0,0,0-.584,3.313Z" transform="translate(11.774 13.112)"/>
      <path id="Path_1034593" data-name="Path 1034593" d="M103.632,57H2.682A1.682,1.682,0,0,0,1,58.682v6.73a1.682,1.682,0,0,0,1.682,1.682H103.632a1.682,1.682,0,0,0,1.682-1.682v-6.73A1.682,1.682,0,0,0,103.632,57Zm-1.682,6.73H4.365V60.365h97.584Z" transform="translate(0 38.22)"/>
      <path id="Path_1034594" data-name="Path 1034594" d="M13.682,45A1.682,1.682,0,0,0,12,46.682V56.777a1.682,1.682,0,1,0,3.365,0V46.682A1.682,1.682,0,0,0,13.682,45Z" transform="translate(7.507 30.03)"/>
      <path id="Path_1034595" data-name="Path 1034595" d="M20,43.682v13.46a1.682,1.682,0,0,0,3.365,0V43.682a1.682,1.682,0,0,0-3.365,0Z" transform="translate(12.967 27.982)"/>
      <path id="Path_1034596" data-name="Path 1034596" d="M53.872,21.919l2.175-2.175V35.872a1.682,1.682,0,1,0,3.365,0V19.744l2.175,2.175a1.682,1.682,0,1,0,2.379-2.379l-5.048-5.047a1.682,1.682,0,0,0-2.379,0L51.493,19.54a1.682,1.682,0,1,0,2.379,2.379Z" transform="translate(34.125 8.873)"/>
      <path id="Path_1034597" data-name="Path 1034597" d="M42.872,12.919l2.175-2.175V26.872a1.682,1.682,0,1,0,3.365,0V10.744l2.175,2.175a1.682,1.682,0,1,0,2.379-2.379L47.919,5.493a1.682,1.682,0,0,0-2.379,0L40.493,10.54a1.682,1.682,0,1,0,2.379,2.379Z" transform="translate(26.617 2.73)"/>
    </g>
  </g>
</svg>
